<?xml version="1.0" encoding="utf-8"?>
<!-- Generator: Adobe Illustrator 22.1.0, SVG Export Plug-In . SVG Version: 6.00 Build 0)  -->
<svg version="1.1" id="Layer_1" xmlns="http://www.w3.org/2000/svg" xmlns:xlink="http://www.w3.org/1999/xlink" x="0px" y="0px"
	 viewBox="0 0 178 65" style="enable-background:new 0 0 178 65;" xml:space="preserve">
<style type="text/css">
	.st0{fill:#221F20;}
</style>
<g>
	<path class="st0" d="M79,3.2C79,3.4,79,3.7,79,4c-0.1,0.3-0.2,0.4-0.6,0.4c-0.2,0-0.4-0.1-0.6-0.4c-0.2-0.2-0.5-0.4-0.8-0.6
		c-0.3-0.2-0.7-0.3-1.2-0.3s-1.2,0.3-2,0.8c-0.8,0.5-1.8,1.3-3,2.5c-1.2,1.2-2.7,2.8-4.4,4.9c-1.3,1.6-2.7,3.4-4,5.2
		c-1.3,1.8-2.6,3.6-3.8,5.4s-2.3,3.4-3.3,5s-1.8,2.9-2.5,3.9c-0.2,0.4-0.5,0.7-0.7,1c-0.2,0.2-0.5,0.4-0.8,0.6
		c-0.3,0.2-0.7,0.3-1.1,0.2c-0.8-0.1-1.2-0.7-1.3-2c0-0.5,0-1.2,0.2-2c0.1-0.8,0.4-1.9,0.8-3.1c0.4-1.2,1-2.7,1.7-4.3
		c0.7-1.7,1.6-3.6,2.7-5.8c-2.1,2.7-4.2,5.3-6.2,8c-2,2.7-3.8,5.1-5.3,7.4c-0.2,0.4-0.5,0.7-0.8,1c-0.2,0.2-0.5,0.4-0.9,0.6
		c-0.3,0.2-0.7,0.3-1.1,0.2c-0.2,0-0.4,0-0.6-0.1c-0.2-0.1-0.3-0.1-0.4-0.2c-0.1-0.1-0.3-0.2-0.4-0.2c-0.3-0.3-0.6-0.7-0.7-1
		c-0.1-0.4-0.2-0.7-0.2-1c0-0.5,0.1-1.1,0.3-1.6c0.2-0.6,0.4-1.1,0.6-1.6c0.2-0.6,0.5-1.1,0.9-1.7c0.6-1,1.2-2.3,1.9-3.7
		s1.4-3.1,2.2-5c0.7-1.8,1.3-3.4,1.7-4.7c0.4-1.4,0.8-2.5,1-3.5c0.2-1,0.3-1.8,0.3-2.5c0-0.7,0-1.2-0.1-1.7c-0.1-0.4-0.3-0.8-0.5-1
		c-0.2-0.2-0.4-0.4-0.6-0.5c-0.4-0.2-0.8-0.3-1.2-0.2c-0.4,0.1-0.8,0.2-1.1,0.4c-0.4,0.2-0.8,0.5-1.2,0.8c-0.6,0.6-1.3,1.3-1.9,2.1
		c-0.7,0.8-1.3,1.8-1.9,2.7c-0.6,1-1.2,1.9-1.7,3c-0.5,1-1,2-1.4,2.8c-0.4,0.9-0.7,1.6-0.9,2.3c-0.2,0.7-0.3,1.1-0.3,1.4
		c0,0.2,0,0.4,0,0.5c-0.1,0.1-0.1,0.2-0.1,0.3c-0.1,0.1-0.2,0.2-0.2,0.2c-0.2,0.1-0.3,0.2-0.4,0.2c-0.1,0-0.3,0-0.4-0.1
		c-0.1,0-0.2-0.1-0.3-0.2c-0.3-0.2-0.6-0.5-0.7-0.8c-0.1-0.3-0.2-0.7-0.2-1.1c0-0.4,0.1-0.8,0.2-1.3c0.1-0.4,0.3-0.9,0.4-1.3
		c0.1-0.4,0.4-1.1,0.8-1.9c0.4-0.8,0.9-1.8,1.5-2.8c0.6-1,1.4-2.1,2.2-3.2c0.9-1.1,1.9-2.1,3.1-3.1c0.7-0.6,1.4-1.1,2.1-1.5
		s1.3-0.6,1.8-0.7c0.6-0.1,1.1-0.2,1.5-0.2c0.4,0,0.8,0.1,1.2,0.2c0.3,0.1,0.6,0.2,0.8,0.3c0.2,0.1,0.3,0.2,0.4,0.3
		c0.6,0.5,1.1,1,1.3,1.8c0.3,0.7,0.4,1.6,0.4,2.6c0,1-0.1,2-0.3,3.1c-0.2,1.1-0.5,2.3-0.8,3.5c-0.4,1.2-0.8,2.4-1.3,3.6
		c-0.5,1.2-1,2.4-1.5,3.6c-0.7,1.5-1.3,2.8-1.8,3.9c-0.6,1.1-1.1,2.1-1.5,3c-0.2,0.3-0.3,0.6-0.5,0.9c-0.1,0.2-0.3,0.5-0.4,0.8
		s-0.2,0.5-0.2,0.6c-0.1,0.3-0.2,0.7-0.3,1.1c0,0.4,0,0.6,0.2,0.9c0.3-0.5,0.7-1.2,1.2-2.1c0.5-0.9,1.1-1.8,1.8-2.9
		c0.7-1.1,1.4-2.2,2.2-3.5c0.8-1.2,1.6-2.5,2.5-3.7c0.9-1.2,1.7-2.5,2.6-3.6c0.9-1.2,1.7-2.3,2.5-3.2c0.3-0.4,0.6-0.8,0.9-1.2
		c0.3-0.4,0.6-0.8,0.9-1.2c0.3-0.3,0.6-0.6,1-0.8c0.4-0.2,0.8-0.3,1.2-0.2c0.6,0.2,0.9,0.5,1,0.9c0.1,0.4,0,0.9-0.2,1.5
		c-0.3,0.6-0.7,1.3-1.1,2.2c-0.4,0.9-0.9,1.8-1.4,2.9c-0.5,1-1,2.1-1.5,3.3c-0.5,1.1-1,2.2-1.5,3.3c-0.5,1.1-0.9,2.1-1.2,3.1
		s-0.7,1.9-0.9,2.6s-0.3,1.4-0.3,1.8s0.1,0.7,0.4,0.8c0.3-0.5,0.7-1.2,1.2-2.1c0.5-0.9,1.1-1.9,1.7-3s1.4-2.3,2.1-3.6
		c0.8-1.3,1.5-2.5,2.3-3.8c0.8-1.3,1.6-2.5,2.4-3.6c0.8-1.2,1.5-2.2,2.2-3.2c0.8-1.1,1.7-2.2,2.6-3.3c0.9-1.1,1.8-2.1,2.7-3
		s1.8-1.7,2.8-2.4c0.9-0.7,1.8-1.2,2.7-1.5C74.3,1.1,75.2,0.9,76,1c0.8,0.1,1.5,0.4,2.2,1c0.1,0.1,0.2,0.2,0.3,0.4
		c0.1,0.1,0.2,0.2,0.2,0.4C78.9,2.9,78.9,3,79,3.2z M39.5,4.2c-0.1,0-0.2,0.1-0.2,0.2c-0.1,0.1-0.1,0.1-0.2,0.2c0,0-0.1,0.1-0.1,0.1
		c0,0-0.1,0.1-0.1,0.1c0,0-0.1,0.1-0.1,0.1c0,0-0.1,0.1-0.1,0.1c0,0-0.1,0.1-0.1,0.1c0,0-0.1,0.1-0.1,0.1s-0.1,0.1-0.1,0.1
		c0,0-0.1,0.1-0.1,0.1c-0.1,0.1-0.2,0.2-0.2,0.2c-0.1,0.1-0.1,0.1-0.2,0.2C37.5,6,37.3,6.3,37,6.6c-0.3,0.3-0.5,0.6-0.8,1
		c-0.5,0.7-1,1.3-1.4,2c-0.4,0.7-0.8,1.4-1.1,2.1c-0.2,0.3-0.3,0.7-0.4,1c-0.1,0.3-0.3,0.6-0.4,0.9c-0.1,0.3-0.2,0.6-0.3,0.8
		c-0.1,0.3-0.2,0.5-0.2,0.7c0,0.2-0.1,0.4-0.1,0.6s-0.1,0.3-0.1,0.5c0,0.1,0,0.1,0,0.2c0,0.1,0,0.1,0,0.1v0.1c0-0.1,0.1-0.3,0.1-0.4
		c0-0.1,0.1-0.2,0.1-0.4c0-0.1,0-0.1,0.1-0.2c0,0,0-0.1,0.1-0.2c0,0,0-0.1,0.1-0.2c0,0,0-0.1,0.1-0.2c0.1-0.4,0.3-0.9,0.6-1.4
		c0.1-0.2,0.2-0.4,0.3-0.7c0.1-0.2,0.2-0.4,0.3-0.7c0.1-0.2,0.2-0.4,0.3-0.6s0.2-0.4,0.3-0.6c0.4-0.8,0.9-1.5,1.3-2.1
		c0.1-0.1,0.1-0.2,0.2-0.2c0,0,0.1-0.1,0.1-0.1c0,0,0.1-0.1,0.1-0.1c0-0.1,0.1-0.2,0.1-0.2s0.1-0.1,0.2-0.2c0-0.1,0.1-0.2,0.2-0.2
		c0.1-0.1,0.1-0.1,0.2-0.2c0-0.1,0.1-0.2,0.2-0.2c0.1-0.1,0.1-0.1,0.2-0.2c0-0.1,0.1-0.2,0.2-0.2c0,0,0-0.1,0.1-0.1
		c0,0,0-0.1,0.1-0.1c0.1-0.1,0.2-0.2,0.3-0.3c0.1-0.1,0.2-0.2,0.3-0.3C37.8,6.1,37.9,6,38,5.9c0.1-0.1,0.2-0.2,0.3-0.3
		c0.1-0.1,0.1-0.2,0.2-0.2c0.1-0.1,0.2-0.2,0.2-0.2C38.7,5.1,38.8,5,38.8,5c0.1-0.1,0.1-0.1,0.2-0.2l0.2-0.2c0-0.1,0.1-0.1,0.1-0.2
		s0.1-0.1,0.1-0.1L39.5,4.2z M40.2,25.5C40.2,25.5,40.2,25.5,40.2,25.5c0.3-0.4,0.5-0.8,0.8-1.2c0.1-0.1,0.2-0.2,0.2-0.3
		s0.1-0.2,0.2-0.3l0.1-0.1l0.1-0.1c0,0,0.1-0.1,0.1-0.2l0.2-0.4c0-0.1,0.1-0.1,0.1-0.2c0-0.1,0.1-0.1,0.1-0.2l0.2-0.4l0.4-0.7
		l0.4-0.7l0.4-0.7c0.1-0.1,0.1-0.2,0.2-0.4c0.1-0.1,0.1-0.2,0.2-0.4c0.1-0.2,0.1-0.3,0.2-0.4c0.1-0.2,0.1-0.3,0.2-0.4l0.6-1.5
		l0.2-0.4c0-0.1,0-0.1,0.1-0.2c0-0.1,0-0.1,0.1-0.2c0.1-0.1,0.1-0.2,0.2-0.4c0.1-0.1,0.1-0.2,0.1-0.4l0.3-0.7c0,0,0-0.1,0.1-0.2
		c0-0.1,0-0.1,0.1-0.2s0-0.1,0.1-0.2c0-0.1,0-0.1,0.1-0.2c0-0.1,0.1-0.2,0.1-0.4c0-0.1,0.1-0.2,0.1-0.4c0-0.1,0.1-0.2,0.1-0.3
		c0-0.1,0.1-0.2,0.1-0.4c0,0,0,0,0-0.1c0,0,0-0.1,0-0.1c0,0,0-0.1,0-0.1s0,0,0-0.1c0-0.1,0.1-0.2,0.1-0.3c0-0.1,0-0.1,0-0.2
		c0-0.1,0-0.1,0-0.2c0,0,0-0.1,0-0.1c0-0.1,0-0.1,0-0.2l0.1-0.3c0-0.1,0.1-0.2,0.1-0.3c0-0.1,0.1-0.2,0.1-0.3c0-0.1,0-0.2,0-0.3
		c0-0.2,0.1-0.3,0.1-0.5c0-0.2,0.1-0.3,0.1-0.5c0.1-0.6,0.1-1.1,0.2-1.4V7.7c0,0,0-0.1,0-0.2V7.5v0c0,0.2,0,0.4-0.1,0.5
		c0,0.2-0.1,0.4-0.1,0.5c0,0,0,0.1,0,0.1c0,0,0,0.1,0,0.1c0,0,0,0.1,0,0.1s0,0.1,0,0.1c0,0.2-0.1,0.4-0.1,0.5c0,0,0,0.1-0.1,0.2
		c0,0,0,0.1-0.1,0.2c0,0,0,0.1-0.1,0.2c0,0,0,0.1,0,0.1c0,0,0,0.1,0,0.1c0,0.1-0.1,0.2-0.1,0.2c0,0.1,0,0.2-0.1,0.3
		c0,0.1,0,0.2-0.1,0.2c0,0.1,0,0.1-0.1,0.2c-0.4,1.2-0.8,2.4-1.3,3.5c0,0.1-0.1,0.1-0.1,0.2c0,0.1,0,0.1-0.1,0.2
		c0,0.1-0.1,0.2-0.2,0.4c0,0.1-0.1,0.3-0.2,0.4c0,0.1-0.1,0.1-0.1,0.2c0,0.1,0,0.1-0.1,0.2l-0.6,1.5c0,0.1-0.1,0.2-0.1,0.3
		c-0.1,0.1-0.1,0.2-0.2,0.3c0,0.1-0.1,0.2-0.1,0.4c-0.1,0.1-0.1,0.2-0.1,0.3c-0.2,0.4-0.4,0.8-0.6,1.3c-0.1,0.2-0.2,0.4-0.3,0.6
		c-0.1,0.2-0.2,0.4-0.2,0.6c-0.1,0.2-0.2,0.3-0.2,0.5c0,0.1-0.1,0.2-0.1,0.2c0,0.1-0.1,0.1-0.1,0.2c-0.1,0.2-0.2,0.3-0.2,0.4
		c0,0.1-0.1,0.2-0.1,0.2c0,0.1-0.1,0.1-0.1,0.2c-0.1,0.1-0.1,0.2-0.2,0.4c-0.1,0.1-0.1,0.2-0.2,0.3c-0.1,0.1-0.1,0.2-0.2,0.3
		c0,0.1-0.1,0.2-0.1,0.3c0,0-0.1,0.1-0.1,0.1s0,0.1,0,0.1l-0.1,0.2C40.3,25.4,40.2,25.5,40.2,25.5z M53.1,13.7
		c0.3-0.4,0.5-0.7,0.6-0.9c0.1-0.1,0.2-0.2,0.2-0.3c-0.7,0.8-1.3,1.6-2,2.5c-0.7,0.9-1.4,1.8-2.1,2.7c-0.7,0.9-1.3,1.8-1.9,2.8
		c-0.6,0.9-1.2,1.8-1.8,2.7c-0.6,0.9-1.1,1.7-1.5,2.4c-0.5,0.7-0.8,1.4-1.2,1.9c-0.2,0.3-0.3,0.5-0.4,0.7c-0.1,0.2-0.2,0.4-0.3,0.6
		l-0.3,0.5c0.2-0.3,0.4-0.6,0.6-0.9c0.2-0.3,0.4-0.6,0.6-0.9c0.2-0.3,0.4-0.6,0.6-0.9c0.2-0.3,0.4-0.6,0.6-0.9
		c0.8-1.1,1.5-2.2,2.2-3.2c0.3-0.5,0.7-1,1-1.4c0.3-0.5,0.6-0.9,1-1.4c0.2-0.2,0.3-0.4,0.4-0.6c0.1-0.2,0.3-0.4,0.4-0.6
		c0.2-0.2,0.3-0.4,0.4-0.6c0.1-0.2,0.3-0.4,0.4-0.6c0.3-0.4,0.5-0.7,0.7-1c0.2-0.3,0.4-0.6,0.6-0.9c0.1-0.1,0.2-0.3,0.3-0.4
		c0.1-0.1,0.2-0.3,0.3-0.4C52.8,14.1,53,13.9,53.1,13.7z M74.3,2.9C74.3,2.9,74.3,2.9,74.3,2.9C74.3,2.9,74.4,2.9,74.3,2.9
		c-0.3,0.1-0.7,0.3-1.1,0.5c0,0-0.1,0.1-0.2,0.1c-0.1,0-0.1,0-0.2,0.1c0,0,0,0-0.1,0c0,0,0,0-0.1,0c-0.1,0-0.1,0.1-0.2,0.1
		c0,0-0.1,0-0.1,0c0,0,0,0-0.1,0c0,0-0.1,0.1-0.2,0.1L72,4.1c-0.4,0.3-0.7,0.6-1.1,0.9c-0.4,0.3-0.7,0.6-1.1,0.9
		c-0.7,0.7-1.4,1.3-2,2c-0.7,0.7-1.3,1.4-1.9,2.2c-1.3,1.5-2.5,3.1-3.6,4.6c-0.6,0.8-1.1,1.5-1.6,2.3c-0.5,0.7-1,1.5-1.5,2.2
		c-1,1.5-1.9,2.8-2.6,4s-1.4,2.3-2,3.3c-0.3,0.5-0.5,0.9-0.7,1.2c-0.2,0.4-0.4,0.7-0.6,0.9C53.1,28.8,53,28.9,53,29
		c-0.1,0.1-0.1,0.2-0.1,0.2c-0.1,0.1-0.1,0.2-0.1,0.2c0.3-0.5,0.7-1.1,1-1.6c0.3-0.5,0.7-1,1-1.5c0.3-0.5,0.7-1,1-1.5
		c0.3-0.5,0.6-1,1-1.5c0.3-0.5,0.6-0.9,1-1.4c0.3-0.5,0.6-0.9,1-1.4c0.3-0.4,0.6-0.9,0.9-1.3c0.3-0.4,0.6-0.9,0.9-1.3
		c1.2-1.7,2.4-3.3,3.5-4.7c1.1-1.4,2.1-2.7,3.1-3.9c0.1-0.2,0.2-0.3,0.4-0.4c0.1-0.1,0.2-0.3,0.4-0.4C68,8.3,68.1,8.2,68.3,8
		c0.1-0.1,0.1-0.1,0.2-0.2c0.1-0.1,0.1-0.1,0.2-0.2c0,0,0.1-0.1,0.1-0.1c0,0,0-0.1,0.1-0.1L69,7.3c0.1,0,0.1-0.1,0.2-0.2
		C69.2,7,69.2,7,69.3,6.9c0-0.1,0.1-0.1,0.2-0.2c0.1-0.1,0.1-0.1,0.2-0.2l0.3-0.3c0.2-0.2,0.4-0.4,0.6-0.6s0.4-0.4,0.6-0.5L71.3,5
		c0,0,0.1,0,0.1-0.1c0,0,0,0,0.1-0.1c0.1-0.1,0.2-0.1,0.3-0.2c0.1-0.1,0.2-0.2,0.2-0.2c0,0,0.1-0.1,0.1-0.1s0.1-0.1,0.1-0.1
		c0.1-0.1,0.2-0.1,0.2-0.2c0,0,0,0,0,0c0,0,0,0,0,0l0.1-0.1l0.1-0.1c0.1-0.1,0.2-0.1,0.2-0.2c0,0,0.1-0.1,0.1-0.1c0,0,0.1,0,0.1-0.1
		c0,0,0.1,0,0.1-0.1c0,0,0.1,0,0.1-0.1l0.2-0.1c0,0,0.1-0.1,0.2-0.1c0,0,0.1,0,0.1,0c0,0,0,0,0.1,0c0,0,0.1-0.1,0.1-0.1S74,3.1,74,3
		L74.3,2.9C74.2,2.9,74.2,2.9,74.3,2.9z"/>
	<path class="st0" d="M70.9,19.3c0.2,0,0.4,0.2,0.4,0.6c0,0.4,0,0.8-0.2,1.2c-0.2,0.4-0.4,0.9-0.7,1.3c-0.3,0.4-0.7,0.8-1.1,1.2
		c-0.4,0.3-1,0.6-1.5,0.8c-0.6,0.2-1.2,0.2-1.9,0.2c-0.7-0.1-1.3-0.3-1.8-0.6c-0.4-0.3-0.8-0.7-1.1-1.3c-0.3-0.6-0.5-1.4-0.4-2.5
		c0.1-0.7,0.2-1.4,0.5-2.1c0.2-0.6,0.6-1.3,1-2c0.5-0.7,1.1-1.4,1.9-2c0.4-0.3,0.8-0.5,1.2-0.7c0.3-0.2,0.7-0.3,1.1-0.4
		c0.4-0.1,0.8-0.1,1.1,0.1c0.6,0.3,1,0.7,1.1,1.2c0.1,0.5,0.1,1-0.1,1.4c-0.1,0.2-0.2,0.5-0.4,0.8s-0.4,0.6-0.8,1
		c-0.4,0.3-0.8,0.7-1.5,1c-0.6,0.3-1.4,0.7-2.4,0.9c-0.2,0.7-0.4,1.2-0.5,1.8c0,0.5,0,0.9,0.1,1.3c0.1,0.4,0.4,0.7,0.9,0.9
		c0.5,0.2,1,0.2,1.4,0c0.4-0.2,0.8-0.4,1.2-0.7s0.7-0.7,0.9-1.1c0.3-0.4,0.4-0.8,0.6-1.2c0-0.1,0.1-0.2,0.1-0.3
		c0.1-0.1,0.1-0.2,0.2-0.4s0.1-0.2,0.2-0.3C70.8,19.4,70.8,19.3,70.9,19.3z M63.3,20c0.2-0.6,0.4-1.2,0.7-1.8c0.3-0.5,0.6-1.1,1-1.6
		c0.4-0.6,0.9-1.1,1.5-1.6c0.8-0.6,1.4-1,1.9-1.2c0.5-0.1,0.9-0.2,1.1-0.1c-0.1-0.1-0.2-0.2-0.3-0.2c-0.2-0.1-0.5-0.2-0.9-0.1
		c-0.2,0-0.6,0.2-1.1,0.5s-0.9,0.7-1.5,1.2c-0.5,0.5-1,1.2-1.5,2S63.5,18.9,63.3,20z M68.8,16.4c0.1-0.2,0.2-0.3,0.2-0.5
		c0-0.2,0-0.3-0.1-0.4c-0.1-0.1-0.2-0.2-0.4-0.2c-0.2,0-0.4,0.1-0.7,0.2c-0.3,0.2-0.5,0.4-0.8,0.7c-0.3,0.3-0.5,0.5-0.7,0.8
		c-0.2,0.3-0.3,0.5-0.4,0.7s-0.1,0.3-0.1,0.3c0.2,0,0.4-0.1,0.7-0.2c0.3-0.1,0.6-0.2,0.8-0.4c0.3-0.2,0.5-0.4,0.8-0.6
		C68.5,16.7,68.7,16.6,68.8,16.4z"/>
	<path class="st0" d="M69.9,26.2c0-0.1,0-0.2,0-0.3c0,0,0-0.1,0-0.1c0-0.2,0.2-0.2,0.4-0.2c0.1,0,0.2,0,0.2,0c0.1,0,0.1,0,0.2,0.1
		c0.1,0,0.1,0,0.2,0c0.1,0,0.2,0,0.4-0.1c0.2-0.1,0.5-0.3,0.6-0.5c0.2-0.2,0.3-0.4,0.5-0.6c0.1-0.2,0.2-0.4,0.3-0.6
		c0.1-0.2,0.1-0.3,0.2-0.4c0.1-0.5,0.2-1,0-1.6c-0.1-0.6-0.3-1.1-0.5-1.6c-0.2-0.6-0.6-1.2-0.9-1.8c-0.3-0.4-0.4-0.9-0.5-1.4
		c0-0.5,0-1,0.2-1.5c0.1-0.5,0.4-1,0.7-1.5c0.3-0.5,0.6-1,1-1.4c0.7-0.8,1.3-1.3,1.9-1.5c0.6-0.2,1.1-0.3,1.5-0.3
		c0.5,0,1,0.2,1.4,0.5c0.4,0.2,0.6,0.5,0.8,0.8s0.2,0.6,0.2,0.9c0,0.3-0.1,0.5-0.3,0.8c-0.1,0.2-0.3,0.4-0.4,0.4
		c-0.3,0.1-0.6,0.1-0.7,0C77.2,14,77.1,14,77,13.9c-0.1-0.1-0.3-0.2-0.6-0.1c-0.3,0.1-0.6,0.2-1,0.5c-0.4,0.2-0.7,0.5-1.1,0.9
		s-0.6,0.8-0.8,1.2c-0.2,0.5-0.3,1-0.2,1.5c0.1,0.5,0.4,1.1,0.9,1.8c0.1,0.2,0.3,0.5,0.5,0.9c0.2,0.4,0.3,0.8,0.5,1.2
		c0.1,0.4,0.2,0.9,0.3,1.3c0.1,0.5,0,0.9-0.1,1.4c-0.3,1-0.7,1.7-1.3,2.2c-0.6,0.5-1.2,0.8-1.8,0.9c-0.7,0.1-1.1,0-1.5-0.2
		c-0.3-0.2-0.5-0.4-0.6-0.5C70,26.7,69.9,26.4,69.9,26.2z M72.8,14c0.3-0.5,0.7-1,1.1-1.3c0.4-0.3,0.8-0.6,1.1-0.9
		c0.4-0.2,0.8-0.4,1.2-0.6c-0.3,0-0.5,0.1-0.8,0.2c-0.2,0.1-0.5,0.2-0.8,0.4c-0.3,0.2-0.6,0.4-0.9,0.6c-0.3,0.3-0.6,0.6-0.9,1
		c-0.3,0.3-0.5,0.7-0.7,1.1c-0.2,0.4-0.3,0.9-0.4,1.3c-0.1,0.5-0.1,0.9,0,1.4c0,0.1,0,0.2,0.1,0.4c0,0.1,0.1,0.3,0.2,0.6
		c0.1,0.2,0.2,0.5,0.4,0.8c0-0.1-0.1-0.2-0.2-0.6c-0.1-0.3-0.2-0.7-0.3-1.2c-0.1-0.5,0-1,0-1.5C72.1,15.2,72.4,14.6,72.8,14z
		 M74.6,22.2c0.1,0.9,0.1,1.6-0.1,2.2c-0.2,0.6-0.5,1.1-0.7,1.5c-0.3,0.4-0.8,0.8-1.3,1.1c0.9-0.4,1.5-0.9,1.8-1.4
		c0.3-0.5,0.5-1.1,0.6-1.5C74.9,23.4,74.9,22.8,74.6,22.2z"/>
	<path class="st0" d="M85.7,6c-0.1,0.1-0.2,0.2-0.2,0.3c-0.1,0.1-0.1,0.2-0.2,0.4c-0.1,0.1-0.1,0.3-0.2,0.4c1-0.1,2.2-0.1,3.5,0
		c1.3,0.1,2.8,0.3,4.5,0.7c0.2,0,0.4,0.1,0.6,0.2c0.1,0.1,0.3,0.1,0.4,0.2c0.1,0.1,0.1,0.2,0.1,0.3c0,0.1-0.1,0.2-0.2,0.2
		c-0.1,0.1-0.2,0.1-0.4,0c-0.9-0.1-1.8-0.1-2.8-0.2c-0.9,0-1.9,0-3,0c-1.1,0.1-2.4,0.2-3.7,0.4c-0.8,1.7-1.6,3.4-2.2,5.1
		c-0.6,1.7-1.2,3.3-1.6,4.7s-0.8,2.6-1,3.6c-0.2,1-0.3,1.6-0.3,1.8c0,0.4-0.1,0.7-0.2,0.8c-0.1,0.1-0.3,0.2-0.4,0.1
		c-0.2,0-0.3-0.1-0.5-0.3c-0.2-0.2-0.3-0.3-0.5-0.5c-0.1-0.1-0.2-0.3-0.2-0.5c0-0.2,0-0.4,0-0.6c0-0.2,0.1-0.5,0.1-0.8
		c0.2-1,0.4-2.1,0.7-3.2c0.3-1.1,0.6-2.2,1-3.3c0.4-1.1,0.8-2.2,1.1-3.3s0.8-2.1,1.2-3c-0.1,0-0.3,0.1-0.4,0.1
		c-0.1,0-0.3,0.1-0.5,0.1c-0.4,0.1-0.7,0.2-1,0.2c-0.2,0-0.5,0-0.6-0.1s-0.2-0.2-0.2-0.5c0.2-0.3,0.4-0.7,0.7-1
		c0.3-0.3,0.6-0.5,1-0.8c0.4-0.2,1-0.4,1.6-0.4c0.1,0,0.1,0,0.2,0s0.1,0,0.1,0C82.5,6.6,82.8,6,83,5.6c0.2-0.5,0.4-0.8,0.5-1.1
		c0.2-0.4,0.4-0.7,0.7-0.9c0.3-0.2,0.6-0.4,0.9-0.4s0.6-0.1,0.9-0.1s0.5,0.1,0.7,0.1c0.2,0.1,0.4,0.3,0.5,0.5c0.1,0.2,0.1,0.4,0,0.6
		c-0.1,0.1-0.1,0.3-0.2,0.4c-0.1,0.1-0.1,0.1-0.2,0.1C86.3,5.2,86,5.6,85.7,6z M79.2,17.6c0.2-0.7,0.4-1.4,0.6-2
		c0.2-0.6,0.4-1.3,0.6-1.9s0.4-1.2,0.6-1.8c0.2-0.6,0.4-1.3,0.6-1.9c-0.7,1.5-1.2,3.1-1.8,4.6c-0.2,0.7-0.5,1.3-0.7,2
		c-0.2,0.7-0.4,1.4-0.6,2.1c-0.2,0.7-0.4,1.4-0.5,2.1c-0.1,0.7-0.2,1.3-0.3,1.9c0.1-0.5,0.2-1,0.4-1.5c0.1-0.5,0.2-1,0.4-1.6
		C78.8,18.9,79,18.3,79.2,17.6z M85.4,3.6c-0.3,0-0.6,0-0.8,0.2c-0.2,0.2-0.4,0.3-0.5,0.5C84,4.5,83.9,4.7,83.9,5
		c0.1-0.2,0.3-0.4,0.5-0.6c0.2-0.2,0.3-0.3,0.5-0.4C85,3.8,85.2,3.7,85.4,3.6z"/>
	<path class="st0" d="M108.5,1.2c0.9-0.2,1.7-0.2,2.4,0c0.3,0.1,0.5,0.2,0.8,0.4c0.2,0.2,0.4,0.4,0.6,0.7c0.2,0.3,0.2,0.7,0.3,1.1
		c0,0.5-0.1,1-0.2,1.7c-0.4,1.7-1.3,3-2.6,3.9c-0.6,0.4-1.1,0.6-1.6,0.6c-0.5,0-0.8-0.2-0.9-0.7c-0.1-0.3-0.1-0.5,0-0.8
		c0.1-0.3,0.2-0.5,0.4-0.7c0.2-0.2,0.4-0.5,0.7-0.7c0.6-0.5,1.2-1.1,1.6-1.7c0.4-0.6,0.6-1.3,0.6-2c0-0.6-0.3-0.9-0.9-0.8
		c-0.5,0.1-1.2,0.4-2,0.9c-0.8,0.5-1.7,1.2-2.8,2.1c-1,0.9-2,1.9-3,3c-1,1.1-1.9,2.2-2.8,3.4c-0.9,1.2-1.6,2.3-2.1,3.3
		c-1.4,2.7-2.3,5.1-2.8,7.1c-0.4,2-0.5,3.6-0.2,5c0.3,1.3,1,2.3,1.9,3c0.9,0.7,2.1,1,3.4,1.1c1.8,0.1,3.4-0.2,4.9-1
		c1.5-0.8,2.8-1.8,3.9-3.2c0.1-0.1,0.2-0.3,0.3-0.4c0.1-0.1,0.2-0.3,0.3-0.4s0.2-0.3,0.4-0.5c0.2-0.2,0.4-0.4,0.5-0.6s0.3-0.1,0.4,0
		c0.1,0.2,0.2,0.5,0.1,0.8c-0.1,0.3-0.2,0.5-0.3,0.8c-0.1,0.3-0.3,0.6-0.6,0.9c-0.5,0.6-1,1.2-1.7,1.9c-0.7,0.7-1.4,1.3-2.3,1.8
		c-0.9,0.5-1.9,0.9-2.9,1.2c-1.1,0.3-2.3,0.4-3.6,0.2c-1.8-0.2-3.2-0.6-4.2-1.2c-1.1-0.6-1.9-1.4-2.4-2.3c-0.6-0.9-0.9-1.9-1-3
		c-0.1-1.1-0.1-2.2,0-3.3c0.3-2.6,1.3-5.5,2.9-8.6c0.7-1.4,1.5-2.7,2.3-3.8c0.8-1.1,1.6-2.1,2.4-3c0.8-0.9,1.6-1.6,2.4-2.3
		c0.8-0.6,1.6-1.2,2.3-1.7C105.3,2.5,106.9,1.7,108.5,1.2z M94.4,16.7c0.8-1.7,1.7-3.4,2.8-4.9c1.1-1.5,2.2-2.8,3.2-4
		c1.2-1.3,2.4-2.5,3.6-3.6c-1.4,1-2.7,2.2-4,3.5c-0.6,0.6-1.1,1.2-1.7,1.9c-0.6,0.7-1.2,1.4-1.8,2.2s-1.1,1.7-1.7,2.6
		s-1,1.9-1.4,2.9c-0.7,2-1.2,3.8-1.4,5.6c-0.1,0.8-0.1,1.5-0.1,2.3c0,0.8,0.1,1.5,0.3,2.2c0.2,0.7,0.5,1.4,0.9,2
		c0.4,0.6,1,1.1,1.7,1.5c-1-0.8-1.6-1.9-2.1-3.2c-0.2-0.6-0.3-1.2-0.4-1.9c-0.1-0.7-0.1-1.6,0-2.5c0.1-0.9,0.3-1.9,0.6-3
		S93.8,18,94.4,16.7z"/>
	<path class="st0" d="M115.4,11.8c1,0.1,1.7,0.3,2.2,0.8s0.8,1.1,1,1.7s0.2,1.4,0.1,2.1c-0.1,0.7-0.2,1.4-0.4,1.9
		c-0.4,1.3-0.9,2.3-1.5,3.2c-0.6,0.8-1.2,1.5-1.8,1.9c-0.6,0.5-1.2,0.8-1.8,0.9s-1,0.2-1.4,0.2c-0.6,0-1.2-0.2-1.7-0.5
		c-0.5-0.3-0.8-0.8-1-1.4c-0.2-0.7-0.2-1.4-0.2-2.2s0.2-1.6,0.4-2.3c0.2-0.8,0.6-1.5,1-2.1c0.4-0.7,0.9-1.2,1.3-1.6
		c0.2-0.8,0.6-1.4,1.3-1.9C113.6,12,114.4,11.7,115.4,11.8z M110.7,16.5c-0.3,0.6-0.6,1.2-0.8,1.8s-0.3,1.3-0.4,1.8
		c-0.1,0.6-0.1,1.1,0,1.6c0,0.5,0.1,0.8,0.2,1c-0.1-1.2,0-2.4,0.2-3.6c0.1-0.5,0.2-1,0.4-1.4c0.2-0.5,0.4-1,0.8-1.4s0.7-0.8,1.1-1.2
		c0.4-0.4,1-0.7,1.6-0.9c-0.3,0-0.7,0.1-1,0.3c-0.3,0.2-0.6,0.4-1,0.7C111.4,15.5,111.1,15.9,110.7,16.5z M116.7,17.6
		c0.3-0.9,0.4-1.7,0.3-2.2c0-0.5-0.1-1-0.3-1.2c-0.2-0.3-0.5-0.6-0.8-0.7c-0.8-0.2-1.3-0.1-1.7,0.3c0.4,0.1,0.8,0.2,1.1,0.4
		s0.5,0.4,0.6,0.6c0.1,0.2,0.2,0.4,0.2,0.6c0,0.2-0.1,0.3-0.2,0.4c-0.2,0.1-0.4,0.1-0.6,0c-0.2-0.1-0.3-0.2-0.5-0.3
		c-0.2-0.1-0.4,0-0.7,0.1c-0.3,0.1-0.7,0.4-1.1,1c0,0.1,0.1,0.2,0.2,0.3c0.1,0.1,0.1,0.3,0.2,0.4c0.1,0.2,0.1,0.3,0.1,0.4
		c0,0.1,0,0.2-0.1,0.3c-0.2,0.2-0.4,0.2-0.6,0.1c-0.2-0.1-0.3-0.2-0.4-0.3c-0.3,0.7-0.6,1.4-0.8,2c-0.2,0.6-0.2,1.2-0.3,1.7
		c0,0.5,0,0.9,0.1,1.2c0.1,0.3,0.2,0.5,0.4,0.5c0.4,0.1,0.9,0,1.4-0.3c0.5-0.3,1-0.7,1.5-1.3c0.5-0.5,0.9-1.2,1.3-1.9
		C116.2,19,116.5,18.3,116.7,17.6z"/>
	<path class="st0" d="M127.9,16.9c0,0.4,0,0.8-0.2,1.1s-0.3,0.7-0.5,1.2c-0.5,1-0.8,1.8-0.9,2.3c-0.1,0.5-0.1,0.8,0.1,1
		c0,0,0,0,0.1,0s0.1,0,0.1,0c0,0,0.1,0,0.2,0c0.1,0,0.2,0.1,0.3,0.1c0.1,0.1,0.2,0.1,0.2,0.3c0,0.1,0,0.2-0.1,0.4
		c-0.4,0.3-0.8,0.5-1.3,0.4s-0.8-0.3-1.1-0.6c-0.2-0.3-0.4-0.6-0.4-1s-0.1-0.7-0.1-0.9c-0.4,0.4-0.8,0.8-1.2,1.2
		c-0.4,0.4-0.8,0.7-1.2,1s-0.7,0.6-1.1,0.7s-0.7,0.3-0.9,0.3c-0.6,0-1.1-0.2-1.4-0.7c-0.3-0.5-0.5-1-0.4-1.7c0-0.7,0.2-1.3,0.4-2.1
		c0.3-0.7,0.6-1.5,1-2.2c0.4-0.7,0.9-1.4,1.4-2c0.5-0.6,1-1.2,1.5-1.7c0.5-0.5,1-0.8,1.5-1.1c0.5-0.2,0.9-0.3,1.3-0.3
		c0.6,0.1,1.1,0.3,1.4,0.6s0.6,0.6,0.7,1c0.1,0.3,0.2,0.6,0.1,0.9c0,0.3-0.2,0.4-0.3,0.4c-0.2,0-0.3,0-0.3,0
		c-0.1-0.1-0.1-0.1-0.1-0.2c0-0.1,0-0.1-0.1-0.2c0-0.1-0.1-0.1-0.1-0.2c-0.1-0.1-0.2-0.1-0.3-0.1s-0.3,0.1-0.5,0.2
		c-0.2,0.1-0.5,0.3-0.7,0.5c-0.3,0.3-0.6,0.6-1,1.1c-0.4,0.4-0.8,1-1.2,1.7c-0.4,0.7-0.8,1.3-1.2,2s-0.6,1.2-0.8,1.7
		c-0.2,0.5-0.2,0.7,0,0.7c0.1,0,0.3-0.1,0.6-0.2s0.6-0.4,0.9-0.8c0.3-0.3,0.7-0.7,1.1-1.1c0.4-0.4,0.8-0.8,1.2-1.3
		c0.4-0.4,0.7-0.9,1-1.3c0.3-0.4,0.5-0.8,0.7-1.1c0-0.1,0-0.2,0-0.3c0-0.1,0-0.2,0-0.3c0,0,0-0.1,0-0.2c0-0.1,0.1-0.2,0.2-0.3
		c0.1-0.1,0.3-0.1,0.5-0.1c0.2,0,0.3,0,0.5,0.1c0.2,0.1,0.3,0.2,0.4,0.4C127.8,16.5,127.9,16.7,127.9,16.9z M118.8,22.9
		c0-0.4,0.1-0.9,0.3-1.5c0.1-0.5,0.4-1.1,0.7-1.7c0.3-0.7,0.7-1.5,1.3-2.4s1.1-1.6,1.6-2.1s1-0.8,1.4-1.1c0.5-0.3,0.9-0.4,1.3-0.5
		c0-0.1-0.2-0.1-0.5-0.2c-0.3,0-0.6,0.1-1,0.3c-0.4,0.2-0.9,0.6-1.5,1.1c-0.6,0.5-1.2,1.3-1.8,2.3c-0.6,1-1.1,1.9-1.3,2.6
		s-0.4,1.3-0.5,1.8C118.7,22,118.7,22.5,118.8,22.9z"/>
	<path class="st0" d="M127.3,26.2c0-0.1,0-0.2,0-0.3c0,0,0-0.1,0-0.1c0-0.2,0.2-0.2,0.4-0.2c0.1,0,0.2,0,0.2,0c0.1,0,0.1,0,0.2,0.1
		c0.1,0,0.1,0,0.2,0s0.2,0,0.4-0.1c0.2-0.1,0.5-0.3,0.6-0.5c0.2-0.2,0.3-0.4,0.5-0.6c0.1-0.2,0.2-0.4,0.3-0.6s0.1-0.3,0.2-0.4
		c0.1-0.5,0.2-1,0-1.6c-0.1-0.6-0.3-1.1-0.5-1.6c-0.2-0.6-0.6-1.2-0.9-1.8c-0.3-0.4-0.4-0.9-0.5-1.4c0-0.5,0-1,0.2-1.5
		s0.4-1,0.7-1.5c0.3-0.5,0.6-1,1-1.4c0.7-0.8,1.3-1.3,1.9-1.5c0.6-0.2,1.1-0.3,1.5-0.3c0.5,0,1,0.2,1.4,0.5c0.4,0.2,0.6,0.5,0.8,0.8
		s0.2,0.6,0.2,0.9c0,0.3-0.1,0.5-0.3,0.8c-0.1,0.2-0.3,0.4-0.4,0.4c-0.3,0.1-0.6,0.1-0.7,0c-0.1-0.1-0.2-0.1-0.2-0.2
		c-0.1-0.1-0.3-0.2-0.6-0.1c-0.3,0.1-0.6,0.2-1,0.5c-0.4,0.2-0.7,0.5-1.1,0.9s-0.6,0.8-0.8,1.2c-0.2,0.5-0.3,1-0.2,1.5
		c0.1,0.5,0.4,1.1,0.9,1.8c0.1,0.2,0.3,0.5,0.5,0.9c0.2,0.4,0.3,0.8,0.5,1.2c0.1,0.4,0.2,0.9,0.3,1.3c0.1,0.5,0,0.9-0.1,1.4
		c-0.3,1-0.7,1.7-1.3,2.2c-0.6,0.5-1.2,0.8-1.8,0.9c-0.7,0.1-1.1,0-1.5-0.2c-0.3-0.2-0.5-0.4-0.6-0.5
		C127.4,26.7,127.3,26.4,127.3,26.2z M130.1,14c0.3-0.5,0.7-1,1.1-1.3c0.4-0.3,0.8-0.6,1.1-0.9c0.4-0.2,0.8-0.4,1.2-0.6
		c-0.3,0-0.5,0.1-0.8,0.2c-0.2,0.1-0.5,0.2-0.8,0.4s-0.6,0.4-0.9,0.6c-0.3,0.3-0.6,0.6-0.9,1c-0.3,0.3-0.5,0.7-0.7,1.1
		c-0.2,0.4-0.3,0.9-0.4,1.3c-0.1,0.5-0.1,0.9,0,1.4c0,0.1,0,0.2,0.1,0.4c0,0.1,0.1,0.3,0.2,0.6c0.1,0.2,0.2,0.5,0.4,0.8
		c0-0.1-0.1-0.2-0.2-0.6c-0.1-0.3-0.2-0.7-0.3-1.2s0-1,0-1.5C129.5,15.2,129.7,14.6,130.1,14z M132,22.2c0.1,0.9,0.1,1.6-0.1,2.2
		s-0.4,1.1-0.7,1.5c-0.3,0.4-0.8,0.8-1.3,1.1c0.9-0.4,1.5-0.9,1.8-1.4c0.3-0.5,0.5-1.1,0.6-1.5C132.3,23.4,132.2,22.8,132,22.2z"/>
	<path class="st0" d="M143.1,6c-0.1,0.1-0.2,0.2-0.2,0.3c-0.1,0.1-0.1,0.2-0.2,0.4c-0.1,0.1-0.1,0.3-0.2,0.4c1-0.1,2.2-0.1,3.5,0
		c1.3,0.1,2.8,0.3,4.5,0.7c0.2,0,0.4,0.1,0.6,0.2c0.1,0.1,0.3,0.1,0.4,0.2c0.1,0.1,0.1,0.2,0.1,0.3c0,0.1-0.1,0.2-0.2,0.2
		c-0.1,0.1-0.2,0.1-0.4,0C150,8.7,149,8.7,148,8.7c-0.9,0-1.9,0-3,0c-1.1,0.1-2.4,0.2-3.7,0.4c-0.8,1.7-1.6,3.4-2.2,5.1
		c-0.6,1.7-1.2,3.3-1.6,4.7s-0.8,2.6-1,3.6c-0.2,1-0.3,1.6-0.3,1.8c0,0.4-0.1,0.7-0.2,0.8c-0.1,0.1-0.3,0.2-0.4,0.1
		c-0.2,0-0.3-0.1-0.5-0.3c-0.2-0.2-0.3-0.3-0.5-0.5c-0.1-0.1-0.2-0.3-0.2-0.5c0-0.2,0-0.4,0-0.6c0-0.2,0.1-0.5,0.1-0.8
		c0.2-1,0.4-2.1,0.7-3.2s0.6-2.2,1-3.3c0.4-1.1,0.8-2.2,1.1-3.3s0.8-2.1,1.2-3c-0.1,0-0.3,0.1-0.4,0.1s-0.3,0.1-0.5,0.1
		c-0.4,0.1-0.7,0.2-1,0.2c-0.2,0-0.5,0-0.6-0.1s-0.2-0.2-0.2-0.5c0.2-0.3,0.4-0.7,0.7-1c0.3-0.3,0.6-0.5,1-0.8
		c0.4-0.2,1-0.4,1.6-0.4c0.1,0,0.1,0,0.2,0s0.1,0,0.1,0c0.3-0.7,0.6-1.3,0.8-1.8c0.2-0.5,0.4-0.8,0.5-1.1c0.2-0.4,0.4-0.7,0.7-0.9
		c0.3-0.2,0.6-0.4,0.9-0.4s0.6-0.1,0.9-0.1s0.5,0.1,0.7,0.1c0.2,0.1,0.4,0.3,0.5,0.5c0.1,0.2,0.1,0.4,0,0.6
		c-0.1,0.1-0.1,0.3-0.2,0.4c-0.1,0.1-0.1,0.1-0.2,0.1C143.7,5.2,143.3,5.6,143.1,6z M136.5,17.6c0.2-0.7,0.4-1.4,0.6-2
		c0.2-0.6,0.4-1.3,0.6-1.9s0.4-1.2,0.6-1.8c0.2-0.6,0.4-1.3,0.6-1.9c-0.7,1.5-1.2,3.1-1.8,4.6c-0.2,0.7-0.5,1.3-0.7,2
		c-0.2,0.7-0.4,1.4-0.6,2.1c-0.2,0.7-0.4,1.4-0.5,2.1s-0.2,1.3-0.3,1.9c0.1-0.5,0.2-1,0.4-1.5c0.1-0.5,0.2-1,0.4-1.6
		C136.1,18.9,136.3,18.3,136.5,17.6z M142.8,3.6c-0.3,0-0.6,0-0.8,0.2c-0.2,0.2-0.4,0.3-0.5,0.5c-0.1,0.2-0.2,0.5-0.3,0.7
		c0.1-0.2,0.3-0.4,0.5-0.6c0.2-0.2,0.3-0.3,0.5-0.4C142.4,3.8,142.6,3.7,142.8,3.6z"/>
	<path class="st0" d="M1.1,47.5c0,0-0.1-0.1-0.1-0.2c0-0.1-0.1-0.1-0.1-0.2l-0.2-0.3c-0.1-0.2-0.2-0.4-0.3-0.6
		c-0.1-0.2-0.1-0.3-0.2-0.4c-0.2-1-0.2-1.9,0-2.8c0.2-0.9,0.6-1.7,1.1-2.5s1.2-1.5,1.9-2.1c0.8-0.6,1.6-1.2,2.5-1.8
		c0.9-0.5,1.8-1,2.7-1.4c0.9-0.4,1.8-0.8,2.7-1.1c0.1,0,0.1-0.1,0.2-0.1s0.1,0,0.2-0.1c0.4-0.2,0.9-0.3,1.4-0.5s1.1-0.4,1.6-0.6
		c0.1-0.1,0.1-0.2,0.2-0.3c0.2-0.3,0.4-0.5,0.7-0.7c0.2-0.2,0.5-0.3,0.8-0.5c0.3-0.1,0.7-0.2,1.1-0.2c0.2,0,0.3,0,0.5,0.1
		c0.1,0,0.2,0.1,0.3,0.2c0.1,0.1,0.2,0.2,0.2,0.3c1.1-0.3,2.1-0.5,3.1-0.6c1-0.1,2-0.2,2.8-0.1c0.8,0.1,1.5,0.3,2,0.7
		c0.5,0.4,0.8,0.9,0.9,1.7c0,0.2,0,0.4,0,0.6c0,0.2-0.1,0.3-0.1,0.5c-0.1,0.2-0.1,0.3-0.3,0.5s-0.3,0.3-0.5,0.3
		c-0.2,0-0.4-0.1-0.6-0.3c-0.1-0.1-0.3-0.3-0.6-0.5c-0.3-0.2-0.8-0.4-1.5-0.5c-0.7-0.1-1.6-0.2-2.8-0.1c-1.1,0-2.6,0.3-4.3,0.7
		c-0.5,0.7-1,1.4-1.5,2.3c-0.5,0.9-1,1.8-1.5,2.7c-0.5,0.9-1,1.8-1.4,2.6c-0.5,0.9-0.8,1.6-1.2,2.3c0.4-0.1,0.8-0.3,1.4-0.4
		c0.5-0.1,1.1-0.2,1.6-0.2s1.1,0,1.5,0.1c0.5,0.1,0.9,0.4,1.2,0.7c0.2,0.2,0.3,0.5,0.4,0.7c0.1,0.2,0.1,0.4,0.1,0.7
		c0,0.3-0.1,0.5-0.2,0.8c0,0-0.1,0.1-0.1,0.1s-0.1,0.1-0.1,0.1c0,0-0.1,0.1-0.1,0.1c-0.1,0-0.2,0.1-0.4,0.1c-0.1,0-0.2,0-0.2-0.1
		c-0.1-0.1-0.1-0.1-0.1-0.3c0-0.1-0.1-0.2-0.3-0.4c-0.2-0.2-0.5-0.4-1-0.5c-0.5-0.1-1.1-0.1-1.9,0c-0.8,0.1-1.8,0.4-3,1
		c-1,2-1.8,3.8-2.4,5.3c-0.6,1.5-1.1,2.7-1.3,3.8c-0.3,1-0.5,1.9-0.6,2.6C5.1,59.1,5,59.6,5,60.1c0,0.4,0,0.8,0,1s0.1,0.4,0.2,0.5
		s0.1,0.2,0.2,0.3c0.1,0.1,0.1,0.1,0,0.2c-0.1,0.3-0.2,0.5-0.5,0.6c-0.1,0-0.3,0.1-0.4,0.1c-0.6,0-1-0.3-1.2-0.8
		c-0.2-0.5-0.4-1.1-0.4-1.7c0-0.7,0-1.3,0.1-2c0.1-0.7,0.2-1.3,0.3-1.7c0.2-1.2,0.2-2.2,0-3.3c-0.2-1-0.4-1.9-0.7-2.7
		C2.3,49.6,2,49,1.7,48.5C1.4,48,1.2,47.7,1.1,47.5z M2.2,46c0.1,0.2,0.2,0.4,0.2,0.6c0.1,0.2,0.1,0.3,0.2,0.5
		c0.1,0.2,0.2,0.3,0.2,0.4c0.6,1,0.9,1.9,1.2,2.7c0.2,0.7,0.4,1.4,0.4,1.9c0.5-1.4,1.1-2.9,1.7-4.4s1.4-3,2.1-4.4s1.5-2.8,2.2-4.1
		c0.7-1.3,1.4-2.4,2-3.4C10.6,36.3,9,37,7.7,37.7c-1.3,0.7-2.4,1.4-3.2,2c-0.8,0.6-1.4,1.3-1.8,1.9S2.1,42.8,2,43.3
		c-0.1,0.5-0.1,1-0.1,1.5C1.9,45.2,2.1,45.6,2.2,46z M1.9,40.8c0-0.1,0.1-0.1,0.1-0.2c0-0.1,0.1-0.1,0.1-0.1c0,0,0-0.1,0.1-0.1
		c0,0,0,0,0.1,0c0,0,0-0.1,0.1-0.1c0,0,0,0,0.1-0.1l0.5-0.5c0.4-0.3,0.7-0.6,1-0.9c0.3-0.3,0.7-0.5,1-0.8s0.7-0.4,1-0.6
		c0.3-0.2,0.7-0.4,1-0.6c0.3-0.2,0.6-0.3,1-0.5c0,0,0.1,0,0.1,0c0,0,0.1,0,0.1,0c0.1-0.1,0.2-0.1,0.2-0.1c0,0,0.1,0,0.1-0.1
		c0,0,0.1,0,0.1-0.1c0.1,0,0.2-0.1,0.2-0.1c0.1-0.1,0.3-0.2,0.4-0.2c0.1-0.1,0.3-0.1,0.4-0.2c0.5-0.2,1-0.5,1.4-0.6s0.8-0.3,1.1-0.5
		c0.1-0.1,0.3-0.1,0.4-0.2s0.2-0.1,0.3-0.1s0.1-0.1,0.2-0.1c0,0,0,0,0.1,0c-0.1,0-0.2,0.1-0.2,0.1c-0.1,0-0.2,0-0.3,0.1
		c0,0-0.1,0-0.2,0.1c0,0,0,0,0,0c0,0,0,0-0.1,0c0,0,0,0,0,0c0,0,0,0-0.1,0c-0.2,0.1-0.3,0.1-0.5,0.2c-0.2,0.1-0.3,0.1-0.5,0.2
		c-0.7,0.2-1.4,0.5-2.1,0.8l-0.3,0.1c0,0-0.1,0-0.1,0c0,0-0.1,0-0.1,0.1c-0.1,0-0.2,0.1-0.2,0.1c-0.1,0-0.2,0.1-0.2,0.1
		c-0.1,0-0.2,0.1-0.3,0.1c-0.1,0.1-0.1,0.1-0.2,0.1c-0.1,0-0.2,0.1-0.2,0.1c0,0-0.1,0-0.1,0.1s-0.1,0-0.1,0.1
		C6.6,36.6,6.3,36.8,6,37c-0.3,0.2-0.6,0.4-0.8,0.6c-0.3,0.2-0.5,0.4-0.8,0.6c-0.2,0.2-0.5,0.4-0.7,0.6c-0.2,0.2-0.4,0.4-0.6,0.5
		c-0.2,0.2-0.3,0.3-0.5,0.5C2.4,40,2.2,40.3,2,40.5C2,40.5,2,40.6,2,40.6S1.9,40.7,1.9,40.8C1.9,40.7,1.9,40.8,1.9,40.8L1.9,40.8z
		 M12.6,37.3c0-0.1,0.1-0.2,0.1-0.3c0-0.1,0.1-0.1,0.1-0.2c0-0.1,0.1-0.1,0.1-0.2c-0.5,0.7-0.9,1.5-1.3,2.2
		c-0.4,0.7-0.8,1.4-1.3,2.1c-0.4,0.7-0.8,1.4-1.1,2.1c-0.4,0.7-0.7,1.3-1,2c-0.7,1.3-1.2,2.5-1.7,3.7C5.9,50,5.5,51,5.1,52
		c-0.2,0.5-0.3,1-0.4,1.4c-0.1,0.4-0.3,0.9-0.4,1.3c-0.1,0.2-0.1,0.4-0.2,0.6c0,0.2-0.1,0.4-0.1,0.5c0,0.1,0,0.2,0,0.3
		c0,0.1,0,0.2,0,0.3c0,0,0,0.1,0,0.1c0,0,0,0.1,0,0.1c0,0.1,0,0.2,0,0.2c-0.1,0.6-0.1,1-0.1,1.3c0,0.1,0,0.1,0,0.2
		c0,0.1,0,0.1,0,0.1v0.1c0-0.3,0-0.6,0.1-0.9C4,57.5,4,57.4,4,57.3c0-0.1,0.1-0.3,0.1-0.5c0-0.2,0.1-0.3,0.1-0.5
		c0-0.1,0.1-0.3,0.1-0.5L4.6,55c0.2-0.6,0.4-1.2,0.6-1.9c0.2-0.6,0.5-1.2,0.7-1.9c0.5-1.3,1-2.5,1.6-3.6c0.3-0.6,0.5-1.2,0.8-1.7
		c0.3-0.6,0.5-1.1,0.8-1.7c0.5-1.1,1-2.1,1.5-3c0.5-0.9,0.8-1.7,1.2-2.4c0.2-0.3,0.3-0.6,0.4-0.9C12.3,37.7,12.5,37.5,12.6,37.3z
		 M26.5,33.7c0-0.3,0-0.5,0-0.7c0-0.1-0.1-0.3-0.2-0.4c0-0.1-0.1-0.1-0.1-0.2c0-0.1-0.1-0.1-0.1-0.2c-0.2-0.2-0.4-0.4-0.7-0.5
		c-0.1,0-0.2-0.1-0.4-0.1c-0.1,0-0.2-0.1-0.4-0.1c-0.2,0-0.4-0.1-0.6-0.1c-0.2,0-0.4,0-0.5,0c-0.1,0-0.2,0-0.2,0c-0.1,0-0.1,0-0.2,0
		H23h0c0.1,0,0.2,0,0.3,0c0.1,0,0.2,0,0.3,0l0.5,0.1c0.2,0,0.3,0.1,0.5,0.1c0.1,0,0.3,0.1,0.4,0.1c0.2,0.1,0.4,0.2,0.7,0.3
		c0.1,0.1,0.2,0.1,0.3,0.2c0.1,0.1,0.2,0.1,0.2,0.2c0,0,0.1,0.1,0.1,0.1c0,0,0.1,0.1,0.1,0.1c0,0,0,0.1,0,0.1c0,0,0,0.1,0.1,0.1
		c0,0.1,0.1,0.1,0.1,0.2c0,0.1,0,0.1,0,0.2C26.5,33.6,26.5,33.6,26.5,33.7L26.5,33.7z"/>
	<path class="st0" d="M23.3,41.8c1,0.1,1.7,0.3,2.2,0.8s0.8,1.1,1,1.7c0.2,0.7,0.2,1.4,0.1,2.1c-0.1,0.7-0.2,1.4-0.4,1.9
		c-0.4,1.3-0.9,2.3-1.5,3.2c-0.6,0.8-1.2,1.5-1.8,1.9c-0.6,0.5-1.2,0.8-1.8,0.9c-0.6,0.2-1,0.2-1.4,0.2c-0.6,0-1.2-0.2-1.7-0.5
		c-0.5-0.3-0.8-0.8-1-1.4c-0.2-0.7-0.2-1.4-0.2-2.2s0.2-1.6,0.4-2.3s0.6-1.5,1-2.1c0.4-0.7,0.9-1.2,1.3-1.6c0.2-0.8,0.6-1.4,1.3-1.9
		C21.5,42,22.3,41.7,23.3,41.8z M18.7,46.5c-0.3,0.6-0.6,1.2-0.8,1.8c-0.2,0.6-0.3,1.3-0.4,1.8c-0.1,0.6-0.1,1.1,0,1.6
		c0,0.5,0.1,0.8,0.2,1c-0.1-1.2,0-2.4,0.2-3.6c0.1-0.5,0.2-1,0.4-1.4s0.4-1,0.8-1.4s0.7-0.8,1.1-1.2c0.4-0.4,1-0.7,1.6-0.9
		c-0.3,0-0.7,0.1-1,0.3c-0.3,0.2-0.6,0.4-1,0.7C19.4,45.5,19,45.9,18.7,46.5z M24.7,47.6c0.3-0.9,0.4-1.7,0.3-2.2
		c0-0.5-0.1-1-0.3-1.2c-0.2-0.3-0.5-0.6-0.8-0.7c-0.8-0.2-1.3-0.1-1.7,0.3c0.4,0.1,0.8,0.2,1.1,0.4c0.3,0.2,0.5,0.4,0.6,0.6
		c0.1,0.2,0.2,0.4,0.2,0.6c0,0.2-0.1,0.3-0.2,0.4c-0.2,0.1-0.4,0.1-0.6,0c-0.2-0.1-0.3-0.2-0.5-0.3c-0.2-0.1-0.4,0-0.7,0.1
		c-0.3,0.1-0.7,0.4-1.1,1c0,0.1,0.1,0.2,0.2,0.3c0.1,0.1,0.1,0.3,0.2,0.4c0.1,0.2,0.1,0.3,0.1,0.4c0,0.1,0,0.2-0.1,0.3
		c-0.2,0.2-0.4,0.2-0.6,0.1c-0.2-0.1-0.3-0.2-0.4-0.3c-0.3,0.7-0.6,1.4-0.8,2c-0.2,0.6-0.2,1.2-0.3,1.7c0,0.5,0,0.9,0.1,1.2
		c0.1,0.3,0.2,0.5,0.4,0.5c0.4,0.1,0.9,0,1.4-0.3c0.5-0.3,1-0.7,1.5-1.3c0.5-0.5,0.9-1.2,1.3-1.9C24.2,49,24.5,48.3,24.7,47.6z"/>
	<path class="st0" d="M32.7,41.8c1,0.1,1.7,0.3,2.2,0.8s0.8,1.1,1,1.7c0.2,0.7,0.2,1.4,0.1,2.1c-0.1,0.7-0.2,1.4-0.4,1.9
		c-0.4,1.3-0.9,2.3-1.5,3.2c-0.6,0.8-1.2,1.5-1.8,1.9c-0.6,0.5-1.2,0.8-1.8,0.9c-0.6,0.2-1,0.2-1.4,0.2c-0.6,0-1.2-0.2-1.7-0.5
		c-0.5-0.3-0.8-0.8-1-1.4c-0.2-0.7-0.2-1.4-0.2-2.2s0.2-1.6,0.4-2.3s0.6-1.5,1-2.1c0.4-0.7,0.9-1.2,1.3-1.6c0.2-0.8,0.6-1.4,1.3-1.9
		C30.9,42,31.7,41.7,32.7,41.8z M28.1,46.5c-0.3,0.6-0.6,1.2-0.8,1.8c-0.2,0.6-0.3,1.3-0.4,1.8c-0.1,0.6-0.1,1.1,0,1.6
		c0,0.5,0.1,0.8,0.2,1c-0.1-1.2,0-2.4,0.2-3.6c0.1-0.5,0.2-1,0.4-1.4s0.4-1,0.8-1.4s0.7-0.8,1.1-1.2c0.4-0.4,1-0.7,1.6-0.9
		c-0.3,0-0.7,0.1-1,0.3c-0.3,0.2-0.6,0.4-1,0.7C28.8,45.5,28.4,45.9,28.1,46.5z M34.1,47.6c0.3-0.9,0.4-1.7,0.3-2.2
		c0-0.5-0.1-1-0.3-1.2c-0.2-0.3-0.5-0.6-0.8-0.7c-0.8-0.2-1.3-0.1-1.7,0.3c0.4,0.1,0.8,0.2,1.1,0.4c0.3,0.2,0.5,0.4,0.6,0.6
		c0.1,0.2,0.2,0.4,0.2,0.6c0,0.2-0.1,0.3-0.2,0.4c-0.2,0.1-0.4,0.1-0.6,0c-0.2-0.1-0.3-0.2-0.5-0.3c-0.2-0.1-0.4,0-0.7,0.1
		c-0.3,0.1-0.7,0.4-1.1,1c0,0.1,0.1,0.2,0.2,0.3c0.1,0.1,0.1,0.3,0.2,0.4c0.1,0.2,0.1,0.3,0.1,0.4c0,0.1,0,0.2-0.1,0.3
		c-0.2,0.2-0.4,0.2-0.6,0.1c-0.2-0.1-0.3-0.2-0.4-0.3c-0.3,0.7-0.6,1.4-0.8,2c-0.2,0.6-0.2,1.2-0.3,1.7c0,0.5,0,0.9,0.1,1.2
		c0.1,0.3,0.2,0.5,0.4,0.5c0.4,0.1,0.9,0,1.4-0.3c0.5-0.3,1-0.7,1.5-1.3c0.5-0.5,0.9-1.2,1.3-1.9C33.6,49,33.9,48.3,34.1,47.6z"/>
	<path class="st0" d="M51,33.2c0.3,0.1,0.4,0.3,0.5,0.5c0.1,0.2,0.1,0.4,0,0.6c-0.1,0.1-0.1,0.3-0.2,0.4c-0.1,0.1-0.1,0.1-0.2,0.1
		c-0.3,0.3-0.5,0.5-0.7,0.8c-0.2,0.3-0.4,0.5-0.5,0.8c-0.2,0.3-0.3,0.5-0.5,0.8c-0.5,0.9-1,1.9-1.5,3.1s-1,2.3-1.5,3.5
		c-0.5,1.2-1,2.5-1.4,3.7s-0.9,2.4-1.3,3.6c-0.2,0.6-0.4,1.2-0.5,1.7c-0.1,0.6-0.2,1.1-0.3,1.6c-0.1,0.5-0.1,0.9-0.1,1.2
		c0,0.3,0.1,0.5,0.2,0.6c0.2,0.1,0.3,0.1,0.4,0.1c0.1,0,0.2,0,0.3-0.1c0.1-0.1,0.2-0.1,0.3-0.2c0.1-0.1,0.2-0.1,0.3-0.1
		c0.2,0,0.3,0.1,0.4,0.2c0,0.1,0,0.2,0,0.2c-0.1,0.2-0.2,0.4-0.4,0.5c-0.2,0.1-0.3,0.2-0.5,0.3c-0.2,0.1-0.4,0.1-0.6,0.1
		c-0.3,0-0.5,0-0.7-0.1c-0.2,0-0.3-0.1-0.5-0.2c-0.3-0.2-0.6-0.4-0.8-0.7c-0.2-0.3-0.3-0.6-0.4-0.9c-0.1-0.3-0.1-0.7-0.1-1
		c0-0.4,0-0.7,0-1c0-0.2,0-0.4,0.1-0.6c0-0.2,0.1-0.3,0.1-0.5c0-0.2,0.1-0.3,0.1-0.4c0-0.1,0.1-0.3,0.1-0.4c0-0.1,0.1-0.3,0.1-0.4
		c-0.3,0.4-0.7,0.9-1.1,1.3s-0.8,0.8-1.2,1.1s-0.8,0.6-1.1,0.8c-0.4,0.2-0.7,0.3-1,0.3c-0.6,0-1-0.3-1.4-0.8
		c-0.4-0.5-0.5-1.2-0.4-1.9c0.1-0.6,0.3-1.3,0.5-2c0.3-0.7,0.6-1.5,1-2.3s0.8-1.5,1.3-2.2c0.5-0.7,0.9-1.4,1.4-1.9
		c0.5-0.5,1-1,1.4-1.3c0.5-0.3,0.9-0.4,1.2-0.4c0.6,0.1,1,0.3,1.3,0.6c0.3,0.3,0.6,0.6,0.8,1c0.4-1.1,0.8-2.1,1.3-3.1
		c0.4-1,0.8-1.9,1.1-2.7c0.3-0.8,0.6-1.5,0.9-2c0.2-0.5,0.4-0.9,0.5-1.1c0.2-0.4,0.4-0.7,0.7-0.9c0.3-0.2,0.6-0.4,0.9-0.4
		s0.6-0.1,0.9-0.1S50.8,33.1,51,33.2z M36.3,53.6c-0.1-0.5-0.1-1-0.1-1.7c0.1-0.6,0.2-1.3,0.5-2.1c0.3-0.8,0.8-1.8,1.4-2.9
		c0.8-1.3,1.5-2.4,2.1-3.1c0.6-0.7,1.2-1.1,1.8-1.2c-0.1-0.1-0.3-0.1-0.4-0.1c-0.1,0-0.3,0.1-0.5,0.2c-0.2,0.1-0.5,0.3-0.8,0.6
		c-0.2,0.2-0.5,0.5-0.8,1c-0.4,0.5-0.8,1-1.2,1.7c-0.4,0.6-0.8,1.3-1.2,2.1c-0.4,0.7-0.7,1.5-1,2.2c-0.2,0.7-0.4,1.4-0.4,2
		C35.7,52.7,35.9,53.2,36.3,53.6z M37.8,52.5c0.1,0,0.4-0.1,0.8-0.4c0.4-0.3,0.8-0.7,1.3-1.2c0.5-0.5,0.9-1.1,1.4-1.7
		c0.5-0.6,0.9-1.2,1.2-1.7c0.2-0.4,0.3-0.8,0.5-1.3c0.2-0.4,0.3-0.8,0.5-1.3c0-0.1-0.1-0.2-0.1-0.3c0-0.1-0.1-0.2-0.2-0.3
		c-0.1-0.1-0.2-0.1-0.3-0.1c-0.1,0-0.3,0-0.5,0.2S42,44.7,41.7,45c-0.3,0.3-0.6,0.7-1,1.2s-0.8,1.1-1.2,1.8
		c-0.4,0.7-0.8,1.4-1.1,2.1s-0.5,1.2-0.7,1.7C37.6,52.2,37.6,52.4,37.8,52.5z M44.3,45.5c0.6-1.6,1.2-3,1.8-4.5
		c0.2-0.6,0.5-1.2,0.8-1.8c0.3-0.6,0.5-1.2,0.8-1.8c0.2-0.6,0.5-1.1,0.7-1.6c0.2-0.5,0.4-0.9,0.6-1.2c-0.6,0.8-1.1,1.7-1.6,2.7
		c-0.5,0.9-1,2.1-1.5,3.4C45.2,42.1,44.7,43.7,44.3,45.5z"/>
	<path class="st0" d="M70.7,34.8c0.1-0.1,0.2-0.2,0.2-0.3c0.2-0.2,0.3-0.4,0.5-0.5c0.2-0.2,0.5-0.4,0.9-0.6c0.4-0.2,0.8-0.3,1.2-0.2
		c0.2,0,0.3,0,0.5,0.1c0.1,0,0.2,0.1,0.3,0.2c0.1,0.1,0.2,0.2,0.2,0.3c1.1-0.3,2.2-0.5,3.3-0.7c1.1-0.2,2.2-0.4,3.2-0.5
		c1-0.1,2-0.1,2.9-0.1s1.7,0.1,2.4,0.3c0.7,0.2,1.3,0.5,1.7,0.8c0.4,0.4,0.6,0.8,0.7,1.4c0,0.2,0,0.4,0,0.6c0,0.2-0.1,0.3-0.1,0.5
		s-0.1,0.3-0.3,0.5c-0.1,0.2-0.3,0.3-0.4,0.3c-0.2,0-0.4-0.1-0.6-0.3c-0.2-0.2-0.7-0.4-1.4-0.6c-0.8-0.2-1.8-0.3-3.1-0.4
		c-1.3-0.1-2.8,0-4.5,0.1c-1.7,0.1-3.7,0.5-5.9,1c-0.7,1-1.5,2.2-2.2,3.5c-0.8,1.3-1.5,2.6-2.1,3.8c-0.7,1.4-1.5,2.9-2.2,4.4
		c-1.1,2.2-1.9,4-2.6,5.6c-0.6,1.5-1.1,2.9-1.4,4c-0.4,1.6-0.7,2.7-0.7,3.5s-0.1,1.4,0,1.7s0.1,0.6,0.2,0.7c0.1,0.1,0.1,0.2,0.1,0.4
		c0,0.2-0.1,0.3-0.2,0.4s-0.2,0.1-0.3,0.2c-0.1,0-0.2,0.1-0.4,0.1c-0.4,0-0.7-0.1-0.9-0.4c-0.2-0.2-0.4-0.5-0.5-0.9
		s-0.2-0.7-0.2-1.2c0-0.4,0-0.9,0-1.3c0.1-1,0.3-2.2,0.6-3.5c0.3-1.6,0.8-3.2,1.5-5c0.7-1.8,1.5-3.6,2.3-5.4
		c0.9-1.8,1.7-3.5,2.7-5.1c0.9-1.6,1.7-3.1,2.5-4.3c-2,0.7-3.6,1.5-5,2.2c-1.3,0.7-2.4,1.4-3.2,2.1c-0.8,0.7-1.4,1.3-1.8,1.9
		s-0.6,1.2-0.7,1.7c-0.1,0.5-0.1,1,0,1.5c0.1,0.5,0.2,0.9,0.4,1.2c0.1,0.4,0.3,0.7,0.4,0.9c0.1,0.2,0.1,0.4,0,0.6
		c-0.2,0.2-0.4,0.3-0.7,0.3c-0.3,0-0.6-0.2-0.8-0.3c-0.2-0.1-0.3-0.3-0.4-0.4c-0.1-0.2-0.2-0.3-0.2-0.5c-0.1-0.2-0.1-0.3-0.2-0.5
		c-0.3-1.1-0.4-2.1-0.2-3c0.2-0.9,0.5-1.8,1.1-2.6c0.5-0.8,1.2-1.5,2-2.2c0.8-0.7,1.7-1.3,2.6-1.8c0.9-0.6,1.8-1,2.8-1.5
		c1-0.4,1.9-0.8,2.7-1.1c0,0,0,0,0,0c0,0,0,0,0,0c0.4-0.2,0.9-0.4,1.4-0.6C69.6,35.2,70.2,35,70.7,34.8z M64.6,38.2c0,0,0.1,0,0.1,0
		c0,0,0.1,0,0.1,0c0.1,0,0.1-0.1,0.2-0.1c0.2-0.1,0.3-0.1,0.4-0.2c0.1-0.1,0.3-0.1,0.4-0.2c1.1-0.5,1.9-0.9,2.5-1.1
		c0.2-0.1,0.3-0.1,0.4-0.2s0.2-0.1,0.3-0.1c0,0,0.1,0,0.1,0c0,0,0.1,0,0.1,0c0,0,0,0,0.1,0c-0.2,0-0.4,0.1-0.5,0.1c0,0-0.1,0-0.1,0
		s-0.1,0-0.1,0c0,0-0.1,0-0.1,0l-0.1,0.1c-0.2,0-0.3,0.1-0.5,0.1c-0.2,0.1-0.3,0.1-0.5,0.2c-0.3,0.1-0.7,0.3-1,0.4
		c-0.3,0.1-0.7,0.3-1,0.4L65,37.7c0,0-0.1,0-0.1,0.1c0,0-0.1,0-0.1,0.1c-0.1,0-0.2,0.1-0.3,0.1S64.3,38,64.2,38
		c-0.2,0.1-0.3,0.1-0.5,0.2c0,0-0.1,0-0.1,0.1c0,0-0.1,0-0.1,0.1c0,0-0.1,0.1-0.2,0.1c-0.3,0.2-0.6,0.4-0.9,0.6
		c-0.3,0.2-0.6,0.4-0.9,0.6c-0.3,0.2-0.5,0.4-0.8,0.6s-0.5,0.4-0.7,0.6c-0.2,0.2-0.4,0.4-0.6,0.5c-0.2,0.2-0.3,0.3-0.5,0.5
		c-0.1,0.2-0.3,0.3-0.4,0.4s-0.2,0.2-0.3,0.3c0,0.1-0.1,0.1-0.1,0.2c0,0,0,0,0,0.1c0,0,0,0,0,0c0-0.1,0.1-0.1,0.1-0.2
		c0-0.1,0.1-0.1,0.1-0.1c0,0,0,0,0-0.1c0,0,0,0,0-0.1l0.1-0.1c0.1-0.1,0.2-0.2,0.3-0.3c0.1-0.1,0.2-0.2,0.3-0.2
		c0.3-0.3,0.7-0.6,1-0.9c0.3-0.3,0.7-0.5,1-0.8c0.3-0.2,0.7-0.4,1-0.6c0.3-0.2,0.7-0.4,1-0.6c0.3-0.2,0.6-0.3,0.9-0.5
		c0.1-0.1,0.2-0.1,0.2-0.1c0,0,0.1,0,0.1-0.1C64.6,38.3,64.6,38.3,64.6,38.2z M69.1,38.8c-0.9,1.5-1.8,2.9-2.6,4.3
		c-0.4,0.7-0.8,1.4-1.1,2.1c-0.3,0.7-0.7,1.3-1,2c-1.3,2.6-2.3,4.9-3,6.9c-0.2,0.5-0.3,1-0.5,1.4c-0.1,0.4-0.3,0.9-0.4,1.3
		c0,0.2-0.1,0.4-0.1,0.6c0,0.2-0.1,0.4-0.1,0.6c0,0.1,0,0.2,0,0.2c0,0.1,0,0.2,0,0.2c0,0,0,0.1,0,0.1c0,0,0,0.1,0,0.1
		c0,0,0,0.1,0,0.1c0,0,0,0.1,0,0.1c0,0.3-0.1,0.5-0.1,0.8c0,0.2,0,0.4,0,0.5v0.3v0.1c0-0.2,0-0.3,0-0.4c0-0.1,0-0.3,0-0.4l0.2-0.9
		c0-0.2,0.1-0.3,0.1-0.5c0-0.1,0.1-0.3,0.1-0.5l0.3-0.9c0.4-1.2,0.8-2.4,1.3-3.7c0.3-0.6,0.5-1.2,0.8-1.8s0.5-1.2,0.8-1.8
		c0.3-0.6,0.6-1.2,0.8-1.7c0.3-0.6,0.5-1.1,0.8-1.7c0.5-1.1,1-2.1,1.4-3c0.4-0.9,0.8-1.7,1.2-2.3c0.3-0.7,0.6-1.2,0.8-1.6L69.1,38.8
		z M88.3,35.4c0-0.2,0-0.5-0.1-0.7c-0.1-0.3-0.2-0.5-0.4-0.7c-0.1-0.1-0.2-0.2-0.3-0.3c-0.1-0.1-0.2-0.1-0.3-0.2
		c-0.3-0.1-0.5-0.2-0.7-0.2c-0.2-0.1-0.4-0.1-0.6-0.1c-0.2,0-0.4,0-0.5,0H85h-0.1h0c0.1,0,0.2,0,0.2,0c0.1,0,0.2,0,0.2,0l0.5,0.1
		c0.2,0,0.3,0.1,0.4,0.1s0.3,0.1,0.4,0.1c0.1,0.1,0.2,0.1,0.4,0.2c0.1,0.1,0.2,0.1,0.3,0.2c0.1,0.1,0.2,0.1,0.3,0.2
		c0.1,0.1,0.2,0.1,0.2,0.2c0.1,0.1,0.2,0.3,0.3,0.4c0.1,0.1,0.1,0.3,0.2,0.4c0,0.1,0,0.1,0,0.1S88.3,35.2,88.3,35.4
		C88.3,35.3,88.3,35.3,88.3,35.4L88.3,35.4z"/>
	<path class="st0" d="M74,42.1c0.1,0,0.3,0,0.4,0c0.1,0,0.2,0,0.3,0c0.1,0,0.2,0,0.2,0c0,0,0.1,0,0.3-0.1c0.2,0,0.3,0,0.5,0
		c0.1,0,0.3,0.1,0.4,0.2s0.2,0.2,0.4,0.4c0.1,0.2,0.2,0.5,0.2,0.8c0,0.3,0,0.5-0.1,0.8c-0.1,0.2-0.1,0.5-0.2,0.7s-0.1,0.3-0.2,0.4
		c-0.3,0.8-0.8,1.6-1.2,2.5c-0.5,0.9-0.9,1.8-1.3,2.6c-0.4,0.8-0.6,1.6-0.7,2.2c-0.1,0.7,0,1.1,0.4,1.4c0,0,0.1,0,0.1,0.1
		c0.1,0.1,0.1,0.1,0.1,0.2c0,0.1-0.1,0.2-0.2,0.3c-0.1,0.1-0.2,0.2-0.4,0.2c-0.3,0.1-0.7,0-1-0.2s-0.6-0.5-0.9-0.8
		c-0.2-0.4-0.4-0.9-0.4-1.5s0.1-1.3,0.4-2.1c0.3-0.7,0.6-1.4,0.9-2.1c0.4-0.7,0.7-1.3,1-1.9c0.3-0.6,0.6-1,0.9-1.4
		c0.3-0.4,0.4-0.7,0.5-0.8c0.1-0.2,0.1-0.4,0-0.5c-0.1-0.1-0.3-0.2-0.7-0.2c-0.2,0-0.4,0-0.5-0.1c-0.5,0.7-0.9,1.3-1.4,1.8
		S71,46,70.6,46.4c0,0-0.1,0.1-0.2,0.1c-0.1,0-0.1-0.1-0.1-0.4c0-0.2,0.1-0.5,0.2-0.8c0.1-0.3,0.2-0.6,0.2-0.7c0,0,0,0,0-0.1
		l0.1-0.1c0.2-0.2,0.5-0.5,0.7-0.8c0.2-0.3,0.5-0.6,0.8-1c-0.4-0.2-0.7-0.5-0.8-1c-0.1-0.4-0.1-0.9,0.1-1.4c0.1-0.5,0.3-1,0.6-1.5
		c0.3-0.5,0.6-0.9,1-1.3c0.4-0.4,0.7-0.6,1.1-0.7c0.4-0.1,0.7-0.1,0.9,0.2s0.4,0.6,0.4,1c0,0.4,0,0.8-0.2,1.2
		c-0.1,0.4-0.3,0.9-0.6,1.4C74.6,41.1,74.3,41.6,74,42.1z M72.7,48.4c0.2-0.5,0.5-1,0.7-1.5c0.3-0.5,0.5-1,0.8-1.6
		c-0.5,0.6-0.9,1.3-1.3,2c-0.3,0.6-0.7,1.3-1,2.1c-0.3,0.8-0.5,1.6-0.6,2.4c0.1-0.3,0.3-0.7,0.4-1c0.1-0.3,0.3-0.7,0.4-1.1
		C72.3,49.2,72.5,48.8,72.7,48.4z M73.2,41.5c0.3-0.4,0.5-0.8,0.8-1.2c0.2-0.4,0.4-0.7,0.4-1.1c0.1-0.4,0.1-0.6,0-0.5
		c-0.1,0.1-0.3,0.2-0.5,0.5s-0.4,0.7-0.5,1.1C73.2,40.8,73.2,41.1,73.2,41.5z"/>
	<path class="st0" d="M82.9,47c0.1-0.1,0.1-0.3,0.2-0.5c0.1-0.2,0.1-0.4,0.2-0.6c0.1-0.2,0.2-0.4,0.2-0.6c0-0.1,0.1-0.3,0.3-0.4
		s0.3-0.2,0.5-0.2c0.1,0,0.3,0.1,0.5,0.2c0.2,0.1,0.4,0.3,0.6,0.5s0.3,0.5,0.4,0.8c0.1,0.3,0,0.7-0.1,1.1c-0.1,0.2-0.1,0.4-0.3,0.7
		c-0.1,0.3-0.2,0.6-0.3,1c-0.1,0.3-0.2,0.6-0.3,0.9c-0.1,0.3-0.2,0.5-0.3,0.7c-0.4,1.2-0.7,2.1-0.8,2.8c-0.1,0.7-0.1,1,0.1,1.1
		c0,0,0.1,0,0.1,0.1c0,0,0,0,0.1,0.1c0,0,0,0.1,0.1,0.1c0.1,0.1,0.1,0.3,0,0.5c-0.1,0.2-0.4,0.3-0.8,0.4c-0.4,0.1-0.8,0-1.1-0.2
		c-0.1-0.1-0.2-0.1-0.2-0.2c-0.1-0.1-0.1-0.2-0.2-0.3c-0.1-0.1-0.1-0.2-0.2-0.3c-0.1-0.2-0.1-0.3-0.1-0.5c0-0.2-0.1-0.3-0.1-0.4
		c0-0.1,0-0.3,0-0.4c0-0.3,0.1-0.7,0.2-1.2c-0.5,0.7-1,1.3-1.6,1.8c-0.6,0.5-1.2,0.7-1.8,0.6c-0.6-0.1-1-0.3-1.3-0.7
		c-0.3-0.3-0.5-0.7-0.6-1.1c-0.1-0.5-0.2-1-0.2-1.5c0-0.3,0.1-0.7,0.1-1.1s0.1-0.7,0.2-1c0.1-0.3,0.2-0.7,0.2-1
		c0.2-0.7,0.4-1.3,0.7-2c0.2-0.7,0.5-1.3,0.8-1.8c0.2-0.4,0.5-0.9,0.8-1.3s0.7-0.8,1.3-1c0.3-0.1,0.7-0.1,1,0
		c0.3,0.1,0.6,0.3,0.7,0.5c0,0.1,0,0.2,0,0.4c0,0.1-0.1,0.1-0.1,0.1c-0.2,0.2-0.5,0.6-0.7,1c-0.2,0.4-0.5,0.9-0.8,1.6
		c-0.3,0.7-0.6,1.5-1,2.6c-0.1,0.4-0.3,0.7-0.4,1.1c-0.1,0.3-0.2,0.6-0.3,1s-0.2,0.7-0.2,1C78,51.6,78,52,78,52.3
		c0,0.3,0.1,0.4,0.2,0.6c0.1,0.1,0.2,0.2,0.3,0.2c0.3,0,0.6-0.2,0.9-0.4c0.3-0.2,0.6-0.6,0.9-1c0.3-0.4,0.6-0.8,0.9-1.3
		c0.3-0.5,0.5-0.9,0.8-1.4c0.2-0.4,0.4-0.9,0.6-1.2S82.8,47.2,82.9,47z M77.5,53.8c-0.3-0.3-0.5-0.8-0.6-1.3
		c-0.1-0.5-0.1-1.1-0.1-1.8c0-0.7,0.2-1.6,0.5-2.7c0.5-1.6,1-2.9,1.3-3.7c0.2-0.5,0.4-0.9,0.6-1.2c-0.3,0.3-0.5,0.6-0.8,1.1
		c-0.2,0.4-0.5,1-0.8,1.6c-0.3,0.7-0.6,1.5-0.9,2.6c-0.3,1-0.4,1.9-0.4,2.6c0,0.7,0.1,1.3,0.3,1.7s0.3,0.7,0.5,0.9
		C77.3,53.8,77.5,53.8,77.5,53.8z M83.2,52.7c0.2-0.8,0.3-1.5,0.5-2.1c0.2-0.6,0.4-1.2,0.6-1.7c0.2-0.6,0.4-1.1,0.6-1.5
		c-0.4,0.6-0.7,1.1-1,1.7c-0.2,0.6-0.4,1.2-0.5,1.7C83.3,51.5,83.2,52.1,83.2,52.7z"/>
	<path class="st0" d="M93.3,42.3c0.4,0.4,0.7,0.9,0.8,1.4c0.1,0.5,0,1-0.2,1.4c-0.1,0.2-0.2,0.3-0.3,0.4c-0.1,0.1-0.2,0.2-0.3,0.3
		c-0.1,0.1-0.3,0.1-0.4,0.1c-0.1,0-0.3-0.1-0.4-0.3c-0.1-0.2-0.1-0.4,0-0.6c0-0.2,0.1-0.3,0.1-0.4s0.1-0.2,0.1-0.3
		c0-0.1,0-0.2,0.1-0.3c-0.5,0.4-1,0.9-1.5,1.6c-0.5,0.7-0.9,1.4-1.3,2.1c-0.4,0.8-0.7,1.6-1,2.4s-0.5,1.5-0.7,2.2
		c-0.2,0.7-0.3,1.2-0.3,1.7c0,0.5,0.1,0.8,0.2,0.9c0.2,0.1,0.6,0.1,1-0.1c0.4-0.2,0.9-0.5,1.3-0.9c0.4-0.4,0.8-0.7,1.2-1.1
		c0.3-0.4,0.5-0.6,0.6-0.8c0.1-0.1,0.2-0.2,0.3-0.2c0.1,0,0.2,0,0.3,0.1c0.1,0.1,0.1,0.3,0.1,0.4l-0.1,0.2c-0.1,0.2-0.2,0.5-0.4,0.8
		s-0.5,0.7-0.8,1s-0.6,0.6-1,0.9s-0.7,0.5-1.1,0.7c-0.6,0.2-1.1,0.3-1.5,0.3s-0.7-0.1-1-0.2c-0.3-0.1-0.6-0.3-0.8-0.5
		c-0.4-0.4-0.7-0.9-0.8-1.5c-0.1-0.6-0.2-1.3-0.1-2c0.1-0.7,0.2-1.5,0.5-2.3c0.2-0.8,0.5-1.5,0.9-2.3s0.7-1.4,1.1-2
		c0.4-0.6,0.8-1.1,1.1-1.6c0.5-0.6,1-1.1,1.5-1.4c0.4-0.3,0.9-0.5,1.4-0.6C92.3,41.7,92.8,41.8,93.3,42.3z M86.1,52.8
		c0.3-1.4,0.7-2.7,1.1-3.8c0.5-1.1,0.9-2.1,1.3-2.9c0.5-1,1-1.8,1.6-2.6c-1,0.9-1.7,1.9-2.2,3c-0.5,1.1-0.9,2.1-1.2,3
		C86.4,50.7,86.2,51.8,86.1,52.8z"/>
	<path class="st0" d="M105.8,57.2c0.2,0.1,0.2,0.3,0.2,0.4s-0.1,0.3-0.2,0.4c-0.2,0.2-0.4,0.3-0.6,0.4c-0.1,0.1-0.3,0.1-0.4,0.2
		c-0.9,0.2-1.8,0.3-2.5,0.1c-0.8-0.2-1.4-0.4-2.1-0.8c-0.6-0.4-1.2-0.9-1.6-1.5c-0.5-0.6-0.9-1.2-1.2-1.9c-0.4-0.7-0.7-1.3-0.9-2
		c-0.2-0.7-0.4-1.3-0.6-1.8c-0.3,1-0.5,1.8-0.6,2.4s-0.2,1.1-0.2,1.2c0,0.4-0.1,0.7-0.2,0.8c-0.1,0.1-0.3,0.2-0.5,0.1
		c-0.2,0-0.3-0.1-0.5-0.3c-0.2-0.2-0.3-0.3-0.4-0.5c-0.1-0.1-0.2-0.3-0.2-0.5c0-0.2,0-0.4,0-0.6c0-0.2,0.1-0.5,0.1-0.8
		c0.2-1.1,0.5-2.3,0.8-3.6c0.4-1.3,0.7-2.5,1.2-3.8c0.4-1.2,0.9-2.5,1.3-3.6c0.5-1.2,0.9-2.2,1.3-3.2c0.4-1,0.7-1.8,1-2.5
		c0.3-0.7,0.5-1.1,0.6-1.4c0.2-0.4,0.4-0.7,0.7-0.9s0.6-0.4,0.9-0.4s0.6-0.1,0.9-0.1c0.3,0,0.5,0.1,0.7,0.1c0.3,0.1,0.4,0.3,0.5,0.5
		c0.1,0.2,0.1,0.4,0,0.6c-0.1,0.1-0.1,0.3-0.2,0.4c-0.1,0.1-0.1,0.1-0.2,0.1c-0.3,0.3-0.5,0.5-0.7,0.8c-0.2,0.3-0.4,0.5-0.5,0.8
		c-0.2,0.3-0.3,0.5-0.5,0.8c-0.9,1.5-1.6,3.1-2.3,4.7c-0.7,1.6-1.3,3.1-1.8,4.5c0.4-0.6,0.9-1.2,1.5-1.8c0.6-0.7,1.1-1.2,1.7-1.8
		c0.6-0.5,1.1-0.9,1.7-1.2c0.5-0.3,1-0.3,1.3,0c0.3,0.2,0.5,0.6,0.7,1.1c0.1,0.5,0.1,1.1,0,1.7c-0.1,0.6-0.3,1.3-0.7,2
		c-0.3,0.7-0.8,1.3-1.3,1.9c-0.6,0.6-1.2,1.1-2,1.5c-0.8,0.4-1.7,0.6-2.7,0.7c0.6,1.2,1.2,2.2,1.9,3.1c0.6,0.8,1.2,1.5,1.8,1.9
		c0.6,0.5,1.2,0.8,1.7,1.1c0.5,0.2,1,0.4,1.4,0.5c0.4,0.1,0.8,0.2,1.1,0.2C105.5,57.1,105.7,57.1,105.8,57.2z M100.1,35.8
		c-0.6,0.9-1.1,1.9-1.6,3c-0.5,1-1,2.2-1.5,3.5c-0.5,1.4-1,2.9-1.4,4.6c0.5-1.4,1-2.7,1.5-4c0.4-1.1,0.9-2.4,1.5-3.6
		C99.1,38,99.6,36.8,100.1,35.8z M102.8,42.6c-0.1,0-0.4,0.1-0.7,0.3c-0.3,0.2-0.6,0.5-1,0.8s-0.8,0.8-1.2,1.2
		c-0.4,0.5-0.8,0.9-1.3,1.3s-0.8,0.9-1.2,1.3c-0.4,0.4-0.6,0.8-0.9,1c0,0.1,0.1,0.2,0.1,0.2c0,0.1,0.1,0.1,0.1,0.2
		c0.5-0.2,1-0.5,1.6-0.9c0.6-0.4,1.1-0.8,1.6-1.3c0.5-0.5,0.9-0.9,1.4-1.4c0.4-0.5,0.8-0.9,1-1.4c0.3-0.4,0.4-0.8,0.5-1
		C103,42.8,103,42.6,102.8,42.6z M98.2,54.7c0.3,0.5,0.6,1,1,1.4c0.3,0.4,0.7,0.8,1.2,1.2c0.5,0.4,1.1,0.7,1.8,0.9
		c-0.4-0.2-0.9-0.5-1.3-0.8c-0.4-0.3-0.8-0.6-1.3-1.1C99.1,55.8,98.7,55.3,98.2,54.7z M103.7,44.1c-0.2,0.4-0.3,0.8-0.5,1.2
		c-0.2,0.4-0.4,0.7-0.5,1c-0.2,0.4-0.4,0.7-0.6,1c0.4-0.3,0.7-0.7,0.9-1.1c0.2-0.4,0.4-0.7,0.5-1.1
		C103.6,44.9,103.7,44.5,103.7,44.1z"/>
	<path class="st0" d="M112.7,47.5c0,0-0.1-0.1-0.1-0.2c0-0.1-0.1-0.1-0.1-0.2l-0.2-0.3c-0.1-0.2-0.2-0.4-0.3-0.6s-0.1-0.3-0.2-0.4
		c-0.2-1-0.2-1.9,0-2.8c0.2-0.9,0.6-1.7,1.1-2.5s1.2-1.5,1.9-2.1c0.8-0.6,1.6-1.2,2.5-1.8c0.9-0.5,1.8-1,2.7-1.4
		c0.9-0.4,1.8-0.8,2.7-1.1c0.1,0,0.1-0.1,0.2-0.1c0.1,0,0.1,0,0.2-0.1c0.4-0.2,0.9-0.3,1.4-0.5c0.5-0.2,1.1-0.4,1.6-0.6
		c0.1-0.1,0.1-0.2,0.2-0.3c0.2-0.3,0.4-0.5,0.7-0.7c0.2-0.2,0.5-0.3,0.8-0.5c0.3-0.1,0.7-0.2,1.1-0.2c0.2,0,0.3,0,0.5,0.1
		c0.1,0,0.2,0.1,0.3,0.2c0.1,0.1,0.2,0.2,0.2,0.3c1.1-0.3,2.1-0.5,3.1-0.6c1-0.1,2-0.2,2.8-0.1c0.8,0.1,1.5,0.3,2,0.7
		c0.5,0.4,0.8,0.9,0.9,1.7c0,0.2,0,0.4,0,0.6c0,0.2-0.1,0.3-0.1,0.5c-0.1,0.2-0.1,0.3-0.3,0.5s-0.3,0.3-0.5,0.3
		c-0.2,0-0.4-0.1-0.6-0.3c-0.1-0.1-0.3-0.3-0.6-0.5c-0.3-0.2-0.8-0.4-1.5-0.5c-0.7-0.1-1.6-0.2-2.8-0.1s-2.6,0.3-4.3,0.7
		c-0.5,0.7-1,1.4-1.5,2.3c-0.5,0.9-1,1.8-1.5,2.7c-0.5,0.9-1,1.8-1.4,2.6s-0.8,1.6-1.2,2.3c0.4-0.1,0.8-0.3,1.4-0.4
		c0.5-0.1,1.1-0.2,1.6-0.2c0.5,0,1.1,0,1.5,0.1c0.5,0.1,0.9,0.4,1.2,0.7c0.2,0.2,0.3,0.5,0.4,0.7c0.1,0.2,0.1,0.4,0.1,0.7
		c0,0.3-0.1,0.5-0.2,0.8c0,0-0.1,0.1-0.1,0.1s-0.1,0.1-0.1,0.1c0,0-0.1,0.1-0.1,0.1c-0.1,0-0.2,0.1-0.4,0.1c-0.1,0-0.2,0-0.2-0.1
		c-0.1-0.1-0.1-0.1-0.1-0.3c0-0.1-0.1-0.2-0.3-0.4c-0.2-0.2-0.5-0.4-1-0.5c-0.5-0.1-1.1-0.1-1.9,0c-0.8,0.1-1.8,0.4-3,1
		c-1,2-1.8,3.8-2.4,5.3c-0.6,1.5-1.1,2.7-1.3,3.8c-0.3,1-0.5,1.9-0.6,2.6c-0.1,0.7-0.2,1.2-0.2,1.7c0,0.4,0,0.8,0,1s0.1,0.4,0.2,0.5
		c0.1,0.1,0.1,0.2,0.2,0.3c0.1,0.1,0.1,0.1,0,0.2c-0.1,0.3-0.2,0.5-0.5,0.6c-0.1,0-0.3,0.1-0.4,0.1c-0.6,0-1-0.3-1.2-0.8
		c-0.2-0.5-0.4-1.1-0.4-1.7c0-0.7,0-1.3,0.1-2c0.1-0.7,0.2-1.3,0.3-1.7c0.2-1.2,0.2-2.2,0-3.3c-0.2-1-0.4-1.9-0.7-2.7
		c-0.3-0.8-0.6-1.4-0.9-1.9C113.1,48,112.9,47.7,112.7,47.5z M113.8,46c0.1,0.2,0.2,0.4,0.2,0.6c0.1,0.2,0.1,0.3,0.2,0.5
		c0.1,0.2,0.2,0.3,0.2,0.4c0.6,1,0.9,1.9,1.2,2.7c0.2,0.7,0.4,1.4,0.4,1.9c0.5-1.4,1.1-2.9,1.7-4.4c0.7-1.5,1.4-3,2.1-4.4
		s1.5-2.8,2.2-4.1c0.7-1.3,1.4-2.4,2-3.4c-1.9,0.7-3.6,1.4-4.9,2.1c-1.3,0.7-2.4,1.4-3.2,2c-0.8,0.6-1.4,1.3-1.8,1.9
		s-0.6,1.2-0.8,1.7s-0.1,1-0.1,1.5C113.6,45.2,113.7,45.6,113.8,46z M113.5,40.8c0-0.1,0.1-0.1,0.1-0.2c0-0.1,0.1-0.1,0.1-0.1
		c0,0,0-0.1,0.1-0.1c0,0,0,0,0.1,0c0,0,0-0.1,0.1-0.1c0,0,0,0,0.1-0.1l0.5-0.5c0.4-0.3,0.7-0.6,1-0.9c0.3-0.3,0.7-0.5,1-0.8
		s0.7-0.4,1-0.6c0.3-0.2,0.7-0.4,1-0.6c0.3-0.2,0.6-0.3,1-0.5c0,0,0.1,0,0.1,0c0,0,0.1,0,0.1,0c0.1-0.1,0.2-0.1,0.2-0.1
		c0,0,0.1,0,0.1-0.1c0,0,0.1,0,0.1-0.1c0.1,0,0.2-0.1,0.2-0.1c0.1-0.1,0.3-0.2,0.4-0.2c0.1-0.1,0.3-0.1,0.4-0.2
		c0.5-0.2,1-0.5,1.4-0.6c0.4-0.2,0.8-0.3,1.1-0.5c0.1-0.1,0.3-0.1,0.4-0.2c0.1,0,0.2-0.1,0.3-0.1s0.1-0.1,0.2-0.1c0,0,0,0,0.1,0
		c-0.1,0-0.2,0.1-0.2,0.1c-0.1,0-0.2,0-0.3,0.1c0,0-0.1,0-0.2,0.1c0,0,0,0,0,0c0,0,0,0-0.1,0c0,0,0,0,0,0c0,0,0,0-0.1,0
		c-0.2,0.1-0.3,0.1-0.5,0.2c-0.2,0.1-0.3,0.1-0.5,0.2c-0.7,0.2-1.4,0.5-2.1,0.8l-0.3,0.1c0,0-0.1,0-0.1,0c0,0-0.1,0-0.1,0.1
		c-0.1,0-0.2,0.1-0.2,0.1s-0.2,0.1-0.2,0.1c-0.1,0-0.2,0.1-0.3,0.1c-0.1,0.1-0.1,0.1-0.2,0.1c-0.1,0-0.2,0.1-0.2,0.1
		c0,0-0.1,0-0.1,0.1s-0.1,0-0.1,0.1c-0.3,0.2-0.6,0.4-0.9,0.6s-0.6,0.4-0.8,0.6c-0.3,0.2-0.5,0.4-0.8,0.6c-0.2,0.2-0.5,0.4-0.7,0.6
		c-0.2,0.2-0.4,0.4-0.6,0.5c-0.2,0.2-0.3,0.3-0.5,0.5c-0.3,0.3-0.5,0.5-0.6,0.8c0,0.1-0.1,0.1-0.1,0.1
		C113.6,40.6,113.6,40.7,113.5,40.8C113.5,40.7,113.5,40.8,113.5,40.8L113.5,40.8z M124.2,37.3c0-0.1,0.1-0.2,0.1-0.3
		c0-0.1,0.1-0.1,0.1-0.2c0-0.1,0.1-0.1,0.1-0.2c-0.5,0.7-0.9,1.5-1.3,2.2c-0.4,0.7-0.8,1.4-1.3,2.1c-0.4,0.7-0.8,1.4-1.1,2.1
		c-0.4,0.7-0.7,1.3-1,2c-0.7,1.3-1.2,2.5-1.7,3.7c-0.5,1.2-0.9,2.2-1.3,3.3c-0.2,0.5-0.3,1-0.4,1.4c-0.1,0.4-0.2,0.9-0.4,1.3
		c-0.1,0.2-0.1,0.4-0.2,0.6s-0.1,0.4-0.1,0.5c0,0.1,0,0.2,0,0.3c0,0.1,0,0.2,0,0.3c0,0,0,0.1,0,0.1c0,0,0,0.1,0,0.1
		c0,0.1,0,0.2,0,0.2c-0.1,0.6-0.1,1-0.1,1.3c0,0.1,0,0.1,0,0.2c0,0.1,0,0.1,0,0.1v0.1c0-0.3,0-0.6,0.1-0.9c0-0.2,0.1-0.3,0.1-0.5
		c0-0.1,0.1-0.3,0.1-0.5c0-0.2,0.1-0.3,0.1-0.5c0-0.1,0.1-0.3,0.1-0.5l0.3-0.9c0.2-0.6,0.4-1.2,0.6-1.9c0.2-0.6,0.5-1.2,0.7-1.9
		c0.5-1.3,1-2.5,1.6-3.6c0.3-0.6,0.5-1.2,0.8-1.7c0.3-0.6,0.5-1.1,0.8-1.7c0.5-1.1,1-2.1,1.5-3c0.4-0.9,0.8-1.7,1.2-2.4
		c0.2-0.3,0.3-0.6,0.4-0.9C124,37.7,124.1,37.5,124.2,37.3z M138.2,33.7c0-0.3,0-0.5,0-0.7c0-0.1-0.1-0.3-0.2-0.4
		c0-0.1-0.1-0.1-0.1-0.2c0-0.1-0.1-0.1-0.1-0.2c-0.2-0.2-0.4-0.4-0.7-0.5c-0.1,0-0.2-0.1-0.4-0.1s-0.2-0.1-0.4-0.1
		c-0.2,0-0.4-0.1-0.6-0.1c-0.2,0-0.4,0-0.5,0c-0.1,0-0.2,0-0.2,0c-0.1,0-0.1,0-0.2,0h-0.1h0c0.1,0,0.2,0,0.3,0s0.2,0,0.3,0l0.5,0.1
		c0.2,0,0.3,0.1,0.5,0.1c0.1,0,0.3,0.1,0.4,0.1c0.2,0.1,0.4,0.2,0.7,0.3c0.1,0.1,0.2,0.1,0.3,0.2c0.1,0.1,0.2,0.1,0.2,0.2
		c0,0,0.1,0.1,0.1,0.1c0,0,0.1,0.1,0.1,0.1c0,0,0,0.1,0,0.1s0,0.1,0.1,0.1c0,0.1,0.1,0.1,0.1,0.2c0,0.1,0,0.1,0,0.2
		C138.1,33.6,138.2,33.6,138.2,33.7L138.2,33.7z"/>
	<path class="st0" d="M136.8,49.3c0.2,0,0.4,0.2,0.4,0.6c0,0.4,0,0.8-0.2,1.2c-0.2,0.4-0.4,0.9-0.7,1.3c-0.3,0.4-0.7,0.8-1.1,1.2
		c-0.4,0.3-1,0.6-1.5,0.8c-0.6,0.2-1.2,0.2-1.9,0.2c-0.7-0.1-1.3-0.3-1.8-0.6c-0.4-0.3-0.8-0.7-1.2-1.3c-0.3-0.6-0.5-1.4-0.4-2.5
		c0.1-0.7,0.2-1.4,0.5-2.1c0.2-0.6,0.6-1.3,1-2c0.5-0.7,1.1-1.4,1.9-2c0.4-0.3,0.8-0.5,1.2-0.7c0.3-0.2,0.7-0.3,1.1-0.4
		c0.4-0.1,0.8-0.1,1.1,0.1c0.6,0.3,1,0.7,1.1,1.2c0.1,0.5,0.1,1-0.1,1.4c-0.1,0.2-0.2,0.5-0.4,0.8s-0.4,0.6-0.8,1s-0.8,0.7-1.5,1
		c-0.6,0.3-1.4,0.7-2.4,0.9c-0.2,0.7-0.4,1.2-0.5,1.8c0,0.5,0,0.9,0.1,1.3c0.1,0.4,0.4,0.7,0.9,0.9c0.5,0.2,1,0.2,1.4,0
		c0.4-0.2,0.8-0.4,1.2-0.7s0.7-0.7,0.9-1.1c0.3-0.4,0.4-0.8,0.6-1.2c0-0.1,0.1-0.2,0.1-0.3c0.1-0.1,0.1-0.2,0.2-0.4
		c0.1-0.1,0.1-0.2,0.2-0.3C136.7,49.4,136.8,49.3,136.8,49.3z M129.2,50c0.2-0.6,0.4-1.2,0.7-1.8c0.3-0.5,0.6-1.1,1-1.6
		s0.9-1.1,1.5-1.6c0.8-0.6,1.4-1,1.9-1.2c0.5-0.1,0.9-0.2,1.2-0.1c-0.1-0.1-0.2-0.2-0.3-0.2c-0.2-0.1-0.5-0.2-0.9-0.1
		c-0.2,0-0.6,0.2-1.1,0.5c-0.5,0.3-0.9,0.7-1.5,1.2s-1,1.2-1.5,2C129.8,48,129.4,48.9,129.2,50z M134.7,46.4
		c0.1-0.2,0.2-0.3,0.2-0.5c0-0.2,0-0.3-0.1-0.4c-0.1-0.1-0.2-0.2-0.4-0.2s-0.4,0.1-0.7,0.2c-0.3,0.2-0.5,0.4-0.8,0.7
		c-0.3,0.3-0.5,0.5-0.7,0.8c-0.2,0.3-0.3,0.5-0.4,0.7c-0.1,0.2-0.1,0.3-0.1,0.3c0.2,0,0.4-0.1,0.7-0.2c0.3-0.1,0.6-0.2,0.8-0.4
		c0.3-0.2,0.5-0.4,0.8-0.6C134.4,46.7,134.6,46.6,134.7,46.4z"/>
	<path class="st0" d="M135.9,56.2c0-0.1,0-0.2,0-0.3c0,0,0-0.1,0-0.1c0-0.2,0.2-0.2,0.4-0.2c0.1,0,0.2,0,0.2,0c0.1,0,0.1,0,0.2,0.1
		c0.1,0,0.1,0,0.2,0s0.2,0,0.4-0.1c0.2-0.1,0.5-0.3,0.6-0.5c0.2-0.2,0.3-0.4,0.5-0.6c0.1-0.2,0.2-0.4,0.3-0.6s0.1-0.3,0.2-0.4
		c0.1-0.5,0.2-1,0-1.6c-0.1-0.6-0.3-1.1-0.5-1.6c-0.2-0.6-0.6-1.2-0.9-1.8c-0.3-0.4-0.4-0.9-0.5-1.4c0-0.5,0-1,0.2-1.5
		s0.4-1,0.7-1.5c0.3-0.5,0.6-1,1-1.4c0.7-0.8,1.3-1.3,1.9-1.5c0.6-0.2,1.1-0.3,1.5-0.3c0.5,0,1,0.2,1.4,0.5c0.4,0.2,0.6,0.5,0.8,0.8
		s0.2,0.6,0.2,0.9c0,0.3-0.1,0.5-0.3,0.8c-0.1,0.2-0.3,0.4-0.4,0.4c-0.3,0.1-0.6,0.1-0.7,0c-0.1-0.1-0.2-0.1-0.2-0.2
		c-0.1-0.1-0.3-0.2-0.6-0.1c-0.3,0.1-0.6,0.2-1,0.5c-0.4,0.2-0.7,0.5-1.1,0.9s-0.6,0.8-0.8,1.2c-0.2,0.5-0.3,1-0.2,1.5
		c0.1,0.5,0.4,1.1,0.9,1.8c0.1,0.2,0.3,0.5,0.5,0.9c0.2,0.4,0.3,0.8,0.5,1.2c0.1,0.4,0.2,0.9,0.3,1.3c0.1,0.5,0,0.9-0.1,1.4
		c-0.3,1-0.7,1.7-1.3,2.2c-0.6,0.5-1.2,0.8-1.8,0.9c-0.7,0.1-1.1,0-1.5-0.2c-0.3-0.2-0.5-0.4-0.6-0.5
		C136,56.7,135.9,56.4,135.9,56.2z M138.7,44c0.3-0.5,0.7-1,1.1-1.3c0.4-0.3,0.8-0.6,1.1-0.9c0.4-0.2,0.8-0.4,1.2-0.6
		c-0.3,0-0.5,0.1-0.8,0.2c-0.2,0.1-0.5,0.2-0.8,0.4s-0.6,0.4-0.9,0.6c-0.3,0.3-0.6,0.6-0.9,1c-0.3,0.3-0.5,0.7-0.7,1.1
		c-0.2,0.4-0.3,0.9-0.4,1.3c-0.1,0.5-0.1,0.9,0,1.4c0,0.1,0,0.2,0.1,0.4c0,0.1,0.1,0.3,0.2,0.6c0.1,0.2,0.2,0.5,0.4,0.8
		c0-0.1-0.1-0.2-0.2-0.6c-0.1-0.3-0.2-0.7-0.3-1.2s0-1,0-1.5C138.1,45.2,138.3,44.6,138.7,44z M140.6,52.2c0.1,0.9,0.1,1.6-0.1,2.2
		s-0.4,1.1-0.7,1.5c-0.3,0.4-0.8,0.8-1.3,1.1c0.9-0.4,1.5-0.9,1.8-1.4c0.3-0.5,0.5-1.1,0.6-1.5C140.9,53.4,140.8,52.8,140.6,52.2z"
		/>
	<path class="st0" d="M151.7,36c-0.1,0.1-0.2,0.2-0.2,0.3c-0.1,0.1-0.1,0.2-0.2,0.4c-0.1,0.1-0.1,0.3-0.2,0.4c1-0.1,2.2-0.1,3.5,0
		c1.3,0.1,2.8,0.3,4.5,0.7c0.2,0,0.4,0.1,0.6,0.2c0.1,0.1,0.3,0.1,0.4,0.2c0.1,0.1,0.1,0.2,0.1,0.3c0,0.1-0.1,0.2-0.2,0.2
		c-0.1,0.1-0.2,0.1-0.4,0c-0.9-0.1-1.8-0.1-2.8-0.2c-0.9,0-1.9,0-3,0c-1.1,0.1-2.4,0.2-3.7,0.4c-0.8,1.7-1.6,3.4-2.2,5.1
		c-0.6,1.7-1.2,3.3-1.6,4.7s-0.8,2.6-1,3.6c-0.2,1-0.3,1.6-0.3,1.8c0,0.4-0.1,0.7-0.2,0.8c-0.1,0.1-0.3,0.2-0.4,0.1
		c-0.2,0-0.3-0.1-0.5-0.3c-0.2-0.2-0.3-0.3-0.5-0.5c-0.1-0.1-0.2-0.3-0.2-0.5c0-0.2,0-0.4,0-0.6c0-0.2,0.1-0.5,0.1-0.8
		c0.2-1,0.4-2.1,0.7-3.2s0.6-2.2,1-3.3c0.4-1.1,0.8-2.2,1.1-3.3s0.8-2.1,1.2-3c-0.1,0-0.3,0.1-0.4,0.1s-0.3,0.1-0.5,0.1
		c-0.4,0.1-0.7,0.2-1,0.2c-0.2,0-0.5,0-0.6-0.1s-0.2-0.2-0.2-0.5c0.2-0.3,0.4-0.7,0.7-1c0.3-0.3,0.6-0.5,1-0.8
		c0.4-0.2,1-0.4,1.6-0.4c0.1,0,0.1,0,0.2,0s0.1,0,0.1,0c0.3-0.7,0.6-1.3,0.8-1.8c0.2-0.5,0.4-0.8,0.5-1.1c0.2-0.4,0.4-0.7,0.7-0.9
		c0.3-0.2,0.6-0.4,0.9-0.4s0.6-0.1,0.9-0.1s0.5,0.1,0.7,0.1c0.2,0.1,0.4,0.3,0.5,0.5c0.1,0.2,0.1,0.4,0,0.6
		c-0.1,0.1-0.1,0.3-0.2,0.4c-0.1,0.1-0.1,0.1-0.2,0.1C152.3,35.2,151.9,35.6,151.7,36z M145.1,47.6c0.2-0.7,0.4-1.4,0.6-2
		c0.2-0.6,0.4-1.3,0.6-1.9s0.4-1.2,0.6-1.8c0.2-0.6,0.4-1.3,0.6-1.9c-0.7,1.5-1.2,3.1-1.8,4.6c-0.2,0.7-0.5,1.3-0.7,2
		c-0.2,0.7-0.4,1.4-0.6,2.1c-0.2,0.7-0.4,1.4-0.5,2.1s-0.2,1.3-0.3,1.9c0.1-0.5,0.2-1,0.4-1.5c0.1-0.5,0.2-1,0.4-1.6
		C144.7,48.9,144.9,48.3,145.1,47.6z M151.4,33.6c-0.3,0-0.6,0-0.8,0.2c-0.2,0.2-0.4,0.3-0.5,0.5c-0.1,0.2-0.2,0.5-0.3,0.7
		c0.1-0.2,0.3-0.4,0.5-0.6c0.2-0.2,0.3-0.3,0.5-0.4C151,33.8,151.2,33.7,151.4,33.6z"/>
	<path class="st0" d="M148.6,46.5c0.1-0.2,0.1-0.3,0.2-0.5c0.1-0.2,0.1-0.3,0.2-0.4c0.1-0.1,0.1-0.3,0.2-0.4c0-0.1,0.1-0.3,0.2-0.4
		c0.1-0.2,0.3-0.2,0.5-0.2c0.1,0,0.3,0.1,0.5,0.2s0.4,0.3,0.6,0.5c0.2,0.2,0.3,0.5,0.4,0.8c0.1,0.3,0,0.7-0.1,1.2
		c-0.1,0.4-0.3,0.8-0.4,1.2c-0.2,0.4-0.3,0.8-0.4,1.1c-0.4,1.2-0.7,2.1-0.8,2.8c-0.1,0.7-0.1,1,0.1,1.2h0c0.1,0,0.1,0.1,0.2,0.2
		c0.1,0.2,0.1,0.3,0,0.5c-0.1,0.1-0.2,0.2-0.3,0.3c-0.2,0.1-0.3,0.1-0.5,0.2c-0.2,0-0.4,0-0.6,0c-0.2,0-0.4-0.1-0.5-0.2
		c-0.1,0-0.2-0.1-0.2-0.2c-0.1-0.1-0.1-0.2-0.2-0.3c-0.1-0.1-0.1-0.2-0.2-0.3c-0.1-0.2-0.1-0.3-0.1-0.5c0-0.2-0.1-0.3-0.1-0.4
		c0-0.1,0-0.3,0-0.4c0-0.3,0.1-0.8,0.2-1.2c0.1-0.5,0.2-1,0.4-1.5s0.3-1,0.5-1.5C148.2,47.4,148.4,47,148.6,46.5z M148.8,48
		c0.2-0.5,0.3-1,0.4-1.3c0.1-0.4,0.2-0.7,0.3-1.1c-0.4,0.8-0.7,1.6-1,2.4c-0.2,0.7-0.4,1.3-0.6,2.1c-0.2,0.7-0.2,1.3-0.1,1.8
		c0.1-0.4,0.2-0.8,0.2-1.2c0.1-0.4,0.2-0.8,0.3-1.2C148.5,48.9,148.6,48.5,148.8,48z M153.3,40.3c0.2,0.1,0.3,0.2,0.4,0.4
		c0.1,0.1,0.1,0.3,0,0.4c0,0.1-0.1,0.2-0.2,0.3c0,0.1-0.1,0.1-0.1,0.2c-0.3,0.3-0.5,0.7-0.7,1c-0.2,0.4-0.4,0.6-0.5,0.8
		c0,0.1-0.1,0.2-0.2,0.3s-0.2,0.2-0.3,0.4c-0.1,0.1-0.2,0.2-0.3,0.3c-0.1,0.1-0.3,0.1-0.4,0c-0.4-0.2-0.7-0.4-0.8-0.7
		c-0.1-0.1-0.1-0.2-0.1-0.4c0-0.2,0-0.3,0.1-0.5c0-0.2,0.1-0.3,0.1-0.4s0.1-0.2,0.1-0.3c0-0.2,0.1-0.3,0.1-0.4
		c0-0.1,0.1-0.2,0.1-0.2c0.1-0.3,0.3-0.6,0.5-0.8c0.2-0.2,0.5-0.4,0.7-0.4c0.3-0.1,0.5-0.1,0.8-0.1
		C152.9,40.2,153.1,40.2,153.3,40.3z M150.6,43.1c0.1-0.4,0.3-0.7,0.4-1c0.2-0.3,0.3-0.6,0.5-0.8c0.2-0.2,0.4-0.5,0.6-0.7
		c-0.3,0-0.5,0.2-0.7,0.5c-0.2,0.3-0.3,0.5-0.5,0.8C150.8,42.3,150.7,42.7,150.6,43.1z"/>
	<path class="st0" d="M160.9,39.7c0.4-0.2,0.8-0.3,1.2-0.3c0.4,0.1,0.7,0.2,1,0.4s0.5,0.4,0.6,0.6c0.1,0.2,0.2,0.4,0.1,0.6
		c0,0.2-0.1,0.3-0.2,0.4c-0.1,0.1-0.2,0.1-0.3,0.1c-0.1,0-0.2,0-0.3-0.1c-0.4-0.1-0.8,0-1.2,0.3c-0.4,0.3-0.9,0.7-1.3,1.3
		c-0.5,0.6-0.9,1.2-1.4,2c-0.5,0.8-0.9,1.6-1.4,2.4c-1,1.9-2.1,4.1-3.2,6.6c0,0.1-0.1,0.2-0.2,0.3c-0.1,0.1-0.1,0.2-0.2,0.3
		c-0.2,0.3-0.4,0.4-0.6,0.4c-0.2,0-0.4-0.1-0.7-0.3c-0.2-0.2-0.4-0.4-0.4-0.7c-0.1-0.3-0.1-0.6-0.1-0.9c0-0.3,0.1-0.6,0.1-0.8
		s0.1-0.4,0.1-0.4c0.2-0.6,0.3-1.1,0.4-1.6c0.1-0.4,0.2-0.8,0.2-0.9c0.2-1.3,0.4-2.4,0.4-3.3c0.1-0.9,0.1-1.7,0.1-2.4
		c0-0.7-0.1-1.4-0.2-1.9c0-0.1,0-0.1,0-0.2c0-0.1,0.1-0.2,0.2-0.3c0.2-0.2,0.5-0.2,0.8-0.1c0.4,0.1,0.6,0.3,0.9,0.6
		c0.4,0.4,0.6,1,0.7,1.6c0.1,0.6,0.1,1.2,0.1,1.7c0,1.1-0.1,2.2-0.3,3.3c0.6-1.5,1.1-2.7,1.6-3.7c0.5-1,1-1.9,1.4-2.6
		c0.4-0.7,0.8-1.2,1.2-1.6C160.4,40.1,160.7,39.8,160.9,39.7z M153.8,49.8c0.2-0.6,0.4-1.3,0.5-2c0.1-0.6,0.2-1.3,0.2-2.1
		c0-0.8-0.1-1.7-0.3-2.6c0.1,0.6,0.1,1.3,0.1,2c0,0.6,0,1.3-0.1,2.1C154.1,48,154,48.9,153.8,49.8z M157.5,45.6
		c0.9-1.5,1.7-2.7,2.3-3.5c0.6-0.8,1.1-1.3,1.5-1.7c0.4-0.4,0.8-0.6,1.1-0.6c-0.3-0.1-0.5-0.1-0.8,0c-0.3,0.1-0.6,0.3-0.8,0.5
		c-0.3,0.2-0.5,0.5-0.8,0.9s-0.5,0.7-0.8,1.1C158.6,43.4,158.1,44.4,157.5,45.6z"/>
	<path class="st0" d="M167.6,46.9c0,0.4,0,0.8-0.2,1.1s-0.3,0.7-0.5,1.2c-0.5,1-0.8,1.8-0.9,2.3c-0.1,0.5-0.1,0.8,0.1,1
		c0,0,0,0,0.1,0c0,0,0.1,0,0.1,0c0,0,0.1,0,0.2,0c0.1,0,0.2,0.1,0.3,0.1c0.1,0.1,0.2,0.1,0.2,0.3c0,0.1,0,0.2-0.1,0.4
		c-0.4,0.3-0.8,0.5-1.3,0.4c-0.5-0.1-0.8-0.3-1.1-0.6c-0.2-0.3-0.4-0.6-0.4-1c0-0.4-0.1-0.7-0.1-0.9c-0.4,0.4-0.8,0.8-1.2,1.2
		c-0.4,0.4-0.8,0.7-1.2,1c-0.4,0.3-0.7,0.6-1.1,0.7c-0.4,0.2-0.7,0.3-0.9,0.3c-0.6,0-1.1-0.2-1.4-0.7s-0.5-1-0.4-1.7
		c0-0.7,0.2-1.3,0.4-2.1c0.3-0.7,0.6-1.5,1-2.2c0.4-0.7,0.9-1.4,1.4-2c0.5-0.6,1-1.2,1.5-1.7c0.5-0.5,1-0.8,1.5-1.1
		c0.5-0.2,0.9-0.3,1.3-0.3c0.6,0.1,1.1,0.3,1.4,0.6s0.6,0.6,0.7,1s0.2,0.6,0.1,0.9c0,0.3-0.2,0.4-0.3,0.4c-0.2,0-0.3,0-0.3,0
		c-0.1-0.1-0.1-0.1-0.1-0.2c0-0.1,0-0.1-0.1-0.2c0-0.1-0.1-0.1-0.1-0.2c-0.1-0.1-0.2-0.1-0.3-0.1s-0.3,0.1-0.5,0.2
		c-0.2,0.1-0.4,0.3-0.7,0.5c-0.3,0.3-0.6,0.6-1,1.1c-0.4,0.4-0.8,1-1.2,1.7c-0.4,0.7-0.8,1.3-1.2,2c-0.3,0.6-0.6,1.2-0.8,1.7
		s-0.2,0.7,0,0.7c0.1,0,0.3-0.1,0.6-0.2c0.3-0.2,0.6-0.4,0.9-0.8c0.3-0.3,0.7-0.7,1.1-1.1c0.4-0.4,0.8-0.8,1.2-1.3
		c0.4-0.4,0.7-0.9,1-1.3c0.3-0.4,0.5-0.8,0.7-1.1c0-0.1,0-0.2,0-0.3c0-0.1,0-0.2,0-0.3c0,0,0-0.1,0-0.2c0-0.1,0.1-0.2,0.2-0.3
		c0.1-0.1,0.3-0.1,0.5-0.1c0.2,0,0.3,0,0.5,0.1c0.2,0.1,0.3,0.2,0.4,0.4C167.5,46.5,167.6,46.7,167.6,46.9z M158.5,52.9
		c0-0.4,0.1-0.9,0.3-1.5c0.1-0.5,0.4-1.1,0.7-1.7c0.3-0.7,0.7-1.5,1.3-2.4s1.1-1.6,1.6-2.1s1-0.8,1.4-1.1c0.5-0.3,0.9-0.4,1.3-0.5
		c0-0.1-0.2-0.1-0.5-0.2c-0.3,0-0.6,0.1-1,0.3c-0.4,0.2-0.9,0.6-1.5,1.1s-1.2,1.3-1.8,2.3c-0.6,1-1.1,1.9-1.3,2.6s-0.4,1.3-0.5,1.8
		C158.4,52,158.4,52.5,158.5,52.9z"/>
	<path class="st0" d="M177.1,33.2c0.3,0.1,0.5,0.2,0.6,0.4c0.1,0.2,0.2,0.4,0.2,0.6c0,0.1-0.1,0.3-0.2,0.4c-0.1,0.1-0.1,0.1-0.2,0.2
		c-0.3,0.3-0.5,0.6-0.7,0.9c-0.2,0.3-0.4,0.5-0.5,0.8c-0.2,0.2-0.3,0.5-0.5,0.7c-0.6,1.1-1.2,2.2-1.7,3.4c-0.5,1.1-1,2.2-1.5,3.3
		c-0.4,1.1-0.9,2.2-1.2,3.2c-0.4,1-0.7,2-1,2.8c-0.1,0.3-0.2,0.6-0.3,0.9c-0.1,0.3-0.2,0.6-0.2,0.8c-0.3,1.2-0.4,1.8-0.2,2l0.1,0.1
		l0.1,0.1c0.1,0.2,0.1,0.3,0,0.4c-0.1,0.2-0.4,0.4-0.6,0.5c-0.2,0-0.3,0-0.4,0c-0.1,0-0.2-0.1-0.3-0.1c-0.1-0.1-0.2-0.1-0.3-0.2
		c-0.2-0.2-0.3-0.4-0.3-0.6c-0.1-0.2-0.1-0.4-0.2-0.6c0-0.2-0.1-0.4,0-0.6c0-0.4,0.1-1,0.2-1.6c0.1-0.5,0.2-1.1,0.4-1.7
		c0.2-0.6,0.3-1.1,0.5-1.6c0.4-1.5,0.9-2.9,1.5-4.4s1-2.8,1.5-4c0.5-1.2,0.9-2.2,1.3-3.1c0.4-0.9,0.6-1.4,0.8-1.7
		c0.2-0.4,0.4-0.7,0.7-0.9s0.6-0.4,0.9-0.4s0.6-0.1,0.9-0.1C176.7,33.1,176.9,33.1,177.1,33.2z M170.3,45.5c0.7-1.8,1.2-3.3,1.7-4.5
		c0.5-1.2,0.8-2.2,1.2-3.1c-0.8,1.9-1.6,3.8-2.3,5.5c-0.3,0.7-0.6,1.5-0.9,2.3c-0.3,0.8-0.5,1.6-0.8,2.3c-0.2,0.7-0.4,1.5-0.6,2.1
		c-0.1,0.7-0.2,1.2-0.2,1.7c0.1-0.6,0.3-1.3,0.5-2c0.2-0.6,0.4-1.3,0.6-2S170,46.3,170.3,45.5z"/>
</g>
</svg>
