<?xml version="1.0" encoding="utf-8"?>
<!-- Generator: Adobe Illustrator 22.1.0, SVG Export Plug-In . SVG Version: 6.00 Build 0)  -->
<svg version="1.1" id="Layer_1" xmlns="http://www.w3.org/2000/svg" xmlns:xlink="http://www.w3.org/1999/xlink" x="0px" y="0px"
	 viewBox="0 0 263 263" style="enable-background:new 0 0 263 263;" xml:space="preserve">
<style type="text/css">
	.st0{fill:#221F20;}
	.st1{fill:#EEE037;}
	.st2{fill:#221F20;stroke:#EEE037;stroke-miterlimit:10;}
	.st3{fill:#221F20;stroke:#EEE037;stroke-width:0.75;stroke-miterlimit:10;}
	.st4{fill:#221F20;stroke:#EEE037;stroke-width:2;stroke-miterlimit:10;}
	.st5{display:none;fill:#221F20;stroke:#EEE037;stroke-miterlimit:10;}
	.st6{fill:none;stroke:#EEE037;stroke-miterlimit:10;}
	.st7{display:none;}
	.st8{display:inline;fill:#F1F1F2;stroke:#EEE037;stroke-miterlimit:10;}
	.st9{display:inline;fill:none;stroke:#EEE037;stroke-width:0.75;stroke-miterlimit:10;}
	.st10{fill:#FFFFFF;}
</style>
<g>
	<circle class="st0" cx="131.8" cy="131.5" r="131.2"/>
	<circle class="st1" cx="131.8" cy="131.5" r="125.3"/>
	<circle class="st0" cx="131.8" cy="131.5" r="118"/>
	<g>
		<path class="st2" d="M212.1,141.3c0,0,0.1,0,0.1,0c0.2-0.2,0.3-0.5,0.5-0.7c1.2-1.4,2.1-1.5,2.8-0.9c0.5-0.3,1-0.7,1.6-1
			c4.7-4.4,8.5-9.5,12.2-14.7c0.9-1.5,1.1-3.6,2.6-4.2c13.9-5.1,9-7.7,15.4-16.8c-0.4-0.1-4.6-2.7-5.1-2.8c-2-0.2-6.6,1.6-9,2.8
			c-2.4,1.2-4.3-2.1-5.9-3.7c-1.6-1.6-13.4-8.2-15.5-9.1c-2.1-0.9-7.5-5.1-8.6-4.9c-1.1,0.2-2.1,1.4-4.2,1.9
			c-2.1,0.5-5.2,1.9-6.3,2.3c-1.2,0.5-8.5,1.2-10.9,0.7c-2.4-0.5-7-0.7-8-2.1c-1.1-1.4-11.2-4.2-12.6-5.4c-1.3-1.2-3.7-4.7-5.6-5.8
			c-1.9-1.2-7.8-5.1-7.2-6.3c0.5-1.2-4.6-3-7.1-4.2c-2.6-1.2-4.6-4-5.5-5.4c-0.9-1.4-4.5-1.4-6.1-0.9c-1.6,0.5-2.7,2.1-4,1.6
			c-1.3-0.5-2.9-2.3-2.9-2.3s-2.1-1.2-2.9,0c-0.8,1.2-3.2,3.7-4.8,5.6c-1.6,1.9-2.7,2.1-4.3,2.6c-1.6,0.5-2.4,1.2-2.9,3
			s-2.7,2.2-4.6,2.4c-1.9,0.2-4-2.1-5.6-2.3s-6.4,0-6.4,0s-3.2,0.9-4.3,0.2c-1.1-0.7-2.9,0.5-3.7,1.6c-0.8,1.2-3.7,2.1-5.4,3.5
			c-1.6,1.4-2.7,2.8-2.7,2.8s-1.9,0-2.1,1.2c-0.3,1.2-10.7,10.7-12.6,11.2c-1.9,0.5-3.7,1.2-6.4,1.9c-2.7,0.7-4.6,0-7,1.4
			c-2.4,1.4-5.9,1.2-8.8,1.6c-2.9,0.5-3.7,2.1-5.2,2.3c-1.5,0.2-4.1,1.4-5.5,2.8c-1.3,1.4-6.2,2.8-8,4.2c-1.9,1.4-4,1.2-5.6,3.3
			c0,0,0,38.1,1.3,39.5s0.8,3.3,3.2,5.1s1.9-1.9,3.7-0.5c1.9,1.4,1.9,0.2,4,0.5c2.1,0.2,1.3-3,3.5-4c2.1-0.9,6.4,1.2,9.1,3.5
			c2.7,2.3,0,0,4.8,0.9c2.7-0.9,0,0,0-1.2c0-1.2,2.9,0,4.3,0.9c1.3,0.9,1.6,0.5,1.6,1.9s4.6-0.5,7-0.2c2.4,0.2,6.7-0.5,6.7-0.5
			s0,0,1.1-2.1c0,0,6.2-1.2,9.9,0.9c3.7,2.1,4.3-1.4,7.2-1.2c2.9,0.2,8.6-1.2,12.3,0.2c3.7,1.4,1.3-8.9,2.1-6.5
			c0.8,2.3,3.2,1.6,5.6,1.9c2.4,0.2,4.6,0,5.9,0.5c1.3,0.5,3.5-3.5,5.9-4.4c2.4-0.9,2.9-3,3.7-2.8c0.8,0.2,6.2,0.9,7,0
			c0.8-0.9,2.4-2.6,3.5-2.3c1.1,0.2,3.2-1.4,4.6-0.5c1.3,0.9,2.9-1.4,3.9-2.6c1-1.2,4.7-1.6,4.7-1.6l3.4,3.3l4.3-0.2
			c0,0,2.4-1.4,2.4,0c0,1.4,4,1.4,5.1,1.6c1.1,0.2,2.9,2.8,6.2,5.4s4.3-0.9,5.1-1.9c0.8-0.9,3.2-0.2,3.7,0.7
			c0.5,0.9,3.7-0.5,4.6-0.9c0.8-0.5,2.4-1.4,4.3-0.2c1.9,1.2,2.7,0,3.6-1.2c0.9-1.2,1.5-0.9,3.7-0.7c2.2,0.2,0.7,2.1,1.6,4.7
			s3.2,1.9,5.3,3.3c2.1,1.4,3.3,1.9,5.5,2.3c2.2,0.5,2.6-1.4,3.4-3c0.6-1.3,3.2-1.5,4.9-1.3C208.1,144,209.6,142.2,212.1,141.3z"/>
		<path class="st2" d="M38.1,96c-0.3,2.8,1.9,4.9,4,5.4c2.1,0.5,5.9,4.9,6.7,4.9c0,0,6.2,3,9.1,5.8c2.9,2.8,22,19.4,23.3,20.5
			c1.3,1.2,3.5,2.1,4.8,4.4c1.3,2.3,4.3,3.5,6.2,4c1.9,0.5,3.5,4.9,3.5,4.9"/>
		<path class="st2" d="M105.6,72.4c-1.9,4-3.7,4.2-4.8,5.4s0,1.9-2.1,2.6c-2.1,0.7-8,3-9.1,4.9c-1.1,1.9-3.7,2.1-5.1,3
			c-1.3,0.9-1.6,2.3-3.7,3.5s-5.6,5.1-7.5,4.2s-2.1,2.1-3.2,2.8s-4,2.3-4.6,3.7c-0.5,1.4-2.4,2.6-4,3.7c-1.6,1.2-3.5,5.8-3.5,5.8"/>
		<path class="st2" d="M75.7,95.5c-0.1,2,0.1,5.5,2.3,5.5s3.7,0.9,3.7,0c0-0.9,0.8,0.9,2.7,2.1c1.9,1.2,6.4,2.3,7.5,3.5
			c1.1,1.2,2.9,3,1.9,4s-1.1,1.9-2.1,3.3s-2.1,4-1.3,5.4c0.8,1.4,0.8,3.5,0.3,4.9c-0.5,1.4-2.1,3.5-1.3,4.4c0.8,0.9,1.9,2.8,1.1,4.2
			c-0.8,1.4,0.5,4.7,0.5,4.7l1.3,3.7"/>
		<path class="st2" d="M203.4,85.3c-1.3,2.3-3.7,2.6-5.4,5.4s-5,6.1-5.2,8.2c-0.2,2.1-1.5,4.9-2.6,5.4c-1.1,0.5-5.4,2.2-4.8,5.1
			c0.5,2.9-0.9,4-2.3,5.7c-1.4,1.6-2.8,2.3-3.9,4.4c-1.1,2.1-0.8,4.7-1.6,5.6s-0.5,2.8-2.9,3.5c-2.4,0.7-2.9,2.1-4.6,3.3
			c-1.6,1.2-4,2.6-3.5,4.7c0.5,2.1-0.4,3-1.8,3.7c-1.4,0.7-3,4-3,4"/>
		<path class="st2" d="M177.7,125c3.2-0.9,4,0.9,6.7,0s5.1-1.9,6.4-4c1.3-2.1,2.1-1,4.6-2.7c2.4-1.7,0.4-1.3,3.8-3.4
			s3.1-2.1,5.3-4.2c2.1-2.1,4.5-2.6,6.4-4.2"/>
		<path class="st2" d="M233.4,103c-7.5,12.4-23,21.3-26.1,35.7"/>
		<path class="st2" d="M227.5,99.3c-2.4,2.6-3.5,2.1-5.2,3.7c-1.7,1.6-1.7,4.1-2.5,6.3c-0.8,2.2,0.5,3.6-2.1,5.4
			c-2.7,1.9-3.7-0.1-4.3,3.6c-0.5,3.7-1.3,3.7-2.4,6s0,6.1,0,6.1"/>
		<path class="st2" d="M137.5,74.1c-1.3,0.2-1.2,3-3.3,4s-4.2,1.2-4.5,3.7c-0.3,2.6-0.3,3.5-1.6,5.1c-1.3,1.6-0.3,1.9-2.1,3
			s-1.9,3-3.7,3.7"/>
		<path class="st2" d="M127.8,68.7c-0.5,1.4-1.6,1.8-2.9,3.7c-1.3,1.9-3.5,4-2.7,5.6c0.8,1.6,0.3,3-1.3,3.5
			c-1.6,0.5-0.3,1.4-2.4,2.3"/>
		<path class="st2" d="M13.8,115.9c2.9-0.3,4.3,1.4,6.4-1.2s4.6-0.7,6.2-2.6s-0.5,1.6,1.6-1.9s4.8-3.5,6.4-5.4
			c1.6-1.9,3.7-1.9,3.7-1.9"/>
		<path class="st2" d="M44.6,111c-0.8,1.6-0.8,3.9,0,5.2c0.8,1.3,3.7,2,4.8,4.8c1.1,2.8,3.5,4.2,3.5,6.3s-1.3,2.8,1.9,5.4
			c3.2,2.6,4.3,2.6,6.7,4.4s1.3,1.2,3.5,4.3c2.1,3.2,5.4,2.2,5.1,4.6c-0.3,2.3-0.5,4.7,2.4,4.2"/>
	</g>
	<g>
		<path class="st2" d="M157.7,158.6c2.6,1.6,4.8,2.4,5.7,2.4s19-0.3,21.1-2.4c2.1-2,3.8-0.9,5.8-7.5c2-6.7-21.8-14.8-26.3-11.7
			C159.6,142.5,157.7,158.6,157.7,158.6z"/>
		<path class="st3" d="M102.9,158.9c-1.7,0.5-4.8,0.8-4.9,1.2c-0.1,0.3-19.7-1.2-20.2-1.8c-0.5-0.5-3.3,0.2-3.5-2.7
			s3.8-15.4,5.3-14.1s21.6,2.1,21.6,2.1L102.9,158.9z"/>
		<path class="st4" d="M64.7,157.7c-1.1-1.1-0.6-61.6,0-62.5c0.6-0.9,112.7-0.6,114.6,0c0.9,1.5,0,5.6,0,5.6
			c1.1,2.7,6.7,21.9,6.7,21.9l9.3,5.2l-0.8,24c-2,0.6-4.7,1.2-6.7-1.7c-1.2-4.7-14.6-14.1-23.7-1.7c-2.4,3.2-3.2,12.6-6.8,11.4
			c-4.3,0-53.7-1.1-54.3-1.1c-0.6,0-4.4-12.3-4.4-12.3l-19.2-0.2l-3.7,11.3H64.7z"/>
		<path class="st4" d="M64.7,95.2c0.8-0.9-0.5-4.5,5.8-4.6s98.1-0.9,103.7,0s5.1,4.6,5.1,4.6H64.7z"/>
		<path class="st4" d="M191.7,150.2c-0.3,0.8-0.5,5.8,0,6.3c0.5,0.5,4,1.8,5.4-0.8s0.1-4,0.6-4.9c0.9-1.4-3.1-2.4-3.1-2.4
			c1.5,0.5,1.1,1.1,1.1,1.1C194.1,150.3,191.7,150.2,191.7,150.2z"/>
		<path class="st4" d="M196.1,136.4c3.6,1.8,3.4,8.2-0.3,9.9C195.9,142.3,196.1,136.4,196.1,136.4z"/>
		<circle class="st2" cx="174.5" cy="157.3" r="10.3"/>
		<circle class="st2" cx="88.5" cy="158.5" r="10"/>
		<circle class="st2" cx="174.5" cy="157.3" r="6.1"/>
		<circle class="st2" cx="88.5" cy="158.4" r="5.9"/>
		<circle class="st5" cx="61.5" cy="180.9" r="10.5"/>
		<circle class="st5" cx="118.3" cy="177.8" r="6.8"/>
		<line class="st6" x1="135.8" y1="155.4" x2="158.1" y2="155.8"/>
		<path class="st6" d="M64.1,101c0,0,94.8,0.2,98.5,0.2c0,1.5-0.7,45.7-0.7,45.7l-4.6,12.8"/>
		<path class="st6" d="M179.2,100.8c-1.4,0.3-15.1,0-15.1,0c-0.5,0.8-1.5,0.4-1.5,0.4"/>
		<line class="st6" x1="190.7" y1="126.8" x2="190.2" y2="149.7"/>
		<path class="st4" d="M135.4,139.5v19l-32.6-0.7l-4.4-12.3l-19.2-0.2l-3.7,11.3h-8.7c0,0,0.5-17.7,0.5-18.3
			C67.4,137.8,134,139.2,135.4,139.5z"/>
		<g>
			<path class="st4" d="M134.6,108.2c-0.1,1,0,9,0,10.4c0,2.4,0.2,4.5,4,4.6c3.7,0.1,15.7,0.3,15.7,0.3c2.7,0,3.8-2.3,3.9-4.5
				c0.1-2.2,0-9.7,0-10.8c0-3-2.1-4-4.5-4c-2.4,0-15.3,0-15.3,0C136,104.2,134.6,105.4,134.6,108.2z"/>
			<g>
				<path class="st1" d="M150.7,110.1c-0.8,1.3-1.8,2.4-2.8,3.4c-1.1,1-2.2,2-3.5,2.7c0.8-1.3,1.8-2.4,2.8-3.4
					C148.3,111.7,149.4,110.8,150.7,110.1z"/>
			</g>
			<g>
				<path class="st1" d="M148.1,108.6c-0.8,1.3-1.8,2.4-2.8,3.4c-1.1,1-2.2,2-3.5,2.7c0.8-1.3,1.8-2.4,2.8-3.4
					C145.7,110.2,146.8,109.3,148.1,108.6z"/>
			</g>
			<g>
				<path class="st1" d="M145.3,107c-0.8,1.3-1.8,2.4-2.8,3.4c-1.1,1-2.2,2-3.5,2.7c0.8-1.3,1.8-2.4,2.8-3.4
					C142.9,108.7,144,107.8,145.3,107z"/>
			</g>
		</g>
		<g>
			<path class="st4" d="M164.2,105.8c-0.1,0.9-0.2,15,0,16c0.2,1,0,2.9,4.6,2.8c4.6-0.1,12.6,0,12.6,0c1.4-0.5,2.9-1.4,2.1-4
				c-0.8-2.7-4.6-14.8-4.6-14.8c-1-2-1.6-2.5-3.9-2.6c-2.3-0.1-8.6,0-8.6,0C165.1,103.7,164.5,104.2,164.2,105.8z"/>
			<g>
				<path class="st1" d="M173.8,106.3c-0.8,1.3-1.8,2.4-2.8,3.4c-1.1,1-2.2,2-3.5,2.7c0.8-1.3,1.8-2.4,2.8-3.4
					C171.4,108,172.5,107,173.8,106.3z"/>
			</g>
			<g>
				<path class="st1" d="M176,108.1c-0.9,1.3-1.9,2.4-3,3.4c-1.1,1-2.3,1.9-3.7,2.7c0.8-1.3,1.9-2.4,3-3.4
					C173.4,109.8,174.6,108.8,176,108.1z"/>
			</g>
			<g>
				<path class="st1" d="M177.9,111.2c-1,1.3-2.1,2.3-3.2,3.3c-1.2,1-2.4,1.9-3.9,2.6c0.9-1.3,2-2.3,3.2-3.3
					C175.1,112.8,176.4,111.8,177.9,111.2z"/>
			</g>
		</g>
		<g class="st7">
			<rect x="107.6" y="98.4" class="st8" width="27" height="18"/>
			<path class="st9" d="M109.8,102.2c1.5,0,22.3,0,22.3,0"/>
			<line class="st9" x1="109.8" y1="105" x2="132.1" y2="105"/>
			<line class="st9" x1="109.8" y1="107.4" x2="132.1" y2="107.4"/>
			<line class="st9" x1="110" y1="110.1" x2="132.3" y2="110.1"/>
			<line class="st9" x1="109.8" y1="112.7" x2="132.1" y2="112.7"/>
		</g>
		<g class="st7">
			<rect x="107.2" y="121.5" class="st8" width="27.7" height="11.8"/>
			<line class="st9" x1="109.9" y1="125" x2="132.2" y2="125"/>
			<line class="st9" x1="109.9" y1="127.4" x2="132.2" y2="127.4"/>
			<line class="st9" x1="109.9" y1="130.2" x2="132.2" y2="130.2"/>
		</g>
	</g>
	<g>
		<path class="st10" d="M83.9,63.9c0.1,0,0.1-0.5-0.1-1.4c-0.2-0.9-0.5-2-0.8-3.4s-0.8-3-1.3-4.7c-0.5-1.8-1-3.6-1.6-5.4
			c-0.5-1.9-1.1-3.7-1.6-5.4c-0.5-1.8-1-3.4-1.4-4.8c-0.4-1.4-0.8-2.6-1-3.4c-0.3-0.9-0.4-1.4-0.4-1.4c0-0.2,0-0.4,0-0.6
			c0-0.2,0.1-0.3,0.4-0.4c0.1,0,0.3-0.1,0.7-0.2c0.3-0.1,0.7-0.2,1-0.3c0.4-0.1,0.7-0.1,1,0c0.3,0.1,0.5,0.2,0.6,0.5
			c0.1,0.1,0.2,0.7,0.5,1.6c0.3,0.9,0.6,2.1,1,3.5c0.4,1.4,0.8,3,1.3,4.8c0.5,1.8,1,3.6,1.5,5.5c0.5,1.9,1,3.8,1.4,5.6
			c0.5,1.9,0.9,3.6,1.2,5.2c0.4,1.6,0.6,2.9,0.9,4c0.2,1.1,0.3,1.9,0.3,2.3c0,0.5-0.2,1-0.5,1.4c-0.3,0.4-0.7,0.8-1.2,1.1
			s-0.9,0.5-1.4,0.7c-0.5,0.1-0.9,0.2-1.2,0.1c-0.5-0.1-1-0.5-1.6-1.2c-0.6-0.7-1.3-1.5-1.9-2.5c-0.7-1-1.3-2-2-3.2
			c-0.7-1.1-1.3-2.2-1.8-3.3c-0.6-1.1-1-2-1.4-2.8c-0.4-0.8-0.7-1.4-0.8-1.7c0.1,0.9,0.2,1.9,0.3,3.1c0.1,1.1,0.2,2.2,0.2,3.4
			c0.1,1.1,0.1,2.2,0.2,3.2c0.1,1,0.1,2,0.2,2.8c0,0.8,0.1,1.7,0.1,2.8c0,0.4-0.2,0.8-0.7,1.3c-0.4,0.5-0.9,0.8-1.6,1
			s-1.3,0.2-2-0.1c-0.7-0.3-1.3-0.9-1.9-2c-0.2-0.3-0.5-1-0.9-1.9c-0.4-0.9-0.9-2-1.5-3.3c-0.5-1.3-1.1-2.7-1.8-4.2
			c-0.6-1.5-1.3-3.1-1.9-4.6c-0.7-1.6-1.3-3.1-1.9-4.6c-0.6-1.5-1.2-2.8-1.7-4.1c-0.5-1.2-0.9-2.2-1.2-3c-0.3-0.8-0.5-1.3-0.6-1.5
			c-0.2-0.4-0.1-0.8,0.3-1c0.4-0.2,0.8-0.3,1.2-0.4c0.4,0,0.9,0,1.3,0.1s0.8,0.3,1.1,0.6c0.4,0.3,0.6,0.6,0.8,1
			c0.1,0.2,0.3,0.8,0.6,1.6c0.3,0.8,0.7,1.8,1.1,3c0.4,1.2,0.9,2.5,1.5,3.9c0.5,1.4,1.1,2.9,1.7,4.3c0.6,1.5,1.1,2.9,1.7,4.2
			c0.5,1.4,1,2.6,1.5,3.6c0.4,1,0.8,1.9,1.1,2.5c0.3,0.6,0.5,0.9,0.6,0.9c0.3-0.1,0.4-0.7,0.3-1.8c0-1.1-0.1-2.5-0.3-4.1
			c-0.2-1.6-0.4-3.4-0.6-5.2c-0.3-1.9-0.5-3.6-0.8-5.3c-0.3-1.6-0.5-3-0.7-4.2C69.1,44.9,69,44.2,69,44c0-0.6,0.1-1,0.4-1.2
			c0.3-0.2,0.6-0.3,1-0.3c0.4,0,0.8,0.1,1.3,0.2c0.5,0.2,0.9,0.3,1.2,0.5c0,0,0.3,0.6,0.9,1.7c0.5,1.1,1.2,2.4,1.9,3.9
			c0.8,1.6,1.6,3.2,2.4,5c0.9,1.8,1.7,3.5,2.5,5c0.8,1.5,1.5,2.8,2.1,3.8C83.3,63.6,83.7,64,83.9,63.9z"/>
		<path class="st10" d="M100.7,48.7c0.6,0.5,0.9,1.1,1.1,1.8c0.2,0.6,0.1,1.3-0.2,1.9c-0.3,0.6-0.7,1.2-1.1,1.9
			c-0.5,0.7-1,1.3-1.5,1.9c-0.5,0.6-1.1,1.1-1.7,1.6c-0.6,0.5-1.1,0.8-1.5,0.9c-1.2,0.5-2.3,0.6-3.3,0.4c-1-0.2-1.8-0.7-2.5-1.4
			c-0.7-0.7-1.2-1.6-1.7-2.6c-0.4-1.1-0.7-2.2-0.9-3.4c-0.2-1.1-0.2-2.2,0-3.2c0.2-1,0.5-2,1-2.8c0.4-0.9,0.9-1.6,1.4-2.2
			c0.5-0.6,0.9-1.1,1.3-1.5c0.5-0.4,1.1-0.6,1.7-0.5c0.6,0.1,1.3,0.4,1.8,0.9c0.6,0.5,1.1,1.1,1.5,1.9c0.4,0.8,0.6,1.7,0.6,2.6
			c0,0.5-0.1,1.1-0.4,1.9c-0.3,0.8-0.7,1.5-1.2,2.2c-0.5,0.7-1.1,1.3-1.8,1.9c-0.7,0.5-1.4,0.8-2.2,0.8c0,0.2,0,0.5,0,0.7
			c0,0.2,0.1,0.4,0.1,0.5c0.1,0.2,0.2,0.3,0.3,0.4c0.2,0.1,0.4,0.2,0.7,0.3c0.6,0.2,1.2,0.2,1.7,0c0.6-0.2,1.1-0.6,1.7-1
			c0.5-0.4,1-1,1.5-1.5c0.5-0.6,0.9-1.1,1.3-1.7c0.4-0.6,0.7-1.1,0.9-1.5c0.2-0.4,0.4-0.7,0.5-0.9c0.1-0.3,0.2-0.4,0.3-0.4
			C100.2,48.3,100.4,48.5,100.7,48.7z M94,44.6c-0.4,0.2-0.7,0.5-1.1,0.9c-0.3,0.4-0.6,1-0.9,1.5c-0.3,0.6-0.5,1.2-0.7,1.9
			c-0.2,0.7-0.3,1.3-0.3,1.9c0.5-0.1,0.9-0.5,1.4-1c0.5-0.5,0.9-1.1,1.2-1.7s0.5-1.3,0.6-1.9C94.3,45.5,94.3,45,94,44.6z"/>
		<path class="st10" d="M109.1,58.5c-1,0.3-1.8,0.3-2.4,0c-0.6-0.3-1.1-0.6-1.6-1.1c-0.4-0.5-0.7-1-0.9-1.5c-0.2-0.5-0.3-0.8-0.4-1
			c-0.1-0.4,0-0.7,0.2-0.9c0.2-0.1,0.3-0.2,0.4-0.1s0.3,0.2,0.4,0.3c0.3,0.3,0.6,0.4,1,0.4c0.4,0,0.7-0.1,1-0.2
			c1.3-0.4,2.3-0.9,3-1.4c0.7-0.6,1.2-1.2,1.5-1.8c0.3-0.6,0.3-1.2,0.2-1.7c-0.1-0.5-0.4-0.9-0.8-1.2c-0.1-0.1-0.4-0.3-0.9-0.6
			c-0.5-0.3-1-0.6-1.6-1c-0.6-0.4-1.1-0.7-1.7-1.1c-0.6-0.4-1-0.7-1.3-0.9c-0.5-0.4-1-0.9-1.4-1.5c-0.4-0.5-0.6-1.2-0.7-1.8
			c-0.1-0.7-0.1-1.3,0.1-1.9c0.2-0.6,0.4-1.2,0.8-1.8c0.4-0.6,0.8-1.1,1.3-1.5c0.5-0.4,1.1-0.8,1.7-1.1c0.4-0.2,0.8-0.2,1.2,0
			c0.4,0.2,0.8,0.4,1.1,0.7c0.3,0.3,0.6,0.7,0.9,1c0.2,0.3,0.4,0.6,0.4,0.7c0.1,0.3,0.1,0.6,0,0.8c-0.1,0.2-0.3,0.3-0.6,0.4
			c-0.8,0.2-1.5,0.6-2.1,1c-0.6,0.5-1,1-1.5,1.7c-0.3,0.4-0.4,0.8-0.2,1.1c0.2,0.3,0.5,0.5,1,0.8c0.5,0.3,1.1,0.7,1.6,1
			c0.5,0.3,1.1,0.6,1.6,0.9c1.1,0.7,2,1.3,2.7,1.9c0.8,0.6,1.4,1.5,1.8,2.6c0.3,0.8,0.4,1.7,0.2,2.5c-0.2,0.8-0.6,1.7-1.2,2.4
			c-0.6,0.8-1.4,1.5-2.3,2.1C111.2,57.7,110.2,58.2,109.1,58.5z"/>
		<path class="st10" d="M126.8,30.1c0.2,0.4,0.2,0.6,0,0.9c-0.2,0.2-0.4,0.3-0.8,0.3c-0.4,0-1.1,0-2.1,0.1c-1.1,0.1-2.3,0.2-3.6,0.3
			c0,1.3,0,2.6,0.1,4.2c0.1,1.5,0.1,3,0.2,4.5c0.1,1.5,0.2,2.9,0.3,4.4c0.1,1.4,0.2,2.7,0.4,3.7c0.1,1.1,0.3,2,0.5,2.6
			c0.2,0.7,0.4,1,0.7,1c0.3,0,0.5,0.1,0.7,0.1c0.2,0,0.4,0,0.5,0.1c0.2,0.1,0.3,0.1,0.5,0.1c0.1,0,0.3,0.1,0.3,0.4
			c0.1,0.3,0.1,0.5,0.1,0.8c0,0.3,0,0.6-0.1,0.8c-0.1,0.3-0.2,0.4-0.4,0.4c-1.4,0.1-2.5-0.1-3.4-0.4c-0.8-0.4-1.5-0.9-2-1.4
			c-0.5-0.6-0.8-1.2-1-1.9c-0.2-0.7-0.3-1.3-0.4-1.8c0-0.2-0.1-0.9-0.1-2.1c-0.1-1.2-0.2-2.6-0.3-4.3c-0.1-1.7-0.2-3.5-0.3-5.4
			c-0.1-1.9-0.2-3.7-0.3-5.5c-1,0.1-1.9,0.2-2.7,0.3c-0.7,0.1-1.2,0.1-1.3,0.1c-0.6,0.1-1.1-0.2-1.3-0.8c-0.1-0.2-0.2-0.6-0.1-1
			c0-0.5,0.1-0.7,0.3-0.9c0,0,0.5-0.1,1.5-0.2c1-0.1,2.1-0.2,3.5-0.3c0-1-0.1-1.9-0.1-2.7c0-0.7,0-1.2,0-1.6c0-0.5,0.1-0.8,0.3-1
			c0.2-0.2,0.5-0.3,0.9-0.3c0.7-0.1,1.4,0.1,1.9,0.5c0.6,0.5,0.8,1.1,0.8,1.9c0,0.1,0,0.5,0,0.9c0,0.5,0,1.1,0,1.9
			c1-0.1,1.8-0.2,2.5-0.2c0.7-0.1,1.2-0.1,1.4-0.1c0.7-0.1,1.3,0,1.7,0.2C126.2,29,126.5,29.5,126.8,30.1z"/>
		<path class="st10" d="M138.3,45.6c0.2-1.8,0.6-3.5,1.4-5.1c0.8-1.6,1.7-3.1,2.7-4.4c1-1.3,2.1-2.5,3.1-3.4c1-0.9,1.9-1.6,2.6-2.1
			c0.8-0.5,1.7-1,2.7-1.4c0.9-0.4,2.1-0.8,3.3-1.2c0.3-0.1,0.7,0,1.1,0.3c0.4,0.3,0.7,0.7,1,1.1c0.3,0.5,0.5,0.9,0.7,1.4
			c0.2,0.5,0.2,0.9,0.2,1.2c-0.1,0.2-0.2,0.3-0.4,0.4c-0.2,0.1-0.4,0.2-0.7,0.3s-0.5,0.1-0.7,0.2c-0.3,0.1-0.5,0.1-0.6,0.2
			c-0.3,0.2-0.8,0.5-1.5,1s-1.5,1-2.4,1.7c-0.9,0.7-1.9,1.5-2.9,2.5c-1,1-2,2-2.9,3.2c-0.9,1.2-1.7,2.5-2.3,3.8
			c-0.7,1.4-1.1,2.9-1.3,4.4c-0.1,0.5,0,1,0.1,1.4c0.1,0.4,0.3,0.8,0.6,1.1c0.3,0.3,0.6,0.5,1,0.8c0.4,0.2,0.8,0.4,1.2,0.6
			c0.5,0.2,1.2,0.4,2.2,0.4c0.9,0.1,1.9,0.1,2.9,0.1c1,0,1.9,0,2.7-0.1c0.8-0.1,1.3-0.2,1.6-0.3c0.1-0.1,0.3,0,0.5,0.2
			c0.5,0.5,0.8,1,1.1,1.6c0.2,0.6,0.4,1.2,0.4,1.9c0,0.3-0.1,0.6-0.3,0.8s-0.5,0.3-0.8,0.4c-1.2,0.4-2.4,0.6-3.6,0.7
			c-1.2,0.1-2.4,0.1-3.6-0.2c-0.7-0.1-1.4-0.3-2.2-0.5c-0.7-0.2-1.4-0.4-2.1-0.7s-1.2-0.6-1.8-1c-0.5-0.4-1-0.9-1.3-1.6
			c-0.8-1.5-1.3-3.1-1.6-4.8S138.2,47.2,138.3,45.6z"/>
		<path class="st10" d="M167.3,40.8c1,0.9,1.7,1.9,2.1,3.1c0.4,1.2,0.5,2.5,0.4,3.7s-0.3,2.4-0.7,3.5c-0.4,1.1-0.8,1.9-1.2,2.4
			c-0.1,0.1-0.3,0.4-0.7,1s-0.9,1.1-1.6,1.7c-0.7,0.6-1.5,1-2.4,1.3c-0.9,0.3-1.9,0.3-2.9-0.1c-1.5-0.6-2.5-1.4-3.2-2.4
			c-0.6-1.1-1-2.2-1.1-3.5c-0.1-1.3,0.1-2.5,0.4-3.9c0.4-1.3,0.8-2.5,1.3-3.5c0.5-1,1.1-1.8,1.7-2.3c0.6-0.6,1.1-0.7,1.5-0.5
			c0.2,0.1,0.4,0.1,0.6-0.1c0.2-0.2,0.4-0.3,0.6-0.4c0.6-0.5,1.2-0.7,1.9-0.8c0.7,0,1.4,0,2.1,0.1C166.6,40.4,166.9,40.6,167.3,40.8
			z M162.4,54.8c0.7,0,1.3-0.4,2-1c0.6-0.7,1.2-1.5,1.6-2.5s0.8-2,1-3.2c0.2-1.1,0.3-2.1,0.2-3c-0.1-0.9-0.4-1.6-0.9-2.1
			c-0.5-0.5-1.2-0.7-2.2-0.5c-0.4,0.1-0.6,0.3-0.6,0.6c0,0.2,0.1,0.5,0.2,0.8c0.1,0.3,0.1,0.6-0.1,0.7c-0.4,0.2-0.7,0.6-1.1,1.2
			c-0.4,0.6-0.7,1.3-0.9,2c-0.3,0.8-0.5,1.6-0.6,2.4c-0.2,0.8-0.2,1.6-0.2,2.3c0,0.7,0.2,1.2,0.4,1.7
			C161.4,54.6,161.8,54.8,162.4,54.8z"/>
		<path class="st10" d="M185.4,48.3c0.4,0.8,0.7,1.5,0.8,2.2c0.1,0.7,0,1.5-0.4,2.4c-0.3,0.7-0.7,1.6-1,2.6s-0.8,2-1.1,3
			c-0.4,1-0.7,1.8-0.9,2.5c-0.3,0.7-0.4,1.1-0.4,1.2c-0.1,0.3-0.3,0.4-0.7,0.3c-0.1,0-0.2-0.1-0.5-0.3s-0.6-0.4-0.9-0.8
			c-0.3-0.4-0.5-0.8-0.7-1.4c-0.2-0.6-0.1-1.3,0.2-2.1c0.1-0.4,0.3-0.9,0.5-1.5c0.2-0.6,0.4-1.1,0.5-1.5c-0.4,0.3-0.8,0.6-1.2,1
			s-0.9,0.7-1.4,1c-0.5,0.3-0.9,0.7-1.4,0.9c-0.4,0.3-0.8,0.5-1.1,0.6c-0.7,0.4-1.5,0.5-2.3,0.6c-0.8,0-1.5-0.2-2.1-0.7
			c-0.1-0.1-0.3-0.4-0.5-0.8s-0.4-0.8-0.5-1.3c-0.1-0.5-0.2-1.1-0.1-1.7c0-0.6,0.2-1.3,0.6-1.9c0.4-0.8,1-1.6,1.9-2.4
			s1.7-1.5,2.7-2.1c1-0.6,2-1.1,3.1-1.5c1.1-0.4,2-0.6,2.9-0.6c0.5,0,0.8,0.1,1.1,0.3c0.3,0.2,0.5,0.4,0.6,0.6
			c0.2,0.2,0.3,0.4,0.4,0.5c0.1,0.1,0.3,0.1,0.5,0c0.3-0.2,0.6-0.2,0.9-0.1C184.9,47.7,185.2,47.9,185.4,48.3z M173.2,55.9
			c0.1,0.1,0.5,0.1,1-0.1c0.5-0.2,1.1-0.5,1.8-0.8c0.7-0.3,1.4-0.7,2.1-1.2c0.7-0.5,1.4-0.9,2-1.4c0.6-0.5,1.1-0.9,1.4-1.3
			c0.4-0.4,0.5-0.7,0.4-0.9c-0.2-0.4-0.5-0.6-1.1-0.5c-0.6,0.1-1.2,0.2-2,0.6c-0.7,0.3-1.5,0.8-2.3,1.3c-0.8,0.5-1.5,1.1-2.1,1.6
			c-0.6,0.5-1,1.1-1.3,1.5C172.9,55.3,172.9,55.7,173.2,55.9z"/>
		<path class="st10" d="M185.9,68.8c-1-0.3-1.6-0.7-2-1.3c-0.4-0.6-0.6-1.2-0.7-1.8c-0.1-0.6-0.1-1.2,0.1-1.7c0.1-0.5,0.2-0.9,0.2-1
			c0.1-0.4,0.3-0.6,0.7-0.6c0.2,0,0.4,0,0.4,0.2c0.1,0.1,0.1,0.3,0.2,0.5c0.1,0.4,0.3,0.7,0.6,0.9c0.3,0.2,0.7,0.3,1,0.4
			c1.3,0.4,2.4,0.6,3.3,0.5c0.9-0.1,1.7-0.3,2.2-0.7c0.6-0.4,0.9-0.8,1.1-1.3c0.2-0.5,0.2-1,0-1.4c-0.1-0.2-0.2-0.5-0.5-1
			c-0.2-0.5-0.5-1.1-0.8-1.7c-0.3-0.6-0.5-1.2-0.8-1.8c-0.3-0.6-0.5-1.1-0.6-1.4c-0.2-0.7-0.3-1.3-0.3-2s0.1-1.3,0.4-1.9
			c0.3-0.6,0.7-1.1,1.1-1.5c0.5-0.4,1-0.8,1.6-1c0.6-0.3,1.2-0.4,1.9-0.5c0.7-0.1,1.4-0.1,2.1,0c0.4,0.1,0.8,0.3,1,0.7
			c0.2,0.4,0.4,0.8,0.5,1.2c0.1,0.5,0.2,0.9,0.2,1.3c0,0.4,0,0.7,0,0.9c-0.1,0.4-0.2,0.6-0.4,0.7c-0.2,0.1-0.4,0.1-0.7,0
			c-0.8-0.3-1.6-0.4-2.3-0.3c-0.7,0.1-1.4,0.3-2.1,0.6c-0.5,0.2-0.8,0.4-0.8,0.8c0,0.3,0.1,0.7,0.4,1.2c0.3,0.6,0.5,1.1,0.8,1.7
			c0.3,0.5,0.6,1.1,0.9,1.7c0.5,1.1,0.9,2.2,1.2,3.1c0.3,0.9,0.3,2,0.1,3.2c-0.2,0.9-0.6,1.6-1.2,2.2c-0.6,0.6-1.4,1.1-2.3,1.4
			c-0.9,0.3-1.9,0.5-3.1,0.5C188.2,69.2,187,69.1,185.9,68.8z"/>
		<path class="st10" d="M216.5,54.9c-0.1,0.4-0.2,0.6-0.5,0.7c-0.2,0.1-0.5,0-0.8-0.2c-0.3-0.2-0.9-0.6-1.8-1.1
			c-0.9-0.5-2-1.1-3.1-1.8c-0.7,1.1-1.4,2.2-2.2,3.5c-0.8,1.3-1.6,2.6-2.3,3.9c-0.8,1.3-1.5,2.6-2.2,3.8c-0.7,1.2-1.3,2.3-1.8,3.3
			c-0.5,1-0.8,1.8-1,2.5c-0.2,0.7-0.2,1.1,0,1.2c0.2,0.2,0.4,0.3,0.5,0.5c0.2,0.1,0.3,0.2,0.4,0.4c0.1,0.1,0.2,0.2,0.3,0.3
			c0.1,0.1,0.2,0.2,0.1,0.5s-0.2,0.5-0.3,0.7c-0.1,0.2-0.3,0.5-0.5,0.6c-0.2,0.2-0.4,0.2-0.5,0.1c-1.2-0.7-2.1-1.5-2.6-2.2
			c-0.5-0.8-0.8-1.5-0.8-2.3c-0.1-0.8,0-1.5,0.2-2.1c0.2-0.7,0.5-1.2,0.7-1.7c0.1-0.2,0.5-0.8,1-1.8c0.6-1,1.3-2.3,2.1-3.7
			c0.8-1.4,1.8-3,2.7-4.6c1-1.7,1.9-3.2,2.8-4.7c-0.9-0.5-1.7-0.9-2.4-1.3c-0.7-0.4-1-0.6-1.1-0.6c-0.6-0.3-0.8-0.8-0.7-1.4
			c0-0.3,0.2-0.6,0.5-0.9c0.3-0.3,0.5-0.5,0.7-0.6c0,0,0.5,0.2,1.3,0.7c0.8,0.5,1.9,1.1,3,1.7c0.6-0.9,1-1.6,1.4-2.3
			c0.4-0.6,0.7-1.1,0.9-1.3c0.3-0.4,0.5-0.6,0.8-0.7c0.2,0,0.6,0,0.9,0.2c0.7,0.3,1.1,0.8,1.3,1.5c0.2,0.7,0.1,1.4-0.4,2
			c-0.1,0.1-0.2,0.4-0.5,0.8c-0.3,0.4-0.6,0.9-1,1.6c0.8,0.5,1.6,0.9,2.2,1.2c0.6,0.4,1,0.6,1.2,0.7c0.7,0.3,1.1,0.7,1.2,1.1
			C216.5,53.7,216.6,54.2,216.5,54.9z"/>
	</g>
	<g>
		<path class="st10" d="M40.2,169c-0.5-0.7-0.7-1.3-0.4-1.8c0.2-0.5,0.7-0.9,1.2-1.2c0.2-0.1,0.3,0,0.5,0.2c0.2,0.2,0.5,0.5,0.8,0.9
			c0.2,0.2,0.4,0.3,0.5,0.3c0.2,0,0.4-0.1,0.6-0.2c0.3-0.2,0.8-0.5,1.6-0.9c0.7-0.4,1.5-0.9,2.3-1.3c0.8-0.5,1.6-0.9,2.4-1.3
			c0.8-0.4,1.3-0.8,1.7-1c-0.3-0.4-0.7-0.7-1.1-1c-0.4-0.3-0.6-0.6-0.6-0.9c-0.1-0.3,0-0.7,0.2-1c0.2-0.3,0.5-0.6,0.8-0.9
			c0.3-0.3,0.6-0.5,1-0.7c0.3-0.2,0.6-0.3,0.7-0.4c0.2-0.1,0.5,0,0.7,0.2s0.4,0.3,0.5,0.5c0.3,0.3,0.7,0.7,1.1,1.1
			c0.5,0.5,0.9,1,1.4,1.6c0.5,0.6,1,1.2,1.5,1.8c0.5,0.6,1,1.3,1.4,1.9c0.4,0.6,0.8,1.2,1,1.8c0.3,0.6,0.4,1.1,0.5,1.5
			c0,0.4-0.1,0.7-0.4,1c-0.3,0.3-0.6,0.6-0.9,0.9c-0.2,0.1-0.3,0.3-0.6,0.5c-0.2,0.2-0.4,0.2-0.5,0.1c-0.3-0.4-0.6-0.8-1-1.3
			s-0.7-1-1-1.5c-0.3-0.5-0.6-0.9-0.9-1.3c-0.3-0.4-0.5-0.7-0.6-0.8c-0.3-0.3-0.5-0.5-0.7-0.5c-0.2,0-0.5,0.1-0.9,0.4
			s-1,0.6-1.7,1.1c-0.8,0.5-1.5,0.9-2.3,1.4c-0.8,0.5-1.5,0.9-2.1,1.3c-0.6,0.4-1.1,0.7-1.2,0.8c-0.2,0.2-0.3,0.3-0.3,0.4
			c0,0.1,0,0.2,0.1,0.4c0.3,0.3,0.5,0.7,0.7,1.1c0.2,0.4,0.4,0.8,0.6,1.2c0.3,0.5,0.1,1-0.4,1.5c-0.4,0.3-0.7,0.5-1,0.4
			c-0.2,0-0.4-0.2-0.6-0.6c-0.2-0.4-0.4-0.7-0.6-1.1c-0.2-0.4-0.4-0.7-0.6-1c-0.2-0.2-0.3-0.4-0.4-0.5s-0.2-0.2-0.3-0.2
			s-0.2,0-0.4,0.1c-0.2,0.1-0.4,0.2-0.6,0.3c-0.3,0.1-0.7,0.4-1.3,0.8c-0.6,0.4-1.3,0.8-2.1,1.2c-0.8,0.5-1.7,1-2.6,1.5
			c-0.9,0.5-1.8,1-2.7,1.5c-0.9,0.5-1.7,0.9-2.5,1.3c-0.8,0.4-1.4,0.7-1.8,1c-0.3,0.1-0.6,0.1-1-0.1c-0.3-0.2-0.5-0.5-0.6-0.8
			c-0.3-1.3,0.2-2.4,1.6-3.1c0.3-0.2,0.7-0.4,1.3-0.7c0.6-0.3,1.3-0.7,2-1.2c0.7-0.4,1.5-0.9,2.3-1.4c0.8-0.5,1.6-0.9,2.3-1.4
			c0.7-0.4,1.4-0.8,2-1.2C39.4,169.5,39.9,169.2,40.2,169z"/>
		<path class="st10" d="M56,181.5c0.1,1.2-0.2,2.3-0.8,3.4c-0.6,1.1-1.4,2.1-2.3,2.9c-0.9,0.9-1.9,1.6-2.9,2.1
			c-1,0.6-1.8,0.9-2.5,1.1c-0.1,0-0.5,0.1-1.1,0.3c-0.7,0.2-1.4,0.3-2.3,0.3s-1.7-0.1-2.5-0.4c-0.8-0.3-1.4-0.9-1.9-1.7
			c-0.6-1.2-0.8-2.4-0.4-3.5c0.3-1.1,0.9-2.2,1.7-3.1c0.8-1,1.8-1.8,2.9-2.5c1.1-0.7,2.2-1.3,3.3-1.7c1-0.4,2-0.7,2.8-0.7
			c0.8,0,1.2,0.1,1.3,0.5c0.1,0.2,0.2,0.3,0.5,0.3c0.2,0,0.5,0,0.7,0c0.7,0,1.3,0.2,1.8,0.5c0.5,0.4,0.9,0.8,1.3,1.2
			C55.8,180.8,55.9,181.2,56,181.5z M43.1,188.9c0.5,0.4,1.2,0.5,2,0.4c0.9-0.1,1.8-0.4,2.8-0.9c1-0.5,1.9-1,2.9-1.7
			c0.9-0.7,1.7-1.4,2.2-2.1c0.5-0.7,0.8-1.4,0.9-2.1c0-0.7-0.3-1.2-1.1-1.6c-0.3-0.2-0.6-0.1-0.9,0.1c-0.1,0.2-0.3,0.4-0.4,0.7
			c-0.2,0.3-0.3,0.5-0.6,0.5c-0.4-0.1-0.9,0-1.5,0.3c-0.6,0.2-1.3,0.5-2,1c-0.7,0.4-1.4,0.9-2.1,1.4c-0.7,0.5-1.3,1-1.7,1.5
			c-0.5,0.5-0.7,1-0.9,1.4C42.5,188.2,42.7,188.6,43.1,188.9z"/>
		<path class="st10" d="M64.6,191.9c0.3,1.2,0.2,2.3-0.3,3.5c-0.5,1.2-1.1,2.2-1.9,3.2c-0.8,1-1.7,1.8-2.6,2.5
			c-0.9,0.7-1.7,1.2-2.3,1.4c-0.1,0-0.5,0.2-1.1,0.5c-0.6,0.3-1.4,0.5-2.2,0.6c-0.8,0.1-1.7,0.1-2.5,0c-0.9-0.2-1.6-0.7-2.1-1.5
			c-0.8-1.1-1.1-2.3-0.9-3.5c0.2-1.2,0.6-2.3,1.3-3.3c0.7-1.1,1.5-2,2.6-2.9c1-0.9,2-1.6,3-2.2c1-0.6,1.9-0.9,2.6-1.1
			c0.8-0.2,1.2,0,1.4,0.3c0.1,0.2,0.3,0.3,0.5,0.2c0.2,0,0.5-0.1,0.7-0.1c0.7-0.1,1.4,0,1.9,0.3c0.5,0.3,1,0.6,1.5,1.1
			C64.4,191.2,64.6,191.5,64.6,191.9z M52.9,200.9c0.5,0.3,1.2,0.3,2.1,0.1c0.9-0.2,1.7-0.7,2.7-1.3c0.9-0.6,1.8-1.3,2.6-2.1
			c0.8-0.8,1.5-1.6,1.9-2.4c0.4-0.8,0.6-1.5,0.6-2.2c-0.1-0.7-0.5-1.1-1.3-1.4c-0.3-0.1-0.6-0.1-0.8,0.2c-0.1,0.2-0.2,0.4-0.3,0.8
			c-0.1,0.3-0.3,0.5-0.5,0.5c-0.4,0-0.9,0.1-1.5,0.5c-0.6,0.3-1.2,0.7-1.9,1.2c-0.7,0.5-1.3,1-1.9,1.6c-0.6,0.6-1.1,1.2-1.5,1.8
			c-0.4,0.6-0.6,1.1-0.7,1.5C52.2,200.3,52.4,200.6,52.9,200.9z"/>
		<path class="st10" d="M85.2,192.2c0.4,0.6,0.5,1.3,0.4,2.1c-0.1,0.7-0.3,1.4-0.8,2.1c-0.2,0.2-0.6,0.7-1.1,1.4
			c-0.6,0.7-1.3,1.5-2.1,2.5c-0.8,1-1.8,2.1-2.8,3.3c-1,1.2-2.1,2.5-3.2,3.8c-1.1,1.3-2.2,2.6-3.3,4c-1.1,1.3-2.2,2.6-3.2,3.8
			c-1,1.2-1.9,2.3-2.7,3.3c-0.8,1-1.5,1.8-2,2.4c-0.3,0.3-0.7,0.4-1.1,0.1c-0.1-0.1-0.2-0.2-0.4-0.4c-0.2-0.2-0.3-0.5-0.3-0.8
			s-0.1-0.7,0.1-1.2s0.4-1,0.8-1.6c0.3-0.4,0.7-0.9,1.3-1.7c0.6-0.8,1.2-1.5,1.9-2.4c0.7-0.8,1.3-1.6,2-2.4c0.6-0.8,1.1-1.3,1.4-1.7
			c-0.5,0.2-1,0.5-1.6,0.8c-0.6,0.3-1.2,0.6-1.9,0.8c-0.7,0.2-1.4,0.4-2.1,0.4c-0.7,0.1-1.4,0-2-0.3c-0.3-0.1-0.5-0.4-0.9-0.8
			c-0.3-0.5-0.5-1-0.6-1.7c-0.1-0.7,0-1.4,0.2-2.2c0.2-0.8,0.8-1.7,1.7-2.5c0.3-0.3,0.7-0.6,1.4-0.9c0.6-0.4,1.4-0.7,2.2-1
			c0.8-0.3,1.6-0.5,2.4-0.6c0.8-0.1,1.6,0,2.2,0.2c1.1,0.4,1.8,0.9,2.1,1.5c0.4,0.6,0.6,1.1,0.5,1.4c0.8-0.9,1.6-1.8,2.5-2.9
			c0.9-1.1,1.8-2.1,2.7-3.2c0.9-1,1.7-2.1,2.6-3.1c0.8-1,1.6-1.9,2.2-2.7C84.3,191.5,84.8,191.5,85.2,192.2z M63.8,207.3
			c0,0.3,0.2,0.5,0.6,0.6s0.8,0.1,1.4,0c0.6-0.1,1.2-0.3,1.8-0.5c0.7-0.2,1.3-0.5,1.8-0.8c0.6-0.3,1-0.6,1.4-0.8
			c0.4-0.3,0.6-0.5,0.6-0.7c0-0.3-0.2-0.6-0.5-0.7c-0.4-0.1-0.8-0.1-1.4,0c-0.6,0.1-1.2,0.2-1.8,0.4c-0.7,0.2-1.3,0.4-1.9,0.7
			c-0.6,0.3-1,0.6-1.4,0.9C64,206.7,63.8,207,63.8,207.3z"/>
		<path class="st10" d="M93.4,204.9c0.1-0.2,0.1-0.4,0.1-0.5c0-0.1-0.1-0.3-0.4-0.3c-0.5-0.1-1.1-0.3-1.8-0.6
			c-0.7-0.3-1.5-0.6-2.5-0.9c-0.1-0.1-0.2-0.3-0.2-0.6c0-0.4,0.1-0.8,0.2-1.2c0.1-0.4,0.2-0.9,0.3-1.3c0.1-0.4,0.2-0.6,0.2-0.7
			c0-0.2,0.1-0.4,0.3-0.5c0.2-0.1,0.4-0.2,0.6-0.2c0.3,0.1,0.8,0.2,1.5,0.4c0.7,0.2,1.6,0.5,2.6,0.8c1,0.3,2,0.7,3,1.1
			c1.1,0.4,2.1,0.7,3,1c0.9,0.3,1.7,0.6,2.4,0.9c0.7,0.3,1.1,0.4,1.3,0.5c0.3,0.1,0.6,0.4,0.6,0.8c0,0.2,0,0.6-0.1,1.2
			c-0.1,0.6-0.2,1.2-0.4,1.8c-0.1,0.4-0.3,0.7-0.7,0.9c-0.3,0.2-0.7,0.2-1,0.1c-0.3-0.1-0.7-0.3-1.2-0.5c-0.5-0.2-1.1-0.4-1.6-0.6
			c-0.6-0.2-1.1-0.4-1.5-0.6c-0.5-0.2-0.8-0.3-0.9-0.4c-0.3-0.1-0.6,0-0.8,0.4c0,0.1-0.2,0.5-0.6,1.3c-0.4,0.8-0.8,1.9-1.3,3.1
			c-0.5,1.3-1.2,2.7-1.8,4.3c-0.7,1.6-1.4,3.2-2.1,4.9c-0.7,1.7-1.4,3.3-2.1,4.9c-0.7,1.6-1.3,3.1-1.9,4.4c-0.6,1.3-1,2.4-1.4,3.3
			c-0.4,0.9-0.6,1.4-0.7,1.6c-0.1,0.3-0.3,0.4-0.5,0.5c-0.2,0.1-0.4,0-0.6,0c-0.2-0.1-0.4-0.2-0.6-0.3c-0.2-0.1-0.3-0.3-0.4-0.4
			c-0.8-0.7-0.9-1.7-0.4-2.8c0.1-0.3,0.4-0.9,0.8-1.8c0.4-0.9,0.8-1.9,1.4-3.2c0.5-1.2,1.1-2.6,1.8-4.1c0.6-1.5,1.3-3,2-4.5
			c0.7-1.5,1.3-3,1.9-4.4c0.6-1.4,1.2-2.7,1.7-3.8c0.5-1.1,0.9-2.1,1.2-2.8C93.1,205.4,93.3,205,93.4,204.9z"/>
		<path class="st10" d="M103.2,220c0.5-0.5,0.9-1,1.4-1.4c0.5-0.4,0.9-0.9,1.4-1.2c0.4-0.3,0.8-0.6,1.2-0.8c0.4-0.2,0.8-0.3,1.2-0.2
			c0.6,0.1,1,0.4,1.3,0.9c0.3,0.5,0.5,1,0.7,1.5c0,0.1,0,0.3-0.1,0.5c-0.1,0.2-0.3,0.3-0.5,0.5c-0.2,0.1-0.3,0.2-0.5,0.3
			c-0.2,0-0.3,0-0.3-0.1c-0.2-0.6-0.4-1-0.6-1c-0.2-0.1-0.5,0.1-1,0.4c-0.5,0.4-1,0.9-1.6,1.4c-0.6,0.5-1.2,1.3-1.9,2.3
			c-0.7,1-1.4,2.4-2.1,4.2c-0.7,1.7-1.5,4-2.3,6.9c-0.1,0.4-0.2,0.6-0.4,0.7c-0.2,0.1-0.4,0.1-0.8,0c-1.3-0.3-1.8-1.2-1.6-2.8
			c0-0.2,0.1-0.7,0.4-1.6c0.2-0.9,0.5-2,0.9-3.3c0.3-1.3,0.7-2.7,1.1-4.2c0.4-1.5,0.8-2.9,1.1-4.2c0.3-1.3,0.7-2.5,0.9-3.4
			c0.3-1,0.5-1.6,0.5-1.8c0.1-0.4,0.4-0.6,0.8-0.5c0.3,0.1,0.5,0.2,0.8,0.5c0.2,0.2,0.4,0.5,0.6,0.9c0.2,0.3,0.3,0.7,0.3,1.1
			c0,0.4,0,0.7-0.1,1c-0.1,0.4-0.2,1-0.4,1.7C103.6,218.8,103.4,219.4,103.2,220z"/>
		<path class="st10" d="M115.9,233.9c0.2,0,0.5-0.3,0.8-0.8c0.3-0.6,0.6-1.3,0.9-2c0.3-0.8,0.6-1.6,0.8-2.4c0.3-0.8,0.4-1.4,0.6-1.9
			c0.1-0.4,0.3-1,0.4-1.7c0.2-0.7,0.3-1.3,0.5-2c0.2-0.7,0.4-1.4,0.5-2c0.2-0.7,0.3-1.2,0.5-1.7c0.2-0.7,0.4-1.1,0.7-1.2
			c0.3-0.1,0.7-0.1,1.2,0.2c0.5,0.2,0.9,0.5,1.2,0.9s0.6,0.8,0.9,1.3c0,0,0,0.4,0,1.1c0,0.7-0.1,1.6-0.2,2.6
			c-0.1,1.1-0.2,2.2-0.3,3.5c-0.1,1.2-0.2,2.4-0.3,3.5c-0.1,1.1-0.2,2.1-0.3,2.9c-0.1,0.8-0.1,1.3-0.1,1.5c-0.1,0.4-0.1,0.7-0.2,0.7
			c-0.1,0.1-0.3,0.1-0.6,0c-0.6-0.1-1.2-0.4-1.7-1c-0.5-0.5-0.8-1.3-0.8-2.2c0-0.2,0-0.6,0-1.1s0-1,0.1-1.5c0-0.5,0.1-1,0.1-1.4
			c0-0.4,0-0.7,0-0.9c-0.2,0.7-0.5,1.4-0.8,2.2c-0.3,0.7-0.6,1.4-0.9,2.1c-0.3,0.6-0.6,1.2-0.9,1.8c-0.3,0.5-0.5,1-0.7,1.3
			c-0.2,0.4-0.6,0.7-1,1c-0.4,0.2-0.8,0.3-1.3,0.4c-0.5,0-0.9,0-1.3-0.2c-0.4-0.1-0.7-0.4-1-0.7c-0.4-0.5-0.8-1.3-0.9-2.2
			c-0.2-1-0.3-2-0.3-3.2c0-1.2,0-2.4,0.1-3.7c0.1-1.3,0.2-2.5,0.4-3.7c0.1-1.2,0.3-2.2,0.4-3.1c0.1-0.9,0.2-1.6,0.3-2
			c0.1-0.4,0.1-0.7,0.2-0.8c0.1-0.1,0.3-0.1,0.7-0.1c0.2,0,0.4,0,0.7,0.1c0.3,0.1,0.5,0.2,0.7,0.4c0.2,0.2,0.4,0.5,0.6,0.8
			c0.1,0.3,0.2,0.8,0.1,1.3c0,0.5-0.1,1.1-0.2,1.8c-0.1,0.8-0.1,1.6-0.2,2.4c-0.1,0.9-0.2,1.7-0.2,2.6c-0.1,0.9-0.1,1.7-0.2,2.4
			c0,0.4-0.1,0.9-0.1,1.4s0,1.1,0,1.5c0,0.5,0.1,0.9,0.2,1.3C115.5,233.7,115.7,233.9,115.9,233.9z"/>
		<path class="st10" d="M135.1,236.6c-1.3,0-2.5-0.5-3.4-1.3c-1-0.8-1.7-1.8-2.1-3c-0.5-1.2-0.7-2.5-0.6-4c0-1.5,0.4-2.9,0.9-4.2
			c0.4-0.9,0.9-1.7,1.6-2.4c0.6-0.7,1.3-1.3,1.9-1.8c0.6-0.5,1.2-0.9,1.8-1.1c0.6-0.3,0.9-0.4,1.2-0.4c0.4,0,0.8,0.2,1.1,0.4
			c0.4,0.2,0.7,0.5,0.9,0.9c0.2,0.3,0.4,0.6,0.5,0.9c0.1,0.3,0,0.5-0.1,0.6c-0.3,0.3-0.7,0.5-1.1,0.8c-0.4,0.3-0.8,0.5-1.1,0.7
			c-0.3,0.2-0.6,0.4-0.9,0.6c-0.2,0.2-0.4,0.3-0.4,0.3c-0.9,0.7-1.6,1.5-2.2,2.4c-0.5,1-1,2-1.2,3.2c-0.4,1.9,0.2,3.1,1.8,3.7
			c0.6,0.2,1.2,0.2,1.9,0c0.6-0.2,1.2-0.5,1.8-0.9c0.6-0.4,1.1-0.9,1.6-1.5c0.5-0.6,0.9-1.1,1.3-1.6c0.1-0.2,0.3-0.3,0.4-0.3
			c0.1,0,0.2,0.1,0.3,0.3c0.4,0.5,0.6,1.2,0.6,2c0,0.8-0.2,1.5-0.6,2c-0.2,0.2-0.4,0.5-0.7,0.9c-0.3,0.4-0.8,0.8-1.3,1.2
			c-0.5,0.4-1.1,0.7-1.7,1C136.5,236.5,135.8,236.6,135.1,236.6z"/>
		<path class="st10" d="M149.2,216.9c0.1-0.4,0.3-0.6,0.7-0.6c0.3,0,0.7,0.2,1,0.4c0.3,0.3,0.6,0.6,0.8,1c0.2,0.4,0.2,0.8,0.1,1.1
			c-0.1,0.3-0.2,0.6-0.4,1c-0.1,0.4-0.3,0.8-0.5,1.3c-0.2,0.4-0.3,0.8-0.5,1.3c-0.1,0.4-0.3,0.8-0.4,1c-0.1,0.3-0.1,0.5,0,0.6
			c0.1,0.1,0.3,0.2,0.6,0.3c0.4,0.2,1,0.4,1.5,0.6s1.2,0.5,1.8,0.7c0.6,0.2,1.2,0.4,1.7,0.6c0.5,0.2,1,0.4,1.4,0.5
			c0.3,0.1,0.6,0.4,0.7,0.9c0.1,0.5,0.1,1,0.1,1.5c-0.1,0.5-0.2,1-0.3,1.4c-0.2,0.4-0.3,0.6-0.5,0.6c-0.4-0.1-0.9-0.2-1.6-0.5
			c-0.7-0.3-1.4-0.6-2.2-0.9c-0.7-0.3-1.4-0.6-2-0.9c-0.6-0.3-1-0.5-1.2-0.5c-0.3-0.1-0.6-0.1-0.6,0.1c-0.1,0.2-0.1,0.5,0,0.9
			c0,0.2,0.1,0.6,0.3,1.3s0.4,1.5,0.6,2.4c0.2,0.9,0.5,1.8,0.7,2.7c0.2,0.9,0.4,1.6,0.6,2.2c0.1,0.3,0.1,0.5,0,0.7
			c-0.1,0.1-0.3,0.3-0.6,0.3c-0.8,0.2-1.4,0.2-2-0.1c-0.6-0.3-1-1-1.3-1.9c-0.1-0.2-0.2-0.8-0.5-1.7c-0.2-1-0.5-2.1-0.9-3.6
			c-0.4-1.4-0.8-3-1.2-4.8c-0.4-1.8-0.9-3.6-1.4-5.4c-0.5-1.8-0.9-3.7-1.4-5.4s-0.8-3.4-1.2-4.9c-0.4-1.4-0.7-2.7-0.9-3.6
			c-0.3-1-0.4-1.6-0.5-1.8c-0.1-0.4-0.2-0.7-0.1-0.8s0.2-0.2,0.6-0.3c0.3-0.1,0.7-0.1,1-0.1c0.4,0.1,0.7,0.2,1.1,0.4
			s0.7,0.5,0.9,0.8c0.3,0.3,0.5,0.7,0.6,1c0.1,0.2,0.2,0.7,0.4,1.5c0.2,0.8,0.4,1.6,0.7,2.7c0.2,1,0.5,2.1,0.8,3.3
			c0.3,1.2,0.6,2.2,0.8,3.3c0.2,1,0.4,1.9,0.6,2.7c0.2,0.8,0.3,1.3,0.4,1.6c0.3-0.7,0.6-1.6,1-2.5
			C148.8,218.4,149,217.6,149.2,216.9z"/>
		<path class="st10" d="M169.5,216.5c-0.7,0.5-1.3,0.6-1.8,0.4c-0.5-0.3-0.8-0.7-1.2-1.3c-0.1-0.2,0-0.3,0.2-0.5
			c0.2-0.2,0.5-0.4,0.9-0.7c0.2-0.2,0.3-0.4,0.3-0.5s-0.1-0.4-0.2-0.6c-0.2-0.3-0.4-0.9-0.9-1.6c-0.4-0.7-0.8-1.5-1.3-2.4
			c-0.4-0.8-0.9-1.6-1.3-2.4c-0.4-0.8-0.7-1.3-0.9-1.7c-0.4,0.3-0.7,0.7-1,1.1c-0.3,0.4-0.6,0.6-0.9,0.6c-0.3,0.1-0.7,0-1-0.2
			c-0.3-0.2-0.6-0.5-0.9-0.8c-0.3-0.3-0.5-0.7-0.7-1c-0.2-0.3-0.3-0.6-0.4-0.7c-0.1-0.2,0-0.5,0.2-0.7c0.2-0.2,0.4-0.4,0.5-0.5
			c0.3-0.3,0.7-0.6,1.2-1.1c0.5-0.4,1-0.9,1.6-1.4c0.6-0.5,1.2-1,1.9-1.5c0.7-0.5,1.3-0.9,1.9-1.3c0.6-0.4,1.2-0.7,1.8-1
			c0.6-0.3,1.1-0.4,1.5-0.4c0.4,0,0.7,0.1,1,0.4c0.3,0.3,0.6,0.6,0.8,0.9c0.1,0.2,0.3,0.4,0.5,0.6c0.2,0.2,0.2,0.4,0.1,0.5
			c-0.4,0.3-0.8,0.6-1.3,1c-0.5,0.4-1,0.7-1.5,1c-0.5,0.3-0.9,0.6-1.3,0.9c-0.4,0.3-0.7,0.4-0.9,0.6c-0.3,0.2-0.5,0.5-0.6,0.6
			c0,0.2,0.1,0.5,0.4,0.9c0.3,0.4,0.6,1,1,1.8c0.4,0.8,0.9,1.5,1.3,2.3s0.9,1.5,1.3,2.2c0.4,0.6,0.7,1.1,0.8,1.3
			c0.2,0.2,0.3,0.3,0.4,0.3c0.1,0,0.2,0,0.4-0.1c0.4-0.3,0.7-0.5,1.2-0.7c0.4-0.2,0.8-0.4,1.2-0.6c0.5-0.2,1-0.1,1.5,0.5
			c0.3,0.4,0.4,0.7,0.4,1c0,0.2-0.2,0.4-0.6,0.6c-0.4,0.2-0.7,0.4-1.1,0.5s-0.7,0.3-1.1,0.6c-0.2,0.1-0.4,0.3-0.5,0.4
			s-0.2,0.2-0.2,0.3c0,0.1,0,0.2,0.1,0.4c0.1,0.2,0.2,0.4,0.3,0.7c0.1,0.3,0.4,0.7,0.7,1.3c0.3,0.6,0.7,1.3,1.2,2.2
			c0.4,0.8,0.9,1.7,1.4,2.7c0.5,0.9,1,1.9,1.4,2.8c0.5,0.9,0.9,1.7,1.3,2.5c0.4,0.8,0.7,1.4,0.9,1.9c0.1,0.3,0.1,0.6-0.1,1
			c-0.2,0.3-0.5,0.5-0.8,0.6c-1.3,0.3-2.3-0.3-3.1-1.6c-0.1-0.3-0.4-0.7-0.7-1.3c-0.3-0.6-0.7-1.3-1.1-2c-0.4-0.7-0.9-1.5-1.3-2.4
			c-0.5-0.8-0.9-1.6-1.3-2.4c-0.4-0.7-0.8-1.4-1.1-2.1C169.9,217.3,169.6,216.9,169.5,216.5z"/>
		<path class="st10" d="M190.9,206.6c0.7,0.3,1.2,0.8,1.6,1.3c0.4,0.6,0.5,1.1,0.5,1.8c0,0.6-0.1,1.3-0.3,2.1
			c-0.2,0.7-0.4,1.5-0.6,2.1c-0.2,0.7-0.5,1.3-0.8,1.9c-0.3,0.6-0.6,1-1,1.2c-0.9,0.8-1.7,1.2-2.6,1.2c-0.9,0-1.7-0.2-2.6-0.6
			c-0.8-0.5-1.6-1.1-2.3-2c-0.7-0.9-1.4-1.8-2-2.9c-0.6-1-0.9-2-1.1-3c-0.2-1-0.3-2-0.2-2.9c0-0.9,0.1-1.7,0.3-2.4
			c0.2-0.7,0.4-1.3,0.5-1.7c0.3-0.5,0.7-0.9,1.2-0.9c0.6-0.1,1.2,0,1.9,0.3c0.7,0.3,1.3,0.8,1.9,1.4c0.6,0.6,1.1,1.4,1.4,2.3
			c0.2,0.5,0.3,1.1,0.3,1.9c0,0.8,0,1.6-0.2,2.3c-0.2,0.8-0.5,1.5-0.8,2.2c-0.4,0.7-0.9,1.1-1.6,1.3c0.1,0.2,0.2,0.4,0.3,0.6
			s0.2,0.3,0.3,0.5c0.1,0.1,0.3,0.2,0.5,0.3c0.2,0.1,0.4,0.1,0.7,0.1c0.6,0,1-0.1,1.4-0.5c0.4-0.4,0.7-0.8,1-1.4
			c0.3-0.6,0.5-1.2,0.7-1.8c0.2-0.7,0.4-1.3,0.5-1.9c0.1-0.6,0.2-1.2,0.2-1.6c0-0.5,0.1-0.8,0.1-1c0-0.3,0.1-0.5,0.1-0.5
			C190.3,206.4,190.5,206.4,190.9,206.6z M183.8,204.5c-0.3,0.3-0.4,0.7-0.6,1.2c-0.1,0.5-0.2,1.1-0.2,1.7s0,1.2,0.1,1.9
			c0.1,0.7,0.2,1.3,0.4,1.8c0.3-0.3,0.6-0.7,0.8-1.3c0.2-0.6,0.3-1.2,0.4-1.9c0-0.7,0-1.3-0.2-1.9
			C184.4,205.3,184.1,204.8,183.8,204.5z"/>
		<path class="st10" d="M202.1,211.8c-0.6,0.7-1.2,1-1.8,1.1s-1.2,0-1.8-0.3c-0.6-0.2-1-0.5-1.5-0.8c-0.4-0.3-0.7-0.6-0.8-0.7
			c-0.3-0.3-0.4-0.5-0.3-0.8c0-0.2,0.1-0.3,0.3-0.3c0.1,0,0.3,0,0.5,0.1c0.4,0.1,0.7,0.1,1-0.1c0.3-0.2,0.5-0.4,0.7-0.6
			c0.8-0.9,1.3-1.7,1.5-2.5c0.2-0.8,0.3-1.5,0.1-2.2c-0.1-0.6-0.4-1.1-0.8-1.5c-0.4-0.4-0.8-0.6-1.2-0.7c-0.2,0-0.5-0.1-1-0.1
			c-0.5,0-1.1-0.1-1.7-0.1c-0.6-0.1-1.2-0.1-1.8-0.2c-0.6-0.1-1.1-0.1-1.4-0.2c-0.6-0.1-1.3-0.3-1.8-0.6c-0.6-0.3-1.1-0.7-1.5-1.2
			s-0.7-1.1-0.9-1.7c-0.2-0.6-0.3-1.2-0.3-1.8c0-0.6,0-1.2,0.2-1.8c0.2-0.6,0.4-1.2,0.7-1.7c0.2-0.3,0.5-0.5,0.9-0.5
			c0.4,0,0.8,0,1.2,0.2c0.4,0.1,0.8,0.3,1.2,0.5c0.4,0.2,0.6,0.3,0.7,0.4c0.3,0.2,0.4,0.5,0.4,0.6c0,0.2-0.1,0.4-0.2,0.6
			c-0.5,0.5-0.8,1.1-1,1.8s-0.2,1.3-0.2,2c0,0.5,0.1,0.9,0.4,1c0.3,0.1,0.7,0.2,1.2,0.3c0.6,0.1,1.2,0.1,1.7,0.1s1.1,0,1.7,0.1
			c1.2,0.1,2.2,0.2,3.1,0.4c0.9,0.2,1.8,0.7,2.8,1.4c0.7,0.6,1.2,1.2,1.5,2c0.3,0.8,0.4,1.7,0.4,2.6c0,0.9-0.2,1.8-0.6,2.8
			C203.3,210.2,202.8,211.1,202.1,211.8z"/>
		<path class="st10" d="M197.7,179.4c0.3,0.2,0.5,0.4,0.6,0.6c0,0.2-0.1,0.5-0.3,0.7c-0.2,0.2-0.7,0.6-1.3,1.3
			c-0.6,0.7-1.3,1.4-2.1,2.3c0.9,0.9,1.8,1.9,2.9,3c1.1,1.1,2.1,2.2,3.2,3.2c1.1,1.1,2.1,2.1,3.1,3.1c1,1,2,1.8,2.8,2.5
			c0.8,0.7,1.5,1.3,2.1,1.6c0.6,0.4,1,0.5,1.2,0.3c0.2-0.1,0.4-0.2,0.5-0.4c0.1-0.1,0.3-0.2,0.4-0.2c0.1,0,0.3-0.1,0.4-0.2
			c0.1-0.1,0.2-0.1,0.5,0.1c0.2,0.1,0.4,0.3,0.6,0.5c0.2,0.2,0.4,0.4,0.5,0.7c0.1,0.2,0.1,0.4,0,0.5c-0.9,0.9-1.7,1.4-2.5,1.6
			c-0.8,0.2-1.6,0.2-2.3,0.1c-0.7-0.2-1.4-0.4-1.9-0.8c-0.6-0.4-1.1-0.8-1.4-1.1c-0.2-0.1-0.7-0.6-1.5-1.5c-0.9-0.8-1.9-1.8-3.1-3
			c-1.2-1.2-2.5-2.4-3.8-3.8c-1.4-1.4-2.7-2.7-3.9-3.9c-0.6,0.7-1.1,1.3-1.6,1.7c-0.4,0.5-0.7,0.7-0.8,0.8c-0.4,0.4-0.8,0.5-1.4,0.2
			c-0.2-0.1-0.5-0.3-0.8-0.7c-0.3-0.4-0.4-0.6-0.4-0.8c0,0,0.3-0.4,0.9-1s1.3-1.3,2.1-2.2c-0.7-0.8-1.4-1.4-1.9-1.9
			s-0.9-0.9-1.1-1.2c-0.3-0.4-0.5-0.7-0.5-0.9c0-0.2,0.1-0.5,0.3-0.8c0.4-0.5,1-0.7,1.6-0.7s1.3,0.3,1.8,0.9
			c0.1,0.1,0.3,0.3,0.7,0.7c0.3,0.3,0.8,0.8,1.3,1.4c0.6-0.6,1.1-1.1,1.5-1.6c0.4-0.5,0.7-0.7,0.8-0.9c0.4-0.5,0.8-0.8,1.2-0.8
			C196.6,178.9,197.1,179.1,197.7,179.4z"/>
		<path class="st10" d="M198.8,176.8c0.2-0.3,0.5-0.5,0.7-0.8c0.3-0.2,0.6-0.3,1.1-0.3c0.1,0,0.3,0.1,0.6,0.3
			c0.3,0.2,0.5,0.4,0.8,0.6c0.3,0.2,0.5,0.4,0.8,0.6c0.2,0.2,0.4,0.4,0.6,0.5c0.4,0.4,0.6,0.7,0.7,0.9c0,0.2-0.1,0.5-0.4,0.9
			c-0.2,0.3-0.5,0.5-0.9,0.5s-0.7,0-1.1-0.3c-0.1,0-0.3-0.2-0.6-0.4c-0.3-0.3-0.7-0.6-1-0.9c-0.4-0.3-0.7-0.7-1-1
			C198.8,177.1,198.7,176.9,198.8,176.8z M205.5,183.2c-0.8-1.1-0.7-1.8,0.4-2c0.4-0.1,0.9-0.1,1.3,0c0.4,0.1,0.9,0.3,1.3,0.6
			c0.6,0.5,1.4,1.1,2.3,1.9c0.9,0.8,1.9,1.6,2.8,2.4s1.8,1.6,2.5,2.3c0.8,0.7,1.3,1.2,1.6,1.5c0.7,0.5,0.9,1.1,0.3,1.7
			c-0.3,0.4-0.7,0.7-1.1,0.7s-0.9,0-1.5-0.3c-0.2-0.1-0.5-0.3-1.1-0.7c-0.5-0.4-1.1-0.9-1.8-1.5c-0.7-0.6-1.4-1.2-2.2-1.9
			s-1.5-1.3-2.2-1.9c-0.7-0.6-1.3-1.2-1.8-1.7C205.9,183.7,205.6,183.4,205.5,183.2z"/>
		<path class="st10" d="M221.4,180.9c-0.1-0.1-0.3-0.5-0.7-1.1c-0.4-0.6-1-1.3-1.6-2.1c-0.6-0.8-1.3-1.7-2.1-2.6
			c-0.8-0.9-1.5-1.8-2.2-2.6c-0.7-0.8-1.3-1.5-1.9-2.1c-0.5-0.6-0.9-1-1.1-1.2c-0.2-0.2-0.3-0.3-0.3-0.4c0-0.1,0.1-0.2,0.1-0.4
			c0.1-0.1,0.3-0.3,0.5-0.3s0.4-0.1,0.7-0.1c0.2,0,0.5,0,0.7,0.1s0.4,0.2,0.6,0.4c0.1,0.1,0.5,0.6,1.1,1.3c0.6,0.7,1.4,1.6,2.3,2.6
			c0.9,1,1.8,2.1,2.8,3.3c1,1.2,1.9,2.3,2.8,3.3c0.9,1,1.7,2,2.3,2.7c0.7,0.8,1.1,1.3,1.2,1.4c0.1,0.1,0.2,0.3,0.3,0.5
			c0.1,0.2,0.2,0.4,0.1,0.6c0,0.1-0.1,0.3-0.2,0.5c-0.1,0.2-0.3,0.4-0.6,0.6c-0.3,0.2-0.7,0.2-1.2,0.3c-0.5,0-1.2-0.1-2-0.5
			c-0.3-0.1-0.8-0.4-1.6-0.7c-0.8-0.4-1.7-0.8-2.7-1.3c-1-0.5-2-1-3.1-1.6c-1.1-0.6-2.1-1.1-3.1-1.6c-1-0.5-1.8-0.9-2.5-1.3
			c-0.7-0.4-1.1-0.6-1.3-0.7c-0.2-0.1-0.5-0.2-0.7-0.3c-0.3-0.1-0.4-0.3-0.4-0.6c-0.1-0.3,0-0.6,0.1-0.8c0.2-0.2,0.4-0.4,0.6-0.6
			c0.8-0.5,1.7-0.5,2.7,0c1.4,0.7,2.9,1.5,4.3,2.2s2.8,1.4,4.3,2.2c0.2,0.1,0.5,0.2,0.8,0.3C220.8,180.6,221.1,180.8,221.4,180.9z"
			/>
		<path class="st10" d="M222.3,158.6c0.8-0.2,1.5-0.3,2.2-0.2c0.7,0.1,1.5,0.4,2.3,0.9c0.6,0.4,1.4,0.9,2.4,1.5
			c0.9,0.6,1.9,1.2,2.8,1.7c0.9,0.5,1.7,1,2.3,1.4c0.7,0.4,1,0.6,1.1,0.7c0.3,0.2,0.4,0.4,0.2,0.7c0,0-0.1,0.2-0.3,0.4
			c-0.2,0.2-0.5,0.4-0.9,0.6c-0.4,0.2-0.8,0.2-1.4,0.2c-0.6,0-1.2-0.2-2-0.6c-0.4-0.2-0.8-0.5-1.4-0.8c-0.5-0.3-1-0.6-1.4-0.8
			c0.2,0.4,0.5,0.8,0.8,1.3c0.3,0.5,0.5,1,0.8,1.5c0.3,0.5,0.5,1,0.7,1.4c0.2,0.5,0.4,0.8,0.5,1.1c0.2,0.7,0.3,1.4,0.3,2.2
			c-0.1,0.7-0.4,1.3-0.9,1.7c-0.2,0.1-0.4,0.2-0.8,0.3c-0.4,0.1-0.8,0.2-1.3,0.1c-0.5,0-1.1-0.1-1.7-0.3c-0.6-0.2-1.2-0.5-1.8-1
			c-0.7-0.5-1.4-1.3-2.1-2.2c-0.6-0.9-1.2-1.9-1.7-2.9c-0.5-1-0.8-2-1.1-3c-0.2-1-0.3-1.9-0.2-2.6c0.1-0.4,0.2-0.7,0.4-0.9
			c0.2-0.2,0.5-0.3,0.7-0.4c0.2-0.1,0.4-0.2,0.5-0.3c0.1-0.1,0.2-0.2,0.1-0.4c-0.2-0.3-0.2-0.6,0-0.8
			C221.7,158.8,222,158.7,222.3,158.6z M228.2,171c0.2-0.1,0.2-0.4,0.1-0.9c-0.1-0.5-0.3-1.1-0.5-1.7c-0.2-0.7-0.5-1.4-0.9-2.1
			c-0.4-0.8-0.7-1.4-1.1-2.1c-0.4-0.6-0.7-1.2-1-1.6c-0.3-0.4-0.6-0.6-0.8-0.5c-0.4,0.1-0.6,0.3-0.7,0.9c0,0.5,0.1,1.1,0.3,1.9
			c0.2,0.7,0.5,1.5,0.9,2.3c0.4,0.8,0.8,1.5,1.3,2.2c0.4,0.6,0.9,1.1,1.3,1.5C227.5,171.1,227.9,171.2,228.2,171z"/>
		<path class="st10" d="M211.8,148.6c-0.4-0.2-0.7-0.5-0.8-0.7c-0.1-0.2-0.1-0.5,0.1-0.8c0.2-0.6,0.7-1,1.3-1.2
			c0.6-0.2,1.3-0.1,2,0.3c0.2,0.1,0.6,0.3,1.4,0.7c0.7,0.4,1.7,0.9,2.8,1.5c1.1,0.6,2.4,1.2,3.7,1.9c1.4,0.7,2.8,1.4,4.2,2.1
			c1.4,0.7,2.8,1.3,4.2,2c1.4,0.6,2.6,1.1,3.7,1.6c1.1,0.4,2,0.7,2.7,0.9c0.7,0.2,1.2,0.2,1.3,0c0.1-0.2,0.3-0.3,0.4-0.5
			c0.1-0.2,0.2-0.3,0.3-0.4l0.3-0.3c0.1-0.1,0.2-0.1,0.5-0.1c0.3,0.1,0.5,0.2,0.8,0.3c0.3,0.1,0.5,0.3,0.7,0.5
			c0.2,0.2,0.3,0.3,0.2,0.5c-0.5,1.1-1.1,1.9-1.8,2.4c-0.7,0.5-1.4,0.7-2.1,0.8s-1.4,0-2.1-0.2c-0.7-0.2-1.3-0.4-1.7-0.6
			c-0.2-0.1-0.8-0.3-1.9-0.8c-1.1-0.5-2.3-1.1-3.8-1.8c-1.5-0.7-3.1-1.5-4.8-2.3c-1.7-0.8-3.4-1.6-4.9-2.4c-1.6-0.8-2.9-1.4-4.1-2
			C213,149.3,212.2,148.9,211.8,148.6z"/>
	</g>
</g>
</svg>
